<?xml version="1.0" encoding="utf-8"?>
<!-- Generator: Adobe Illustrator 24.0.3, SVG Export Plug-In . SVG Version: 6.00 Build 0)  -->
<svg width="100%" version="1.1" id="Layer_1" xmlns="http://www.w3.org/2000/svg" xmlns:xlink="http://www.w3.org/1999/xlink" x="0px" y="0px"
	 viewBox="0 0 78.5 128.8" style="enable-background:new 0 0 78.5 128.8;" xml:space="preserve">
<style type="text/css">
	.stBoltInside{fill:#FFFFFF;}
</style>
<g>
	<path class="stBoltInside" d="M32.2,74.8c-10.8,0-21.4,0-32.2,0c0.2-0.5,0.3-0.9,0.4-1.2C10,49.4,19.5,25.2,29,1C29.2,0.6,29.8,0,30.2,0
		c15.8,0,31.6,0,47.5,0c0.2,0,0.4,0,0.8,0.1c-11.6,17-23.1,33.9-34.8,51c11.3-0.3,22.5-0.5,33.9-0.8C54,76.6,30.5,102.7,7.1,128.8
		c-0.1,0-0.1-0.1-0.2-0.1C15.3,110.8,23.7,92.9,32.2,74.8z"/>
</g>
</svg>
