<?xml version="1.0" encoding="utf-8"?>
<!-- Generator: Adobe Illustrator 24.0.3, SVG Export Plug-In . SVG Version: 6.00 Build 0)  -->
<svg version="1.1" id="Layer_1" xmlns="http://www.w3.org/2000/svg" xmlns:xlink="http://www.w3.org/1999/xlink" x="0px" y="0px"
	 viewBox="0 0 457.2 430.7" style="enable-background:new 0 0 457.2 430.7;" xml:space="preserve">
<style type="text/css">
	.st0{fill:#C95C31;}
</style>
<path class="st0" d="M457,69.7L432.9,1.9c0,0,0,0,0,0l0,0c0,0,0,0,0-0.1c0-0.1-0.1-0.2-0.2-0.4c0,0,0-0.1-0.1-0.1
	c0-0.1-0.1-0.1-0.1-0.2c-0.1-0.1-0.2-0.2-0.3-0.3c0,0-0.1-0.1-0.1-0.1c-0.1-0.1-0.3-0.3-0.5-0.4c0,0,0,0,0,0
	c-0.2-0.1-0.4-0.2-0.6-0.2c0,0,0,0-0.1,0c0,0-0.1,0-0.1,0c-0.1,0-0.3-0.1-0.4-0.1c-0.1,0-0.1,0-0.2,0c-0.2,0-0.4,0-0.6,0
	c0,0,0,0,0,0c-0.2,0-0.3,0.1-0.5,0.1L288.1,54.4H169.1L28,0.2C27.6,0,27.2,0,26.9,0c-0.1,0-0.1,0-0.2,0c-0.2,0-0.3,0-0.5,0.1
	c0,0-0.1,0-0.1,0c0,0,0,0-0.1,0c-0.2,0.1-0.4,0.1-0.6,0.2c0,0,0,0,0,0c-0.2,0.1-0.3,0.2-0.5,0.4c0,0-0.1,0.1-0.1,0.1
	c-0.1,0.1-0.2,0.2-0.3,0.3c0,0.1-0.1,0.1-0.1,0.2c0,0,0,0.1-0.1,0.1c-0.1,0.1-0.1,0.2-0.2,0.4c0,0,0,0,0,0.1l0,0c0,0,0,0,0,0
	L0.2,69.7c-0.2,0.5-0.2,1-0.1,1.6l15.5,70.9L5,148.6c-0.8,0.5-1.3,1.3-1.3,2.3c0,0.9,0.4,1.8,1.1,2.4l12.6,9.5l-7.9,6.1
	c-0.7,0.5-1.1,1.4-1.1,2.2c0,0.9,0.4,1.7,1.1,2.2l12.9,10.2l-6.1,4.5c-0.6,0.5-1,1.1-1.1,1.9c-0.1,0.8,0.1,1.5,0.6,2.1l17.6,22.3
	L4.1,310.6c0,0.1,0,0.1,0,0.2c0,0.1,0,0.2-0.1,0.3c0,0.1,0,0.2,0,0.3c0,0.1,0,0.2,0,0.3c0,0.1,0,0.2,0.1,0.3c0,0.1,0,0.1,0,0.2
	l29.2,100c0.4,1.2,1.5,2,2.7,2c0.3,0,0.5,0,0.8-0.1l95.8-27.2l58.6,43.3c0.5,0.4,1.1,0.6,1.7,0.6h35.7h35.7c0.6,0,1.2-0.2,1.7-0.6
	l58.6-43.3l95.8,27.2c0.3,0.1,0.5,0.1,0.8,0.1c1.2,0,2.4-0.8,2.7-2l29.2-100c0-0.1,0-0.1,0-0.2c0-0.1,0-0.2,0.1-0.3
	c0-0.1,0-0.2,0-0.3c0-0.1,0-0.2,0-0.3c0-0.1,0-0.2-0.1-0.3c0-0.1,0-0.1,0-0.2L424,214.4l17.6-22.3c0.5-0.6,0.7-1.4,0.6-2.1
	c-0.1-0.8-0.5-1.4-1.1-1.9l-6.1-4.5l12.9-10.2c0.7-0.5,1.1-1.4,1.1-2.2c0-0.9-0.4-1.7-1.1-2.2l-7.9-6.1l12.6-9.5
	c0.7-0.6,1.2-1.5,1.1-2.4c0-0.9-0.5-1.8-1.3-2.3l-10.5-6.5l15.5-70.9C457.3,70.7,457.2,70.2,457,69.7z M133.1,188l57.3-52.7
	l6.1,95.3l-46.5-2l-41.8-1.8l8-12.4L133.1,188z M198.2,299l-2.5-14.3c-0.2-1.1-1-1.9-1.9-2.2l3.6-20.3L198.2,299z M196.2,236.3
	l-7.1,39.8l-9.9-20c-0.7-1.4-2.3-1.9-3.7-1.4l-31.3,13.5H143L110,232.7L196.2,236.3z M114.8,246.2l24.2,26l0.8,23.2l-2.8-5.5
	L114.8,246.2z M269.5,352.8l42.3-33.7l5.5,57.9l-9.2-4.6L269.5,352.8z M317.3,316.4l44.9-0.7l-38.9,63.8L317.3,316.4z M149,372.3
	l-9.2,4.6l5.5-57.9l42.3,33.7L149,372.3z M133.9,379.5L95,315.7l44.9,0.7L133.9,379.5z M263.5,282.4c-1,0.3-1.8,1.2-1.9,2.2L259,299
	l0.8-36.8L263.5,282.4z M318.2,272.2l10-10.8l14.2-15.2l-24.9,49.2L318.2,272.2z M314.2,268.2h-1.3l-31.3-13.5c-1.4-0.6-3,0-3.7,1.4
	l-9.9,20l-7.1-39.8l86.2-3.7L314.2,268.2z M349,226.9l-41.8,1.8l-46.5,2l6.1-95.3l57.3,52.7l16.9,26.5L349,226.9z M261.6,128.3
	c0,0,0,0.1,0,0.1c0,0,0,0.1,0,0.1c0,0.1,0,0.1,0,0.2c0,0.1,0,0.1,0,0.2c0,0.1,0,0.1,0,0.2l-6.7,104.4c0,0,0,0,0,0c0,0,0,0,0,0.1
	c0,0,0,0,0,0l-2.2,103c0,1.5,1.1,2.7,2.6,2.9c0.1,0,0.2,0,0.3,0c1.4,0,2.6-1,2.8-2.4l8.5-49.1h0.1c0.2,0,0.4,0,0.5-0.1
	c0,0,0.1,0,0.1,0c0,0,0.1,0,0.1,0l44.8-13.9l-1.1,34c0,0,0,0,0,0.1c0,0,0,0,0,0v4.2l-47.2,37.6l-7.2-4.6c-0.9-0.5-2-0.6-2.9-0.1
	c-0.9,0.5-1.5,1.4-1.5,2.5h-24h-24c0-1-0.6-2-1.5-2.5c-0.9-0.5-2-0.5-2.9,0.1l-7.2,4.6l-47.2-37.6V308c0,0,0,0,0,0c0,0,0,0,0-0.1
	l-1.1-34l44.8,13.9c0,0,0.1,0,0.1,0c0,0,0.1,0,0.1,0c0.2,0,0.4,0.1,0.5,0.1h0.1l8.5,49.1c0.2,1.4,1.4,2.4,2.8,2.4c0.1,0,0.2,0,0.3,0
	c1.5-0.1,2.6-1.4,2.6-2.9l-2.2-103c0,0,0,0,0,0c0,0,0,0,0-0.1c0,0,0,0,0,0l-6.7-104.4c0-0.1,0-0.1,0-0.2c0-0.1,0-0.1,0-0.2
	c0-0.1,0-0.1,0-0.2c0,0,0-0.1,0-0.1c0,0,0-0.1,0-0.1l-23-68.3h112.1L261.6,128.3z M142.8,381.8l46.9-23.7l-1.3,19.5l-0.9,14.1
	l-0.8,11.9L142.8,381.8z M269.7,391.7l-0.9-14.1l-1.3-19.5l46.9,23.7l-43.9,21.8L269.7,391.7z M412.8,12.6L270,121.4l20.9-62
	L412.8,12.6z M166.3,59.4l20.9,62L44.4,12.6L166.3,59.4z M28.6,185.9c0.7-0.5,1.1-1.3,1.2-2.2s-0.4-1.7-1.1-2.3l-12.9-10.3l8-6.2
	c0.7-0.5,1.1-1.4,1.1-2.3c0-0.9-0.4-1.7-1.1-2.2l-12.3-9.2l8.7-5.4c1-0.6,1.5-1.8,1.3-3l-15.7-72L28.3,7.4l160.1,122l-59,54.2
	l-92.1,26.9l-15.5-19.6L28.6,185.9z M38.6,216.1l85.9-25.1l-23.6,37c0,0,0,0,0,0c-0.1,0.1-0.1,0.2-0.2,0.3c0,0,0,0,0,0
	c0,0,0,0.1,0,0.1c0,0.1,0,0.1-0.1,0.2c0,0,0,0,0,0.1c0,0,0,0,0,0c0,0,0,0.1,0,0.1c0,0.1,0,0.1,0,0.2c0,0.1,0,0.2,0,0.3
	c0,0,0,0.1,0,0.1c0,0,0,0,0,0c0,0,0,0,0,0.1c0,0.1,0,0.2,0,0.3c0,0.1,0,0.1,0,0.2c0,0.1,0,0.1,0,0.2c0,0,0,0,0,0.1c0,0,0,0,0,0.1
	c0,0,0,0,0,0c0,0,0,0.1,0,0.1c0,0.2,0.1,0.3,0.2,0.4c0,0,0,0,0,0l39.5,77.9v2l-129.6-2.1L38.6,216.1z M38,407.9l-27.3-93.6l77.7,1.3
	l40.5,66.5L38,407.9z M263.4,425h-34.8h-34.8l-47.9-35.4l42.1,20.9c0.2,0.1,0.4,0.2,0.6,0.2c0.1,0,0.2,0,0.2,0c0.1,0,0.3,0,0.4,0
	c0,0,0,0,0,0c0.2,0,0.3,0,0.5-0.1c0.1,0,0.2,0,0.2,0c0.2-0.1,0.5-0.2,0.7-0.3c0.8-0.5,1.4-1.3,1.4-2.3l1-14.4l1.8-0.8h33.8h33.8
	l1.8,0.8l1,14.4c0.1,0.9,0.6,1.8,1.4,2.3c0.2,0.1,0.4,0.2,0.7,0.3c0.1,0,0.2,0,0.2,0c0.2,0,0.3,0.1,0.5,0.1c0,0,0,0,0,0
	c0.1,0,0.3,0,0.4,0c0.1,0,0.2,0,0.2,0c0.2,0,0.4-0.1,0.6-0.2l42.1-20.9L263.4,425z M419.2,407.9l-90.8-25.8l40.5-66.5l77.7-1.3
	L419.2,407.9z M317,310.7v-2l39.5-77.9c0,0,0,0,0,0c0.1-0.1,0.1-0.3,0.2-0.4c0,0,0-0.1,0-0.1c0,0,0,0,0,0c0,0,0,0,0-0.1
	c0,0,0,0,0-0.1c0-0.1,0-0.1,0-0.2c0-0.1,0-0.1,0-0.2c0-0.1,0-0.2,0-0.3c0,0,0,0,0-0.1c0,0,0,0,0,0c0,0,0-0.1,0-0.1
	c0-0.1,0-0.2,0-0.3c0-0.1,0-0.1,0-0.2c0,0,0-0.1,0-0.1c0,0,0,0,0,0c0,0,0,0,0-0.1c0-0.1,0-0.1-0.1-0.2c0,0,0-0.1,0-0.1c0,0,0,0,0,0
	c0-0.1-0.1-0.2-0.2-0.3c0,0,0,0,0,0l-23.6-37l85.9,25.1l28,92.5L317,310.7z M435.7,142.9c-0.3,1.2,0.3,2.4,1.3,3l8.7,5.4l-12.3,9.2
	c-0.7,0.5-1.1,1.4-1.1,2.2c0,0.9,0.4,1.7,1.1,2.3l8,6.2l-12.9,10.3c-0.7,0.6-1.1,1.4-1.1,2.3s0.4,1.7,1.2,2.2l6.8,5l-15.5,19.6
	l-92.1-26.9l-59-54.2l160.1-122l22.5,63.4L435.7,142.9z"/>
</svg>
