<?xml version="1.0" encoding="utf-8"?>
<!-- Generator: Adobe Illustrator 24.0.3, SVG Export Plug-In . SVG Version: 6.00 Build 0)  -->
<svg version="1.1" id="Layer_1" xmlns="http://www.w3.org/2000/svg" xmlns:xlink="http://www.w3.org/1999/xlink" x="0px" y="0px"
	 viewBox="0 0 78.4 70.2" style="enable-background:new 0 0 78.4 70.2;" xml:space="preserve">

<g>
	<polygon  points="51.9,16.9 64.3,16.9 64.3,12.2 78.4,12.2 78.4,4.7 64.2,4.7 64.2,0 51.9,0 51.9,4.7 0,4.7 0,12.3
		51.9,12.3 	"/>
	<path  d="M16.5,38.9c0,0.7,0,1.5,0,2.2c0,0.4,0,0.7,0,1.1v1.4h12.3v-4.7h49.6v-7.6H28.8v-4.6H16.4v4.7H0v7.5l6.2,0
		C9.6,38.9,13.1,38.9,16.5,38.9z"/>
	<path  d="M70.2,57.9c-6.7,0-13.4,0-20.1,0c0-0.7,0-1.4,0-2.1c0-0.4,0-0.7,0-1.1v-1.4H37.7V58H0v7.6h37.8v4.7h12.3v-4.7
		h28.3v-7.5L70.2,57.9z"/>
</g>
</svg>
