<?xml version="1.0" encoding="utf-8"?>
<!-- Generator: Adobe Illustrator 24.0.3, SVG Export Plug-In . SVG Version: 6.00 Build 0)  -->
<svg version="1.1" id="Layer_1" xmlns="http://www.w3.org/2000/svg" xmlns:xlink="http://www.w3.org/1999/xlink" x="0px" y="0px"
	 viewBox="0 0 96.2 60.1" style="enable-background:new 0 0 96.2 60.1;" xml:space="preserve">
<g>
	<path d="M96,17c-1.1-3.6-4.9-7.1-23.8-4C66.7,5.1,57.7,0,47.5,0C30.9,0,17.4,13.5,17.4,30.1c0,0.1,0,0.2,0,0.3
		C0.2,38.7-0.8,43.8,0.3,47.3c1.3,4.1,6.1,5.2,11.5,5.2c2.5,0,5.2-0.2,7.7-0.5c2-0.2,4.2-0.6,6.4-1c5.5,5.6,13.1,9.1,21.5,9.1
		c15,0,27.4-11,29.7-25.3c2.1-1,4-1.9,5.8-2.9C90,28.1,97.9,23,96,17z M47.5,8.5c11.6,0,21,9.2,21.5,20.7
		c-5.4,2.3-11.8,4.7-19.5,7.2c-7.7,2.4-14.4,4.2-20.1,5.4c-2.2-3.4-3.5-7.4-3.5-11.7C25.9,18.2,35.6,8.5,47.5,8.5z M10.7,44.1
		c1.6-1.2,4.2-2.9,8.1-4.9c0.5,1.4,1,2.8,1.7,4.2C16.2,43.9,12.9,44.1,10.7,44.1z M47.5,51.6c-3.9,0-7.6-1.1-10.7-2.9
		c4.9-1.2,10.1-2.6,15.3-4.3c5.2-1.7,10.3-3.4,15-5.3C63.6,46.5,56.1,51.6,47.5,51.6z M77.2,25.4c-0.2-1.5-0.6-3-1-4.4
		c4.4-0.6,7.5-0.7,9.5-0.7C83.8,21.7,81,23.4,77.2,25.4z"/>
</g>
</svg>
