<?xml version="1.0" encoding="utf-8"?>
<!-- Generator: Adobe Illustrator 24.0.3, SVG Export Plug-In . SVG Version: 6.00 Build 0)  -->
<svg version="1.1" id="Layer_1" xmlns="http://www.w3.org/2000/svg" xmlns:xlink="http://www.w3.org/1999/xlink" x="0px" y="0px"
	 viewBox="0 0 593.6 214.3" style="enable-background:new 0 0 593.6 214.3;" xml:space="preserve">
<style type="text/css">
	.st0{fill:#E0E0E0;}
	.st1{fill-rule:evenodd;clip-rule:evenodd;fill:#E0E0E0;}
</style>
<g>
	<path class="st0" d="M198.9,154c-1.8-1.2-4-1.8-6.5-1.8h-27.3v0h-28c-3.6,0-7.1,1.3-10.3,3.8c-3.2,2.5-5.2,5.6-6,9.1
		c-0.9,4.3-2.1,10.1-3.5,17.3c-1.7,8.6-2.8,14.4-3.4,17.3c-0.3,1.6-0.5,3-0.5,4c0,1.4,0.2,2.8,0.7,4c0.8,2,2.1,3.6,3.9,4.8
		c1.8,1.2,3.9,1.7,6.4,1.7c30.4,0,48.6,0,54.7,0c2.5,0,4.7-0.4,6.5-1.2c6-2.6,9.5-6.7,10.6-12.2c1.3-6.5,3.6-17.9,6.8-34.1
		c0.3-1.6,0.5-2.9,0.5-3.9c0-1.4-0.2-2.7-0.6-3.9C202.1,156.8,200.7,155.2,198.9,154 M181.6,163.6c2.9,0,4.8,1.2,5.6,3.6
		c0.3,1,0.4,2.2,0.1,3.5c-1.9,9.8-3.6,18.4-5,25.8c-0.4,2.1-1.3,3.6-2.6,4.8c-1.3,1.1-3,1.7-5.1,1.7c-12,0-24.9,0-38.6,0
		c-1.3,0-2.4-0.2-3.2-0.5c-1.1-0.4-1.9-1.1-2.4-2.2c-0.4-0.7-0.6-1.5-0.6-2.3v0c0-0.7,0-1.4,0.2-2.3c1.7-9.1,3.4-17.6,5-25.4
		c0.5-2.3,1.4-4,2.7-5.1c1.3-1,3.2-1.6,5.6-1.6l19.1,0C172.9,163.6,179.4,163.6,181.6,163.6 M46.7,152.6c-0.5,0.3-0.9,0.9-1.3,1.7
		c-2,4.2-5.2,10.8-9.5,19.8c-4.2,8.6-7.3,15.2-9.5,19.8c-1,2.1-2.4,3.7-4.3,5c-0.3,0.2-0.5,0.3-0.5,0.3c-0.2,0.1-0.4-0.1-0.5-0.3
		c-0.6-1.1-1.1-2-1.3-2.6c-0.5-1-0.7-2-0.8-2.9c-0.2-3.2-0.8-9.1-1.5-17.6c-0.9-9.7-1.6-17-2-21.9c0-0.6-0.2-0.9-0.4-1.1
		c-0.2-0.2-0.6-0.3-1.1-0.3c-5.1,0.1-9.2,0.1-12.2,0c-0.6,0-1.1,0.1-1.3,0.4C0,153,0,153.5,0,154.1c0.2,2.2,0.5,5.4,0.9,9.8l2,20.9
		c0.9,9.2,1.5,15.3,1.8,18.4c0.6,5.1,3.3,8.6,8.4,10.4c3.5,1.2,7.3,1.2,11.2-0.1c4-1.3,7.2-3.6,9.6-6.8c1.5-1.9,2.9-4.3,4.4-7.2
		c1.6-3.4,2.8-5.9,3.7-7.6c1.4-3,2.5-5.3,3.2-6.8c1.3-2.6,2.4-4.9,3.5-6.7c0.2,0.1,0.3,0.3,0.3,0.5c0,0,0,0.2,0.1,0.6
		c0.8,3.1,1.4,6.7,1.8,11c0.2,2.5,0.5,6.2,0.8,11.1c0.4,4.4,2,7.8,4.9,10.1c2.8,2.2,6.2,3,10.2,2.5c4-0.5,7.5-1.8,10.5-3.9
		c3-2.1,5.4-5,7.1-8.7l22-45.3c0.3-0.6,0.9-1.9,1.9-4c-2.9,0-5.1,0-6.5,0c-2.6,0-4.7,0-6.5,0c-0.6,0-1,0.1-1.4,0.3
		c-0.3,0.2-0.6,0.6-0.9,1.1c-1.7,3.5-5,10.4-9.9,20.7c-4.2,8.6-7.5,15.5-9.9,20.7c-0.4,0.9-1,1.6-1.8,2.3c-0.4,0.4-1.2,0.9-2.3,1.6
		c-0.2,0.1-0.3,0.2-0.4,0.2c-0.1,0-0.3-0.1-0.4-0.2c-0.5-0.7-0.9-1.3-1.1-1.6c-0.4-0.7-0.7-1.3-0.7-1.9l-1.7-17.2
		c-0.6-6.6-1.3-14.7-2.1-24.3c-0.1-0.6-0.2-1-0.4-1.3c-0.2-0.3-0.7-0.4-1.3-0.4c-5,0.1-9.1,0.1-12.2,0
		C47.9,152.1,47.2,152.3,46.7,152.6 M164.2,59.4c-0.2-0.2-0.6-0.3-1.2-0.3c-4.3,0.1-8.3,0.1-12.1,0c-0.6,0-1,0.1-1.3,0.3
		c-0.2,0.2-0.4,0.6-0.5,1.2c-0.7,3.6-2,10.4-4,20.1c-1.7,8.5-3,15.2-4,20.1c-0.2,1.2-0.6,3-1.1,5.4c-0.4,2.1-0.6,4-0.5,5.5
		c0.1,2.3,1,4.3,2.8,6.1c1.8,1.8,3.8,2.8,6,3c2.5,0.2,4.8,0.3,7.1,0.3c2.4,0,9.7,0,21.8,0c13.8,0,22,0,24.8,0c0.5,0,0.9-0.1,1.1-0.2
		c0.3-0.2,0.5-0.5,0.6-1c0.1-0.8,0.7-3.7,1.6-8.5c0.2-0.8,0.2-1.3,0.1-1.5c-0.1-0.1-0.6-0.2-1.5-0.2h-36.1c-2,0-3.2,0-3.6,0
		c-1.4,0-2.5-0.1-3.6-0.2c-1.4-0.1-2.4-0.6-3.2-1.2c-0.8-0.7-1.3-1.7-1.6-3c-0.1-0.6-0.1-1.2,0-1.9c0-0.2,0.2-0.9,0.4-1.9
		c1.7-8.7,4.4-22.3,8.1-40.9C164.4,60,164.4,59.7,164.2,59.4 M88.7,72c0.7-3.6,0.1-6.6-1.9-9.1c-2-2.5-4.9-3.7-8.5-3.7H28
		c-3.7,0-7.2,1.3-10.4,3.9c-3.2,2.6-5.2,5.8-5.9,9.4C10.8,77.1,9.2,85,7,96.2c-2,10.1-3.6,18-4.7,23.8c-0.1,0.5-0.1,0.9,0.1,1.1
		c0.1,0.1,0.5,0.2,1,0.2c6.3,0,10.5,0,12.7,0c0.5,0,0.8-0.1,1-0.3c0.2-0.2,0.3-0.5,0.4-1c0.3-1.6,0.8-4.3,1.6-8
		c0.7-3.4,1.2-6.1,1.5-8c0.1-0.6,0.3-1,0.6-1.3c0.3-0.2,0.7-0.3,1.3-0.3c6.8,0,17.1,0.1,30.7,0.1c0.6,0,1-0.1,1.2-0.3
		c0.3-0.2,0.4-0.6,0.5-1.1c0.3-1.7,0.8-4.5,1.6-8.2c0.2-0.9,0.2-1.4,0.1-1.6c-0.1-0.1-0.7-0.2-1.7-0.2c-1.5,0-6.5,0-15.1,0
		c-6.1,0-11.2,0-15.1-0.2c-0.6,0-1-0.1-1.2-0.4c-0.2-0.2-0.2-0.6,0-1.2c0.1-0.6,1-4.8,2.6-12.8c0.4-1.9,1.2-3.4,2.5-4.4
		c1.3-1.1,2.9-1.6,4.8-1.6c15.1,0,26.4,0,34,0c2,0,3.5,0.6,4.5,1.9c1,1.2,1.3,2.9,1,4.8c-2.8,14.2-5.6,28.4-8.4,42.6
		c-0.1,0.6-0.1,1,0.1,1.2c0.2,0.2,0.5,0.3,1.1,0.3c4.7-0.1,8.7,0,12.1,0c0.6,0,1-0.1,1.3-0.3c0.2-0.2,0.4-0.6,0.5-1.2
		C82.9,101.5,86,85.6,88.7,72 M296.5,159.5c0.1-0.8,0.2-1.5,0.1-2.1c-0.1-1.6-0.7-2.8-1.9-3.7c-1.1-0.9-2.6-1.4-4.3-1.4H256
		c-17.9,0-29.4,0-34.5,0c-0.6,0-1.1,0.1-1.3,0.3c-0.3,0.2-0.5,0.6-0.6,1.2c-0.5,3.1-1,5.8-1.6,8.3c-0.2,0.7-0.1,1.1,0.1,1.3
		c0.2,0.2,0.6,0.3,1.2,0.3c5.3,0,17.1,0,35.5,0c10.5,0,16.8,0,18.9,0c1.7,0,3,0.5,4.1,1.4c1,1,1.6,2.2,1.6,3.8
		c0,1.9-0.4,3.7-1.4,5.3c-0.8,1.3-1.8,2.2-3.2,2.8c-1.1,0.5-2.5,0.7-4.1,0.7c-20.1,0-38.2,0-54.3,0c-0.6,0-1,0.1-1.2,0.3
		c-0.3,0.2-0.5,0.6-0.6,1.2c-1.6,8.5-3.8,19.9-6.6,34c-0.1,0.5-0.1,0.9,0,1c0.1,0.2,0.5,0.3,1,0.3c4.2,0,8.5,0,12.7,0
		c0.5,0,0.8-0.1,1-0.3c0.2-0.2,0.3-0.5,0.4-1c0.2-1.3,1.6-8.3,4.1-21.1c0.2-1,0.6-1.8,1.1-2.2c0.6-0.5,1.3-0.7,2.3-0.7
		c20.3,0,32.5,0,36.5,0c1.8,0,3.2,0.4,4,1.2c0.9,0.8,1.4,2.1,1.7,3.9c0.6,4.2,1.5,10.6,2.6,19.1c0.1,0.4,0.1,0.7,0.3,0.9
		c0.2,0.2,0.4,0.3,0.9,0.3c5.6,0,10.2,0,13.9,0c0.5,0,0.9-0.1,1-0.3c0.1-0.2,0.1-0.5,0-1c-0.1-0.5-0.2-1.1-0.3-1.8
		c-0.1-1-0.2-1.6-0.2-1.8c-0.5-3.7-0.9-6.5-1.2-8.4c-0.5-3.3-0.9-6.1-1.3-8.4c-0.2-1.3-0.6-2.3-1.3-2.9c-0.6-0.6-1.7-1-3-1.3
		l-1.7-0.3c-0.3-0.1-0.4-0.2-0.5-0.3c-0.1-0.1,0-0.3,0.2-0.5c0.4-0.3,1-0.9,1.7-1.6c0.7-0.6,1.4-1,2-1.2c4-1.4,6.3-4,7.1-7.7
		c1.6-7.8,2.5-12.8,3-15C296.4,160.3,296.5,159.6,296.5,159.5 M333.3,153.5c0.1-0.5,0.1-0.9-0.1-1c-0.1-0.2-0.5-0.2-1-0.2
		c-5.1,0.1-9.2,0.1-12.4,0c-0.6,0-1,0.1-1.2,0.3c-0.2,0.2-0.4,0.6-0.5,1.1c-1.9,10-4.9,25-8.8,45c-0.4,1.9-0.6,3.1-0.6,3.6
		c-0.2,1.4-0.1,2.6,0.1,3.6c0.5,2.5,1.7,4.5,3.5,6c1.9,1.5,4.1,2.3,6.7,2.3c1.9,0,10.6,0,25.9,0c14.6,0,23.3,0,26.2,0
		c0.5,0,0.9-0.1,1.2-0.3c0.2-0.2,0.4-0.6,0.5-1.1c0.2-1.1,0.7-3.9,1.6-8.3c0.2-0.8,0.2-1.3,0.1-1.5s-0.6-0.2-1.5-0.2l-40.4,0
		c-1.2,0-2,0-2.2,0c-1.9-0.1-3.3-0.8-4.3-1.8c-1-1.1-1.4-2.5-1.2-4.3c0.1-0.6,0.2-1.2,0.3-1.9C328.3,178.9,331,165.1,333.3,153.5
		 M480.8,154.5c-1.8,1.5-3,3.5-3.5,6.2c-0.9,4.6-2.2,11.5-4,20.7c-0.5,2.4-0.1,4.3,0.9,5.6c1.1,1.3,2.9,2,5.3,2h38.8
		c4.6,0,7.2,0,7.8,0c1.3,0,2.4,0.4,3.4,1.1c0.9,0.7,1.6,1.6,1.9,2.8c0.5,1.9,0.3,3.7-0.6,5.6c-0.9,1.9-2.3,3.2-4.1,3.9
		c-0.8,0.3-1.7,0.6-2.7,0.7c-0.5,0-1.5,0.1-2.8,0.1c-10.7,0-18.8,0-24.2,0c-9.7,0-17.7,0-24.2,0c-0.6,0-1,0.1-1.3,0.3
		c-0.3,0.2-0.5,0.6-0.6,1.1c-0.6,3.7-1.2,6.5-1.6,8.3c-0.2,0.7-0.1,1.1,0.1,1.3c0.2,0.2,0.6,0.3,1.3,0.3c9.4,0,30.7,0,63.7,0
		c2.5,0,4.6-0.7,6.4-2.1c1.8-1.4,3-3.3,3.5-5.6c1.3-6,2.7-13.4,4.4-22.3c0.3-1.7,0-3.1-1-4.4c-0.9-1.2-2.2-2-3.9-2.2
		c-0.4-0.1-0.8-0.1-1.3-0.1c-0.6,0-1,0-1.4,0c-26.1,0-42.9,0-50.4,0c-0.7,0-1.2-0.1-1.4-0.3c-0.2-0.2-0.2-0.7,0-1.4
		c0.5-2,1-4.7,1.5-8.2c0.2-1.6,0.7-2.7,1.3-3.3c0.6-0.6,1.8-0.9,3.4-0.9c28.7,0,47.8,0,57.4,0c0.7,0,1.1-0.1,1.4-0.4
		c0.3-0.2,0.5-0.7,0.6-1.3c0.6-3.6,1.1-6.3,1.6-8c0.2-0.7,0.2-1.2,0-1.4c-0.2-0.2-0.6-0.3-1.4-0.3c-3.8,0-15.2,0-34.2,0h-33.4
		C485,152.2,482.7,153,480.8,154.5 M440.9,163.6c1.7,0.1,3,0.6,4,1.5c1,1,1.5,2.3,1.4,4.1c-0.1,1-0.2,2-0.4,3.2
		c-0.1,0.6-0.3,1.7-0.6,3.2c-1.6,8.5-3,15.6-4.2,21.3c-0.7,3.5-2.8,5.4-6.2,5.9c-0.8,0.1-1.7,0.2-2.7,0.2l-26.4,0
		c-1,0-1.5-0.1-1.7-0.2c-0.1-0.1-0.1-0.7,0.1-1.7l4.4-22c0.1-0.6,0.1-0.9,0-1.1c-0.2-0.3-0.6-0.4-1.2-0.4c-1.6,0-3.5,0-5.7,0
		c-2.5,0-4.4,0-5.7,0c-1.1,0-1.8,0.1-2,0.3c-0.2,0.2-0.5,0.8-0.7,1.9l-6.5,32.9c-0.1,0.7-0.1,1.1,0,1.3c0.2,0.2,0.6,0.3,1.3,0.3
		c7.5,0,24.5,0,50.9,0c3.7,0,7.2-1.4,10.5-4.1c3.2-2.7,5.2-5.9,5.9-9.6c2.9-14.6,5-25.5,6.5-32.8c0.4-2.1,0.6-3.2,0.7-3.5
		c0.2-1.3,0.2-2.5,0-3.6c-0.5-2.6-1.7-4.7-3.5-6.2c-1.9-1.5-4.1-2.3-6.8-2.3c-1.9,0-10.5,0-25.8,0c-13.5,0-22.2,0-26.1,0
		c-0.6,0-1.1,0.1-1.3,0.3c-0.3,0.2-0.5,0.7-0.6,1.3c-0.1,1.1-0.4,2.5-0.7,4c-0.2,0.9-0.5,2.2-0.8,4c-0.2,0.9-0.2,1.4-0.1,1.5
		c0.1,0.2,0.6,0.2,1.5,0.2h41.3C440.3,163.6,440.8,163.6,440.9,163.6 M361.2,72.1c1.3-1.1,3.3-1.6,5.8-1.6c21.2,0,35.3,0,42.3,0
		c0.7,0,1.1-0.1,1.4-0.4c0.3-0.2,0.4-0.7,0.5-1.3c0.5-3.2,1.1-5.9,1.6-8c0.2-0.7,0.2-1.1-0.1-1.4c-0.2-0.2-0.6-0.3-1.3-0.3
		c-3.8,0-12.4,0-25.8,0H361c-3.8,0-7.3,1.3-10.5,3.8c-3.2,2.5-5.2,5.6-6,9.3c-1,4.7-2.2,10.7-3.6,17.9c-2.2,11.3-3.4,17.3-3.5,17.9
		c-0.6,2.9-0.2,5.6,1.2,7.9c1.1,1.9,2.5,3.2,4.4,4.1c1.6,0.8,3.6,1.1,5.8,1.1l51.3,0c0.4,0,0.6-0.1,0.8-0.2c0.2-0.1,0.3-0.4,0.4-0.8
		c0.7-3.7,1.3-6.7,1.8-8.9c0.1-0.6,0.1-1,0-1.2c-0.2-0.2-0.6-0.3-1.2-0.3c-2.3,0-12.6,0-31,0h-11.2c-2,0-3.6-0.6-4.8-1.7
		c-1.2-1.1-1.7-2.6-1.6-4.3c0-0.5,0.2-1.1,0.4-2c0.2-0.9,0.4-1.6,0.4-2c0.2-1.6,0.7-2.7,1.3-3.2c0.6-0.6,1.7-0.8,3.4-0.8
		c21.6,0,35.4,0,41.6,0c0.6,0,1-0.1,1.2-0.3c0.3-0.2,0.5-0.6,0.5-1.1c0.6-3.2,1.1-5.8,1.5-7.9c0.2-1.1,0.3-1.8,0.1-1.9
		c-0.1-0.1-0.7-0.1-1.8-0.1c-16,0-30.3,0-43.1,0c-0.7,0-1.1-0.1-1.3-0.3c-0.2-0.2-0.2-0.7-0.1-1.3c0.2-0.7,0.4-1.6,0.6-2.7l0.5-2.7
		C359,75,359.9,73.2,361.2,72.1 M284.7,84c0.1-0.6,0.1-0.9-0.1-1.1c-0.2-0.2-0.5-0.2-1.1-0.2c-4.1,0-8.2,0-12.4,0
		c-0.5,0-0.8,0.1-1.1,0.2c-0.3,0.2-0.4,0.5-0.5,1c-0.2,0.9-1.8,8.2-4.7,21.9l-2.9,13.5c-0.2,0.9-0.2,1.4,0,1.6
		c0.2,0.2,0.7,0.3,1.6,0.3h5.7c0.7,0,1.7,0,3,0c1.2,0,2.2,0,3,0.1c0.6,0,1-0.1,1.3-0.3c0.3-0.2,0.5-0.6,0.6-1.2
		C280,105.6,282.6,93.7,284.7,84 M334.1,12.6c0.4-0.8,0.5-1.5,0.2-2.2c-0.2-0.6-0.8-1.1-1.6-1.4c-1.3-0.5-2.9-0.8-4.7-0.9
		c-4.7-0.2-9.7,0.3-15.2,1.7c-1.3,0.3-2.5,0.4-3.5,0.1c-1.1-0.3-2.1-0.8-3.1-1.7C299.8,2.6,293-0.1,285.6,0c-0.9,0-1.6,0-2,0
		c-0.8,0-1.5,0.1-2,0.2c-7.2,1.2-13.2,4.5-17.8,10c-4.6,5.4-6.9,11.9-7,19.3c0,2.1-0.9,3.8-2.6,5.1c-3.9,3-6.8,5.3-8.7,6.8
		c-1.5,1.2-2.7,2.3-3.6,3.2c-1.2,1.3-2.1,2.6-2.7,4c-0.4,1-0.5,1.8-0.1,2.5c0.3,0.7,1,1.2,2,1.4c1.4,0.3,2.8,0.6,4.3,0.6
		c2.3,0.1,4.9,0.1,7.6-0.3c2-0.2,4.5-0.7,7.5-1.3c1.4-0.3,2.6-0.3,3.7,0.1c1.1,0.3,2.2,1,3.3,1.9c3.8,3.4,7.9,5.7,12.3,6.9
		c4.5,1.2,9.1,1.3,14.1,0.3c6.3-1.4,11.6-4.6,15.8-9.8c4.2-5.1,6.4-10.9,6.7-17.5c0.1-1.7,0.2-2.9,0.5-3.7c0.4-1.3,1.2-2.3,2.3-3.1
		c1.3-0.9,2.8-2,4.5-3.4c1-0.8,2.4-1.9,4.4-3.5C330.8,17.7,332.9,15.3,334.1,12.6 M495,60.6c-2.2-1.2-4.7-1.7-7.6-1.5
		c-4.6,0.4-8.7,2.2-12.5,5.6c-3.8,3.3-6.1,7.3-7,11.7c-0.3,1.5-2.5,12.8-6.8,34c-1,5.2-1.6,8.3-1.8,9.2c-0.1,0.7-0.2,1-0.2,1
		c0,0.4,0.3,0.6,0.9,0.6c0.7,0,2.9,0,6.5,0c2.6,0,4.8,0,6.5-0.1c0.5,0,0.8-0.2,1-0.4c0.1-0.2,0.3-0.5,0.3-0.9l2.2-11.1
		c2.5-12.8,4.4-22.3,5.7-28.7c0.3-1.3,0.8-2.3,1.7-3s2-0.9,3.3-0.8c0.8,0.1,1.5,0.4,2.1,1c0.4,0.4,0.9,1,1.4,1.8l22.2,34.6
		c1.5,2.4,3.3,4.2,5.2,5.5c2.1,1.4,4.6,2.1,7.4,2.2c0.3,0.1,0.7,0,1.2-0.1c0.3-0.1,0.8-0.2,1.4-0.3c4.5-0.8,8.4-2.8,11.7-5.9
		c3.3-3.1,5.3-6.9,6.2-11.3c1-4.9,1.7-8.5,2.2-10.9l6.4-32c0.1-0.6,0.1-1-0.1-1.2c-0.2-0.2-0.6-0.4-1.2-0.3c-4.3,0.1-8.3,0.1-12.1,0
		c-0.6,0-1,0.1-1.2,0.3c-0.2,0.2-0.4,0.6-0.5,1.1c-1.3,6.9-2.4,12.6-3.3,17.1l-4.5,22.6c-0.4,2.1-1.5,3.4-3.4,3.7
		c-1.8,0.3-3.3-0.4-4.5-2.3c-0.5-0.8-1.2-1.8-2-3.1c-1.1-1.7-1.8-2.7-2-3L500.5,66C498.9,63.6,497.1,61.8,495,60.6z"/>
	<path class="st1" d="M583.3,212.1c1.8-2,2.2-4.1,2.9-6.1c0.6-1.4,1-2.7,1.8-4.1c0.8-1.4,2-1.6,3.3-1.4s2.2,1.4,2.2,2.5
		c0.2,3.3,0,6.5,0,9.8c0,0.8-0.4,1.4-1.2,1.4c-1,0-1.2-0.6-1.2-1.4c0-2.7,0-5.3,0-8c0-0.6,0.4-1.6-0.8-1.6c-0.6,0-0.8,0.6-1,1.2
		c-1,2.5-2,5.1-2.9,7.6c-0.6,1.8-2,2.5-3.7,2c-1.8-0.4-2.2-1.8-2.2-3.3c0-2,0-3.9,0-5.9c0-0.6,0.2-1.6-0.6-1.8c-0.8,0-1,0.8-1.2,1.6
		c-1,2.5-2,5.1-2.7,7.8c-0.4,1.2-0.8,2.2-2.2,1.8c-1.6-0.6-0.4-1.8-0.2-2.4c0.8-2.7,2-5.3,2.9-8c0.8-2,1.8-3.5,4.1-2.9
		c2.4,0.4,2.4,2.4,2.4,4.1C582.9,207,582.5,209.3,583.3,212.1z"/>
	<path class="st1" d="M568.4,200.5c1.2,0,2.4,0,3.5,0c0.8,0,1.4,0.2,1.4,1.2c0,0.8-0.6,1-1.2,1c-2.9-0.4-2.9,1.4-2.7,3.5
		c0,2.2,0,4.1,0,6.3c0,0.8,0,1.8-1.2,1.8s-1.2-0.8-1.2-1.6c0-2.4,0-4.7,0-7.1c0-1.6,0-2.7-2.2-2.5c-0.8,0-1.6-0.2-1.6-1.2
		c0.2-1.2,1.2-1,1.8-1C566.3,200.5,567.4,200.5,568.4,200.5L568.4,200.5z"/>
</g>
</svg>
