<?xml version="1.0" encoding="utf-8"?>
<!-- Generator: Adobe Illustrator 24.0.3, SVG Export Plug-In . SVG Version: 6.00 Build 0)  -->
<svg version="1.1" id="Layer_1" xmlns="http://www.w3.org/2000/svg" xmlns:xlink="http://www.w3.org/1999/xlink" x="0px" y="0px"
	 viewBox="0 0 112.4 112.4" style="enable-background:new 0 0 112.4 112.4;" xml:space="preserve">
<style type="text/css">
	.st0{fill:#D9A555;}
</style>
<g>
	<path class="st0" d="M76.2,72.3c-8.9,0-16.1-7.2-16.1-16.1C60,47.3,67.3,40,76.2,40c8.9,0,16.1,7.2,16.1,16.1
		C92.3,65.1,85.1,72.3,76.2,72.3z M76.2,47.1c-5,0-9.1,4.1-9.1,9.1s4.1,9.1,9.1,9.1c5,0,9.1-4.1,9.1-9.1S81.2,47.1,76.2,47.1z"/>
	<path class="st0" d="M36.2,72.3c-8.9,0-16.1-7.2-16.1-16.1C20,47.3,27.3,40,36.2,40c8.9,0,16.1,7.2,16.1,16.1
		C52.3,65.1,45.1,72.3,36.2,72.3z M36.2,47.1c-5,0-9.1,4.1-9.1,9.1s4.1,9.1,9.1,9.1c5,0,9.1-4.1,9.1-9.1S41.2,47.1,36.2,47.1z"/>
	<circle class="st0" cx="56.2" cy="16.1" r="16.1"/>
	<path class="st0" d="M96.2,112.4c-8.9,0-16.1-7.2-16.1-16.1s7.2-16.1,16.1-16.1c8.9,0,16.1,7.2,16.1,16.1S105.1,112.4,96.2,112.4z
		 M96.2,87.2c-5,0-9.1,4.1-9.1,9.1s4.1,9.1,9.1,9.1c5,0,9.1-4.1,9.1-9.1S101.2,87.2,96.2,87.2z"/>
	<path class="st0" d="M56.2,112.4c-8.9,0-16.1-7.2-16.1-16.1s7.2-16.1,16.1-16.1s16.1,7.2,16.1,16.1S65.1,112.4,56.2,112.4z
		 M56.2,87.2c-5,0-9.1,4.1-9.1,9.1s4.1,9.1,9.1,9.1s9.1-4.1,9.1-9.1S61.2,87.2,56.2,87.2z"/>
	<path class="st0" d="M16.1,112.4C7.2,112.4,0,105.1,0,96.2s7.2-16.1,16.1-16.1s16.1,7.2,16.1,16.1S25,112.4,16.1,112.4z M16.1,87.2
		c-5,0-9.1,4.1-9.1,9.1s4.1,9.1,9.1,9.1s9.1-4.1,9.1-9.1S21.1,87.2,16.1,87.2z"/>
</g>
</svg>
