<?xml version="1.0" encoding="utf-8"?>
<!-- Generator: Adobe Illustrator 24.0.3, SVG Export Plug-In . SVG Version: 6.00 Build 0)  -->
<svg version="1.1" id="Layer_1" xmlns="http://www.w3.org/2000/svg" xmlns:xlink="http://www.w3.org/1999/xlink" x="0px" y="0px"
	 viewBox="0 0 92 60.3" style="enable-background:new 0 0 92 60.3;" xml:space="preserve">
<g>
	<polygon points="92,31.9 89.9,26.6 46,44.2 2.1,26.6 0,31.9 46,50.3 	"/>
	<polygon points="46,54.2 2.1,36.6 0,41.9 46,60.3 92,41.9 89.9,36.6 	"/>
	<path d="M2.6,22.4l21.2,8.5c0,0,0,0,0,0l21.2,8.5c0.3,0.1,0.7,0.2,1.1,0.2s0.7-0.1,1.1-0.2l21.2-8.5c0,0,0,0,0,0
		l21.2-8.5c1.1-0.4,1.8-1.5,1.8-2.6s-0.7-2.2-1.8-2.6L68.2,8.7c0,0,0,0,0,0L47,0.2c-0.7-0.3-1.4-0.3-2.1,0L23.8,8.7c0,0,0,0,0,0
		L2.6,17.2c-1.1,0.4-1.8,1.5-1.8,2.6S1.6,22,2.6,22.4z M24.8,14.4l13.5,5.4l-13.5,5.4l-13.5-5.4L24.8,14.4z M46,33.7l-13.5-5.4
		L46,22.9l13.5,5.4L46,33.7z M80.7,19.8l-13.5,5.4l-13.5-5.4l13.5-5.4L80.7,19.8z M46,5.9l13.5,5.4L46,16.7l-13.5-5.4L46,5.9z"/>
</g>
</svg>
