<?xml version="1.0" encoding="utf-8"?>
<!-- Generator: Adobe Illustrator 24.0.3, SVG Export Plug-In . SVG Version: 6.00 Build 0)  -->
<svg version="1.1" id="Layer_1" xmlns="http://www.w3.org/2000/svg" xmlns:xlink="http://www.w3.org/1999/xlink" x="0px" y="0px"
	 viewBox="0 0 187.4 175.8" style="enable-background:new 0 0 187.4 175.8;" xml:space="preserve">
<g>
	<path d="M75.9,58.5c9.1,2.8,19.6-2.9,23.7-12.8c1.2-3,1.6-5.5,1-7.9c-0.2-0.8-1.5-3.6-3.6-7.9c-3.6-7.2-3.8-7.8-4.6-10
		c-0.9-2.5-1.7-3.7-3-5.1c-1.1-1.1-1.6-1.4-2.8-1.9c-1.8-0.7-6.3-1.6-6.6-1.2c-0.1,0.1-0.8,0.2-1.6,0.4c-3.6,0.6-6,2.8-7.5,7
		c-0.7,1.8-2.4,5.6-5.6,12c-3.9,7.8-3.9,8-4.1,9.3c-0.2,2,0.7,4.8,2.4,7.9C66.2,53.1,71,57,75.9,58.5z"/>
	<path d="M64.2,61.1c0.5-0.2,0.9-0.5,0.9-0.5c0-0.1-0.9-1.3-2-2.7c-1.1-1.4-3-3.8-4.2-5.3c-1.2-1.5-2.3-2.9-2.4-3
		c-0.2-0.2-0.4,0.1-0.9,1.2c-0.4,0.8-2.4,5.1-4.5,9.6c-2.1,4.5-3.8,8.2-3.7,8.2c0.1,0,3.7-1.5,8.1-3.5
		C59.8,63.1,63.8,61.3,64.2,61.1z"/>
	<path d="M71.9,99.9c-0.2-0.3-0.6-0.8-0.9-1c-0.5-0.4-0.6-0.4-15.9-0.4c-8.5,0-16.6,0-18.1,0.1c-3.7,0.2-4.3,0.5-6,3.3
		c-2.5,4.3-4.1,9.3-4.8,14.7c-0.3,2.3-0.1,7.9,0.3,10.8c1.3,9.4,5.4,19.3,10.9,26.6c3.7,4.9,9,9.7,13.8,12.6
		c0.7,0.4,1.3,0.8,1.5,0.9c0.7,0.5,5.2,2.7,7.7,3.7c2.5,1,12,4.3,12,4.2c0-0.1,0-16.9-0.1-37.5C72.2,101,72.2,100.6,71.9,99.9z"/>
	<path d="M140.1,139.7c0.8-0.2,2-0.6,2.6-0.7c0.7-0.2,2.2-0.6,3.3-0.9c1.2-0.3,2.3-0.7,2.6-0.7c0.2-0.1,0.4-0.2,0.4-0.2
		s-1.6-3.4-3.6-7.4l-3.6-7.3l-0.4,1.9c-0.2,1.1-0.8,4.1-1.3,6.7c-0.5,2.7-1.1,5.7-1.3,6.8c-0.2,1.1-0.3,2.1-0.3,2.1
		C138.6,140.1,139.3,140,140.1,139.7z"/>
	<path d="M17.4,140.1c4,1.1,6.4,1.7,6.5,1.7c0.1-0.1-0.3-1.8-1.2-5.6c-0.3-1.4-0.8-3.5-1-4.6c-0.2-1.1-0.7-3-0.9-4.1
		c-0.2-1.1-0.5-2.2-0.6-2.4c-0.1-0.2-0.3,0.1-1,1.4c-0.4,0.9-1.2,2.5-1.6,3.4c-3.5,7.4-4.2,8.8-4.2,9
		C13.4,139,14.1,139.2,17.4,140.1z"/>
	<path d="M161.7,163.2c-2.6-5.6-5.3-11.2-6.9-14.2c-1.8-3.7-2.3-4.2-3.8-4.7c-0.7-0.2-0.7-0.2-3-0.1c-2.7,0.2-5.2,1-7.6,2.2
		c-6.2,3.2-10.1,8.8-10.9,15.7c-0.6,5.4,1.5,11.7,4.4,13c0.6,0.3,2.1,0.3,12.1,0.3c12.6-0.1,12.6-0.1,14.5-1.3c1.8-1.2,3-3.7,2.7-6
		C163.1,166.5,162.7,165.2,161.7,163.2z"/>
	<path d="M20.9,147.8c-0.8-0.4-2.2-0.9-3.2-1.2c-1.6-0.5-2.3-0.6-5-1c-0.3,0-0.9,0.1-1.3,0.2c-0.6,0.2-1.1,0.5-1.5,0.9
		c-0.9,1-7.8,15.1-9.4,19.2c-0.4,1-0.5,1.5-0.5,3c0,1.6,0,1.9,0.5,2.8c0.7,1.4,2,2.6,3.3,3.3l1,0.5h11.5c11.4,0,11.5,0,12.2-0.4
		c1.7-0.9,2.5-2.3,3.3-5.3C34.1,161.2,29.3,151.6,20.9,147.8z"/>
	<path d="M38.5,164.6c-0.1,0-0.5,2.4-1,5.2c-0.4,2.9-0.8,5.3-0.8,5.4c0,0.1,3.7,0.1,8.1,0.1H53l-0.6-0.5
		C51,173.6,38.7,164.6,38.5,164.6z"/>
	<path d="M123.5,164.9c0-0.2-0.1-0.3-0.2-0.3c-0.1,0-1.4,0.9-3,2.1c-4.7,3.5-8.8,6.5-10.1,7.5L109,175l8.4,0.1c4.6,0,8.4,0,8.4,0
		c0,0-0.5-2.3-1.1-5C124,167.4,123.5,165.1,123.5,164.9z"/>
	<path d="M181.1,48.2V30.3c0-16.7-13.6-30.3-30.3-30.3h-8.4c-16.7,0-30.3,13.6-30.3,30.3v17.9h-6.3c0,0-0.9,1.2-1.9,2.6
		c-1,1.4-2.6,3.6-3.5,4.8c-0.9,1.3-1.9,2.6-2.2,3.1c-0.3,0.4-0.7,1.1-1,1.4l-0.4,0.6l2.5,1.2c1.4,0.7,2.9,1.4,3.4,1.6
		c0.4,0.2,1.7,0.8,3.1,1.4v7.5c-5.8-3.7-12.5-5.9-20.5-6.5c-2.8-0.2-7.5-0.2-9.8,0c-4.4,0.4-9.2,1.7-14.5,3.7
		c-2.4,0.9-8.2,3.9-11.2,5.7l-2.2,1.3h31.9c11.1,0,20.7,0,26.3-0.1v6.3c-7.3,0-19.9,0.1-32.4,0.1l-30.8,0.1l-1.1,0.5
		c-2.3,1-3.7,2.7-5,5.7c-0.4,1.1-0.9,2.1-0.9,2.4l-0.1,0.4h21c19,0,21,0,21.1,0.3c0.1,0.2,0.1,18.9,0.1,41.6V175l1.5,0.2
		c3.6,0.5,5,0.2,5.7-1.2l0.4-0.8l0.1-40.7l0-40.7l20.3-0.1v7.2c-3.1,0-5.8,0-7.3,0.1c-5.1,0.1-5.9,0.2-6.4,0.4
		c-0.9,0.6-1.1,1.3-1.2,3.5c0,1.1-0.1,17.9-0.1,37.5c0,31.9,0,35.5,0.2,35.4c0.7-0.2,10.6-3.8,11.8-4.3c5-2,9.8-4.7,14-8
		c2.1-1.7,6.5-6,8.2-8.2c3.9-4.8,6.9-10.5,9.1-16.9c3-8.9,3.9-17.6,2.4-25c-0.7-3.3-2.2-7.3-3.7-10.2h54.6V48.2H181.1z M165.8,48.2
		h-38.4V30.3c0-8.3,6.7-15,15-15h8.4c8.3,0,15,6.7,15,15V48.2z"/>
</g>
</svg>
