<?xml version="1.0" encoding="utf-8"?>
<!-- Generator: Adobe Illustrator 24.0.3, SVG Export Plug-In . SVG Version: 6.00 Build 0)  -->
<svg version="1.1" id="Layer_1" xmlns="http://www.w3.org/2000/svg" xmlns:xlink="http://www.w3.org/1999/xlink" x="0px" y="0px"
	 viewBox="0 0 124 124" style="enable-background:new 0 0 124 124;" xml:space="preserve">
<style type="text/css">
	.st0{fill:#D9A555;}
</style>
<g>
	<path class="st0" d="M62,8.5c8.7,0,17.4,2.2,25.1,6.2l4-7.5C82.2,2.5,72.1,0,62,0C51.9,0,41.8,2.5,32.9,7.2l4,7.5
		C44.6,10.7,53.3,8.5,62,8.5z"/>
	<path class="st0" d="M62,115.5c-8.6,0-17.2-2.1-24.8-6.1l-3.9,7.5C42,121.6,52,124,62,124c10.1,0,20.2-2.5,29.1-7.2l-4-7.5
		C79.4,113.3,70.7,115.5,62,115.5z"/>
	<path class="st0" d="M116.8,32.9l-7.5,4c4.1,7.7,6.2,16.3,6.2,25.1s-2.2,17.4-6.2,25.1l7.5,4c4.7-8.9,7.2-18.9,7.2-29.1
		S121.5,41.8,116.8,32.9z"/>
	<path class="st0" d="M14.6,37.1l-7.5-3.9C2.4,42,0,51.9,0,61.9C0,72.1,2.5,82.1,7.2,91l7.5-4c-4.1-7.7-6.2-16.3-6.2-25.1
		C8.5,53.3,10.6,44.7,14.6,37.1z"/>
	<path class="st0" d="M76.4,25.8H47.6v21.8H25.8v28.9h21.8v21.8h28.9V76.4h21.8V47.6H76.4V25.8z M91.2,54.6v14.7H69.4v21.8H54.6
		V69.4H32.8V54.6h21.8V32.8h14.7v21.8H91.2z"/>
</g>
</svg>
