<?xml version="1.0" encoding="utf-8"?>
<!-- Generator: Adobe Illustrator 25.4.1, SVG Export Plug-In . SVG Version: 6.00 Build 0)  -->
<svg version="1.1" id="Layer_1" xmlns="http://www.w3.org/2000/svg" xmlns:xlink="http://www.w3.org/1999/xlink" x="0px" y="0px"
	 viewBox="0 0 192.4 315.5" style="enable-background:new 0 0 192.4 315.5;" xml:space="preserve">
<style type="text/css">
	.st0{fill:#FFFFFF;}
</style>
<g>
	<path class="st0" d="M58,147.9h75.7l12,24.5h46.7l-1.5-3.5c-0.3-0.8-0.6-1.4-0.9-2.1c-0.5-1.2-1-2.2-1.5-3.2
		c-6-12.4-12-24.8-18-37.1L115.6,13.2C111.4,4.4,104.8,0,95.9,0c0,0-0.1,0-0.1,0C87,0,80.4,4.3,76.3,12.7
		C65.2,35.6,54.1,58.5,43,81.4c-13.5,27.8-27,55.7-40.5,83.5c-0.4,0.9-0.7,1.8-1,2.8c-0.1,0.4-0.3,0.9-0.4,1.3l-1.1,3.3H46L58,147.9
		z M7,167.3c0-0.1,0.1-0.2,0.1-0.2c13.5-27.8,27-55.7,40.5-83.5c11.1-22.9,22.2-45.8,33.3-68.7C84,8.3,89,5,95.9,5c0,0,0,0,0.1,0
		c6.9,0,11.8,3.4,15.2,10.3L166,128.6c6,12.4,12,24.8,18,37.1c0.3,0.5,0.5,1,0.7,1.6h-35.9l-12-24.5h-82l-12,24.5H7z"/>
	<path class="st0" d="M95.8,58.2l-28,57.8h56L95.8,58.2z M95.8,69.7l20,41.3h-40L95.8,69.7z"/>
	<path class="st0" d="M149.2,222.4c-2.3,21.4-12.8,36.4-32.1,45.8l0-16.6c0-16.7,0-33.4,0-50.1l0-0.9c0-1.4,0-2.9-0.1-4.4
		c-1.1-10.5-8.8-18.5-18.7-19.5c-10.5-1-19.5,4.7-22.4,14.3c-1.1,3.7-1.3,7.6-1.3,10.5c-0.1,14.4-0.1,29.1-0.1,43.3
		c0,6.9,0,13.7,0,20.6c0,0.9,0,1.7-0.1,2.7c-19.5-9.5-29.9-24.5-31.9-45.9l-0.2-2.3H0l0.2,2.6c2.1,35.7,18,62.3,47,79
		c15.9,9.2,32.3,13.8,48.5,13.8c17,0,34-5,50.5-15.1c28.1-17.1,43.3-43.3,45.1-77.6l0.1-2.6h-42.1L149.2,222.4z M186.2,225.2
		c-2.4,31.3-16.7,55.2-42.6,71c-30.6,18.6-63,19.1-93.9,1.2C22.9,281.9,8,257.6,5.3,225h32.5c2.8,23.3,15.2,39.4,37.9,49.2l3.3,1.4
		l0.2-3.6c0-0.9,0.1-1.7,0.1-2.5c0.1-1.5,0.2-2.8,0.2-4.1c0-6.9,0-13.7,0-20.6c0-14.2,0-28.8,0.1-43.2c0-2.7,0.1-6.1,1.1-9.1
		c2.2-7.2,9.1-11.5,17.1-10.7c7.6,0.7,13.3,6.8,14.2,15.1c0.1,1.2,0.1,2.5,0.1,3.8l0,0.9c0,16.7,0,33.4,0,50.1l0,24.2l3.5-1.5
		c22.6-9.7,35.2-25.8,38.3-49.2H186.2z"/>
</g>
</svg>
