<?xml version="1.0" encoding="utf-8"?>
<!-- Generator: Adobe Illustrator 24.0.3, SVG Export Plug-In . SVG Version: 6.00 Build 0)  -->
<svg version="1.1" id="Layer_1" xmlns="http://www.w3.org/2000/svg" xmlns:xlink="http://www.w3.org/1999/xlink" x="0px" y="0px"
	 viewBox="0 0 169.2 169.2" style="enable-background:new 0 0 169.2 169.2;" xml:space="preserve">
<style type="text/css">
	.st0{fill:#212121;}
</style>
<path class="st0" d="M168,81.6L87.6,1.2c-1.7-1.7-4.4-1.7-6,0L1.2,81.6c-1.7,1.7-1.7,4.4,0,6L81.6,168c0.8,0.8,1.9,1.2,3,1.2
	s2.2-0.4,3-1.2L168,87.6C169.7,86,169.7,83.3,168,81.6z M87.6,57.5c-1.7-1.7-4.4-1.7-6,0L60.4,78.7l-22-22l46.3-46.3l46.3,46.3
	l-22,22L87.6,57.5z M102.9,84.7L84.6,103L66.4,84.7l18.3-18.3L102.9,84.7z M32.2,62.6l22.1,22.1l-22,22L10.3,84.6L32.2,62.6z
	 M84.6,159l-46.3-46.3l22-22L81.6,112c0.8,0.8,1.9,1.2,3,1.2s2.2-0.4,3-1.2l21.3-21.3l22,22L84.6,159z M136.9,106.7l-22-22L137,62.6
	l22,22L136.9,106.7z"/>
</svg>
