<?xml version="1.0" encoding="utf-8"?>
<!-- Generator: Adobe Illustrator 24.0.3, SVG Export Plug-In . SVG Version: 6.00 Build 0)  -->
<svg version="1.1" id="Layer_1" xmlns="http://www.w3.org/2000/svg" xmlns:xlink="http://www.w3.org/1999/xlink" x="0px" y="0px"
	 viewBox="0 0 119.6 145.3" style="enable-background:new 0 0 119.6 145.3;" xml:space="preserve">
<style type="text/css">
	.st0{fill:#36C9FF;}
</style>
<g>
	<path class="st0" d="M59.8,0c-9.3,0-16.9,7.6-16.9,16.9s7.6,16.9,16.9,16.9c9.3,0,16.9-7.6,16.9-16.9S69.1,0,59.8,0z M59.8,25.2
		c-4.6,0-8.3-3.7-8.3-8.3s3.7-8.3,8.3-8.3s8.3,3.7,8.3,8.3S64.4,25.2,59.8,25.2z"/>
	<path class="st0" d="M0,43.2l0,8.5c1.5,0,36.7,0.6,36.7,36.7v48.4h8.5V88.4C45.2,43.7,0.5,43.2,0,43.2z"/>
	<path class="st0" d="M97.2,48.7C86.8,54,74.4,65.1,74.4,88.4v48.4h8.5V88.4c0-36.1,35.2-36.7,36.7-36.7v-8.5
		C119.1,43.2,108.2,43.2,97.2,48.7z"/>
	<rect x="55.5" y="42.8" class="st0" width="8.5" height="102.6"/>
</g>
</svg>
