<?xml version="1.0" encoding="utf-8"?>
<!-- Generator: Adobe Illustrator 24.0.3, SVG Export Plug-In . SVG Version: 6.00 Build 0)  -->
<svg version="1.1" id="Layer_1" xmlns="http://www.w3.org/2000/svg" xmlns:xlink="http://www.w3.org/1999/xlink" x="0px" y="0px"
	 viewBox="0 0 48.5 48.5" style="enable-background:new 0 0 48.5 48.5;" xml:space="preserve">

<g>
	<path  d="M27.6,24.2l-3.4-3.4c-0.3-0.3-0.6-0.4-1-0.4c-0.4,0-0.7,0.1-1,0.4L0.4,42.7c-0.6,0.6-0.6,1.5,0,2l3.4,3.4
		c0.6,0.6,1.5,0.6,2,0l21.8-21.8c0.3-0.3,0.4-0.6,0.4-1C28,24.9,27.8,24.5,27.6,24.2z"/>
	<path  d="M41.5,16.8l-1.2-1.3l0.7-4.7c0.1-0.4-0.1-0.9-0.4-1.2l-1.8-1.8c-0.3-0.3-0.8-0.5-1.2-0.4L33,8.1L31.7,7
		c-0.6-0.5-1.4-0.5-1.9,0.1l-4.2,4.2c-0.4,0.4-0.5,1.1-0.3,1.6l1,2l-0.1,2.6c0,0.4,0.1,0.8,0.4,1.1l3.4,3.4c0.3,0.3,0.7,0.4,1.1,0.4
		l2.6-0.1l2,1c0.5,0.3,1.2,0.2,1.6-0.3l4.2-4.2C42,18.2,42,17.4,41.5,16.8z"/>
	<path  d="M48.5,34.3l0-6.8c0-0.2-0.1-0.5-0.2-0.7L45.6,22c-0.2-0.4-0.6-0.6-1-0.7c-0.4-0.1-0.9,0.1-1.2,0.4l-3.8,3.8
		C39,26,39,26.8,39.5,27.4l6.5,7.9c0,0,0.1,0.1,0.1,0.1c0.4,0.4,1,0.5,1.5,0.3C48.1,35.4,48.5,34.9,48.5,34.3z"/>
	<path d="M27.2,4c-0.1-0.4-0.3-0.8-0.7-1l-4.8-2.7C21.4,0.1,21.2,0,20.9,0l-6.8,0c-0.6,0-1.1,0.4-1.3,0.9
		c-0.2,0.5-0.1,1.1,0.3,1.5c0,0,0.1,0.1,0.1,0.1L21.1,9c0.6,0.5,1.4,0.4,1.9-0.1l3.8-3.8C27.1,4.8,27.2,4.4,27.2,4z"/>
</g>
</svg>
