<?xml version="1.0" encoding="utf-8"?>
<!-- Generator: Adobe Illustrator 25.4.1, SVG Export Plug-In . SVG Version: 6.00 Build 0)  -->
<svg version="1.1" id="Layer_1" xmlns="http://www.w3.org/2000/svg" xmlns:xlink="http://www.w3.org/1999/xlink" x="0px" y="0px"
	 viewBox="0 0 131.88 106.17" style="enable-background:new 0 0 131.88 106.17;" xml:space="preserve">
<style type="text/css">
	.st0{fill:#D9A555;}
</style>
<g>
	<path class="st0" d="M33.21,93.3h-3.5C13.33,93.3,0,79.97,0,63.58v-21C0,26.2,13.33,12.87,29.71,12.87H60l-4.78-4.86L62.68,0
		l18.7,18.38l-18.7,18.37l-7.46-8.01L60,23.87H29.71C19.4,23.87,11,32.27,11,42.59v21C11,73.9,19.4,82.3,29.71,82.3h3.5V93.3z
		 M29.71,14.87C14.43,14.87,2,27.3,2,42.59v21C2,78.87,14.43,91.3,29.71,91.3h1.5v-7h-1.5C18.29,84.3,9,75.01,9,63.58v-21
		c0-11.42,9.29-20.71,20.71-20.71h35.06l-6.79,6.9l4.76,5.11l15.78-15.51L62.74,2.87l-4.76,5.11l6.79,6.9H29.71V14.87z"/>
	<path class="st0" d="M69.2,106.17L50.5,87.79l18.7-18.37l7.46,8.01l-4.79,4.86h30.29c10.32,0,18.71-8.4,18.71-18.71v-21
		c0-10.32-8.4-18.71-18.71-18.71h-3.5v-11h3.5c16.38,0,29.71,13.33,29.71,29.71v21c0,16.38-13.33,29.71-29.71,29.71H71.88l4.78,4.86
		L69.2,106.17z M53.36,87.79l15.78,15.51l4.76-5.11l-6.79-6.9h35.06c15.28,0,27.71-12.43,27.71-27.71v-21
		c0-15.28-12.43-27.71-27.71-27.71h-1.5v7h1.5c11.42,0,20.71,9.29,20.71,20.71v21c0,11.42-9.29,20.71-20.71,20.71H67.1l6.79-6.9
		l-4.76-5.11L53.36,87.79z"/>
</g>
</svg>
