<?xml version="1.0" encoding="utf-8"?>
<!-- Generator: Adobe Illustrator 24.0.3, SVG Export Plug-In . SVG Version: 6.00 Build 0)  -->
<svg version="1.1" id="Layer_1" xmlns="http://www.w3.org/2000/svg" xmlns:xlink="http://www.w3.org/1999/xlink" x="0px" y="0px"
	 viewBox="0 0 163.3 164.1" style="enable-background:new 0 0 163.3 164.1;" xml:space="preserve">
<g transform="translate(0.000000,942.000000) scale(0.100000,-0.100000)">
	<path d="M798.3,9418.4c-0.6-0.6-7.6-2.2-15.7-3.7c-36.1-6.3-59.7-28-75.4-69.7c-6.9-18-24.5-55.6-56.3-120.4
		c-38.7-78.4-39.3-80-40.8-92.6c-2-19.6,6.7-48,23.9-78.7c27.1-48,74.9-87.5,123.8-102.5c91.3-27.8,196.4,28.9,237.3,128
		c12.4,29.8,15.6,55.2,10,78.7c-1.9,7.6-14.8,35.9-35.9,78.7c-35.8,72.4-38.5,78.4-46.5,99.9c-9.4,25.2-16.5,36.9-30.4,50.8
		c-10.7,10.7-15.9,14.1-27.8,19.1C846.6,9413.4,801.6,9421.7,798.3,9418.4z"/>
	<path d="M1037.8,9028.8c-10-14.1-25.8-35.9-34.8-48.4c-9.1-12.6-18.9-26.5-21.9-30.6c-3-4.3-7.4-10.6-10-13.7l-4.4-6.1l25.2-12
		c14.1-6.7,29.3-13.9,34.1-15.9c4.8-2.2,23.7-11.1,42.1-19.6c18.3-8.7,37.6-17.6,42.6-20c5.2-2.4,19.1-8.9,31.1-14.6
		c11.9-5.6,21.7-9.8,21.7-9.4c0,2.2-105.2,215.9-106.4,215.9C1056.7,9054.1,1048,9042.7,1037.8,9028.8z"/>
	<path d="M555.2,9028.8c-3.5-8-24.1-51.1-45.4-96c-21.3-44.8-38.2-81.7-37.2-82.1c0.9-0.4,37.2,15.4,80.8,34.8
		c43.7,19.6,83.2,37.4,88,39.7c5,2,8.9,4.6,8.9,5.4c0,0.9-8.9,12.8-19.8,26.7c-11.1,13.9-29.8,37.8-42.1,53.2
		c-12,15.4-23,29.1-24.3,30.4C562.4,9042.7,560.5,9040.2,555.2,9028.8z"/>
	<path d="M754,8877.9c-43.5-4.4-92.3-17-144.5-37.4c-24.1-9.3-82.5-38.9-111.9-56.5l-22.2-13.3h318.5c179.2,0,317.8,0.7,316.7,1.7
		c-8.2,7.4-37.2,30-47.8,37.1c-59.1,39.7-127.7,61.9-211,68.7C824.2,8880.3,776.8,8880.2,754,8877.9z"/>
	<path d="M732.7,8707.7l-307.6-0.9l-10.7-4.6c-22.6-9.8-37.2-26.7-50.2-57.4c-4.4-10.7-8.7-21.3-9.4-23.5l-1.1-4.3h210.1
		c190.1,0,210.3-0.4,211.4-3c0.6-1.7,1.1-188.6,1.1-415.6v-412.6l15.4-2.2c35.9-5.2,50.2-2,57.4,12.4l4.1,8.5l0.6,407.1l0.4,406.9
		l206.4,0.7c113.6,0.2,207.1,1.1,207.9,1.9c1.5,1.7-14.6,27.8-28.2,45.6c-11.9,15.6-29.5,30-45,36.7l-12.2,5.4h-71.3
		C1072.3,8708.8,901.8,8708.2,732.7,8707.7z"/>
	<path d="M368.6,8550.2c-37.2-1.5-43.5-5-60-33c-25-42.8-41.5-93.4-47.6-146.7c-2.6-23.3-1.1-78.9,2.8-107.5
		c13.3-93.8,54.1-193.3,109.1-265.7c37.1-48.7,90.2-97.1,138.4-126.2c6.7-3.9,13.3-8.2,14.8-9.4c6.7-5.2,51.7-26.9,76.9-36.9
		c24.5-9.8,119.7-43,120.2-41.9c0.2,0.6,0,169.2-0.6,374.5c-1.1,369.1-1.1,373.3-4.8,379.6c-2,3.5-6.1,8-8.9,10.2
		c-5.2,3.9-5.7,3.9-159.3,4.1C464.8,8551.3,383.4,8550.9,368.6,8550.2z"/>
	<path d="M983.7,8546.6c-51.5-0.9-59.1-1.5-63.6-4.4c-8.7-5.6-11.3-13.2-11.9-34.6c-0.2-10.7-0.7-179.4-1.1-374.8
		c-0.4-319.2-0.2-355.4,2.4-354.4c7.4,2.2,106.2,38.2,117.7,42.8c49.7,19.5,97.6,47.1,139.9,80.4c21.5,16.9,65,60.2,82.1,81.7
		c38.5,48.4,68.7,104.5,90.8,168.6c30.4,88.6,38.7,175.8,23.5,250.1c-10.2,50.2-39.8,117.7-58.9,134.5
		c-11.9,10.4-11.3,10.2-142.1,10.7C1096.4,8547.6,1015.8,8547.2,983.7,8546.6z"/>
	<path d="M1414,8292.4c-2.2-10.6-8.2-40.9-13.3-67.4c-5-26.5-11.1-57.3-13.2-68.2c-2.2-11.1-3.5-20.6-2.8-21.1
		c0.6-0.6,7.4,0.7,15.4,3.1c8,2.2,19.8,5.6,26.5,7.4c6.7,1.9,21.7,5.9,33.4,9.3c11.7,3.3,23.2,6.5,25.6,6.9c2.2,0.6,4.1,1.7,4.1,2.4
		c0,0.7-16.1,34.1-35.8,74.1l-35.9,72.8L1414,8292.4z"/>
	<path d="M190.7,8271.9c-4.4-9.4-11.5-24.6-15.7-33.9c-35.2-74.3-41.7-88.4-41.7-89.7c0-1.7,7.2-4.1,39.8-13
		c40-10.9,64.3-17.2,64.8-16.5c0.6,0.6-3.1,17.8-11.9,56.1c-3.3,14.3-8,35.2-10.4,46.3c-2.4,11.3-6.5,29.6-9.1,41.1
		c-2.4,11.5-5.4,22-6.3,23.7C199.2,8288.5,197,8285.2,190.7,8271.9z"/>
	<path d="M1480.1,8094.4c-26.7-2.4-52.4-9.8-76.3-22c-61.9-31.5-100.8-87.8-108.8-157.3c-6.3-54.1,15.2-117.3,44.1-129.5
		c6.1-2.6,20.8-3,120.6-2.6c126.4,0.6,126.2,0.6,144.5,12.8c18.2,12,29.5,36.5,27.2,59.7c-1.5,15.9-5.4,28.5-15,49.1
		c-26.3,55.6-53.5,111.9-68.7,141.9c-18.3,36.5-22.8,42.1-37.6,47.2C1502.7,8096.2,1502.7,8096.2,1480.1,8094.4z"/>
	<path d="M112.7,8078.4c-5.6-1.7-10.9-5-14.5-9.3c-9.3-10.4-78.4-151-94.3-191.6c-3.7-9.6-4.6-15.4-4.8-29.6
		c-0.2-15.7,0.4-18.7,5-28.2c6.7-13.7,19.5-26.3,32.6-32.6l10.4-5H162c114.1,0,114.9,0,122.3,4.1c16.7,8.9,25.4,23,33.4,53.4
		c22,85-25.9,180.7-109.5,218.8c-7.8,3.5-22,8.7-31.9,11.7c-15.6,4.6-23.5,6.3-50.4,10.4C123.3,8080.8,117.3,8079.9,112.7,8078.4z"
		/>
	<path d="M374.5,7838.1c-4.4-28.7-8-52.8-7.8-53.5c0-0.9,36.5-1.5,81.2-1.3h81l-5.6,4.6c-14.6,11.9-137.3,102.5-139,102.6
		C383.4,7890.6,379,7867,374.5,7838.1z"/>
	<path d="M1202.7,7869.8c-46.9-34.8-87.5-64.8-100.8-74.7l-12.8-9.3l83.7-0.6c46.1-0.2,83.9-0.2,84.3,0.2
		c0.2,0.2-4.8,22.6-11.3,49.5c-6.7,27.1-12,50.6-12,52.4c0,1.7-0.7,3.1-1.5,3.1C1231.5,7890.6,1218.3,7881.1,1202.7,7869.8z"/>
</g>
</svg>
