<?xml version="1.0" encoding="utf-8"?>
<!-- Generator: Adobe Illustrator 24.0.3, SVG Export Plug-In . SVG Version: 6.00 Build 0)  -->
<svg version="1.1" id="Layer_1" xmlns="http://www.w3.org/2000/svg" xmlns:xlink="http://www.w3.org/1999/xlink" x="0px" y="0px"
	 viewBox="0 0 154 127.2" style="enable-background:new 0 0 154 127.2;" xml:space="preserve">
<style type="text/css">
	.st0{fill:#D9A555;}
</style>
<g>
	<path class="st0" d="M17.2,0v8.5c1.5,0,36.7,0.4,36.7,36.7v58.4h8.5V45.2C62.4,0.5,17.7,0,17.2,0z"/>
	<path class="st0" d="M0,17l0.4,8.5c0.1,0,14.5-0.6,24.1,8.7c6.2,5.9,9.3,14.6,9.3,26v18.4h8.5V60.2c0-13.8-4-24.7-12-32.2
		C18,16.2,0.7,17,0,17z"/>
	<path class="st0" d="M136.8,0c-0.1,0-0.2,0-0.5,0c-0.1,0-0.3,0-0.4,0c0,0,0,0,0,0c-0.2,0-0.5,0-0.8,0c-0.2,0-0.4,0-0.7,0
		c-0.1,0-0.1,0-0.2,0c0,0,0,0,0,0c-0.3,0-0.5,0-0.8,0.1c-0.4,0-0.8,0.1-1.3,0.1c-0.1,0-0.2,0-0.3,0c0,0,0,0,0,0
		c-0.4,0.1-0.9,0.1-1.4,0.2c0,0,0,0,0,0c-0.2,0-0.5,0.1-0.7,0.1c-0.4,0.1-0.8,0.1-1.3,0.2c-0.1,0-0.2,0-0.4,0.1c0,0,0,0,0,0
		c-0.3,0.1-0.6,0.1-0.8,0.2c-0.1,0-0.3,0.1-0.4,0.1c-0.2,0-0.3,0.1-0.5,0.1c-0.2,0.1-0.5,0.1-0.7,0.2c-0.1,0-0.1,0-0.2,0
		c-0.2,0.1-0.5,0.1-0.7,0.2c-0.1,0-0.1,0-0.2,0c-0.2,0.1-0.4,0.1-0.7,0.2c-0.1,0-0.2,0-0.3,0.1c-0.2,0-0.3,0.1-0.5,0.2
		c-0.1,0-0.3,0.1-0.4,0.1c-0.1,0-0.1,0-0.2,0.1c-0.6,0.2-1.2,0.4-1.7,0.6c-0.5,0.2-1,0.3-1.5,0.5c-0.7,0.3-1.4,0.5-2.1,0.8
		c-0.3,0.1-0.6,0.2-0.8,0.4c-0.6,0.3-1.2,0.5-1.7,0.8C104,10.8,91.6,21.9,91.6,45.2v48.4v10h8.5v-10V45.2
		c0-36.1,35.2-36.7,36.7-36.7V0z"/>
	<path class="st0" d="M123.6,28c-8,7.6-12,18.4-12,32.2v18.4h8.5V60.2c0-11.4,3.1-20.1,9.3-26c9.7-9.3,24-8.7,24.1-8.7L154,17
		C153.3,17,136,16.2,123.6,28z"/>
	<rect x="72.8" y="24.6" class="st0" width="8.5" height="102.6"/>
</g>
</svg>
