<?xml version="1.0" encoding="utf-8"?>
<!-- Generator: Adobe Illustrator 24.0.3, SVG Export Plug-In . SVG Version: 6.00 Build 0)  -->
<svg version="1.1" id="Layer_1" xmlns="http://www.w3.org/2000/svg" xmlns:xlink="http://www.w3.org/1999/xlink" x="0px" y="0px"
	 viewBox="0 0 119.3 134.8" style="enable-background:new 0 0 119.3 134.8;" xml:space="preserve">
<style type="text/css">
	.st0{fill:#D9A555;}
</style>
<path class="st0" d="M63.2,0H56L26.7,20c-0.3,0.1-0.6,0.4-0.9,0.6L0,38.2l17.2,61.5l38.6,35.1h1.4c0,0,0,0,0,0c0,0,0,0,0,0h6.4
	l38.6-35.1l17.2-61.5L63.2,0z M59.6,126.9L32.8,26.8h53.6L59.6,126.9z M58.2,7.1H61l18.5,12.6H39.8L58.2,7.1z M8.2,41.2L26.1,29
	l24.5,91.5L23.4,95.8L8.2,41.2z M95.8,95.8l-27.2,24.7L93.1,29l18,12.3L95.8,95.8z"/>
</svg>
