<?xml version="1.0" encoding="utf-8"?>
<!-- Generator: Adobe Illustrator 24.0.3, SVG Export Plug-In . SVG Version: 6.00 Build 0)  -->
<svg version="1.1" id="Layer_1" xmlns="http://www.w3.org/2000/svg" xmlns:xlink="http://www.w3.org/1999/xlink" x="0px" y="0px"
	 viewBox="0 0 191.6 191.6" style="enable-background:new 0 0 191.6 191.6;" xml:space="preserve">
<g id="emzrq6_1_">
	<g>
		<path  d="M148.5,49.6c-0.3,1.8-0.8,4.3-1.2,6.9c-3.4,17.7-6.8,35.4-10.2,53.1c-2.2,11.6-4.5,23.3-6.7,34.9
			c-0.8,4-5.1,7.1-9.4,6.8c-2.2-0.2-4.1-0.9-5.8-2.2c-7.2-5.7-14.4-11.3-21.6-16.9c-1.2-1-1.2-0.9-2.4,0.2
			c-4.4,4.1-8.7,8.1-13.1,12.1c-0.7,0.6-1.5,1.2-2.4,1.5c-2.4,0.9-4.7,0.1-6-2.1c-0.9-1.6-1.7-3.4-2.2-5.1
			c-2.9-9.3-5.6-18.5-8.4-27.8c-0.3-1-0.8-1.5-1.8-1.8c-7.6-2.6-15.3-5.2-22.9-7.8c-2-0.7-3.8-1.7-5-3.5c-2.1-3-1.7-6.3,1-8.7
			c1.1-0.9,2.4-1.7,3.7-2.3c23.1-9.9,46.3-19.8,69.4-29.8c11.1-4.7,22.2-9.5,33.3-14.2c1-0.4,2.1-0.8,3.2-1
			C144.8,40.8,148.5,43.7,148.5,49.6z M79.1,135.5c0.1,0,0.3,0,0.4-0.1c2.7-2.5,5.4-5,8.1-7.5c0.1,0,0-0.2,0-0.4
			c-1.9-1.4-3.8-2.8-5.8-4.4c-0.4,1.7-0.7,3.1-1,4.4C80.2,130.2,79.7,132.9,79.1,135.5C79.2,135.6,79.1,135.5,79.1,135.5z M84,117.9
			c0.5,0.4,0.8,0.7,1.2,0.9c2.6,2,5.3,3.9,7.9,5.9c8.5,6.6,17,13.3,25.6,19.9c2.8,2.2,5.8,1.1,6.5-2.3c2.5-12.7,4.9-25.5,7.3-38.2
			c3.4-17.7,6.8-35.5,10.2-53.2c0.1-0.6,0.2-1.3,0.2-2c0.1-1.6-0.3-1.9-1.8-1.7c-0.8,0.1-1.6,0.4-2.3,0.7
			C104.5,62.6,70.3,77.2,36,91.9c-0.6,0.2-1.1,0.5-1.6,0.9c-1.2,0.8-1.2,1.2-0.1,2c0.8,0.6,1.7,1.2,2.6,1.5
			c7.4,2.6,14.8,5.1,22.2,7.6c1,0.3,1.7,0.3,2.6-0.3c20-13.4,40-26.7,60-40c1.2-0.8,2.3-1.6,3.5-2.3c1.2-0.7,2.6-0.5,3.5,0.5
			c0.9,1,0.9,2.3,0.2,3.5c-0.2,0.3-0.5,0.6-0.8,0.9c-8.2,9.7-16.4,19.3-24.6,29C97,102.7,90.6,110.2,84,117.9z M72.7,137.4
			c0.1,0,0.2,0,0.3,0c1.3-6.1,2.7-12.1,4-18.2c0.3-1.4,0.9-2.6,1.8-3.7c8.9-10.4,17.7-20.8,26.6-31.3c1.9-2.2,3.8-4.5,5.7-6.8
			c-0.4,0-0.7,0.2-1,0.3C95.1,87.9,80,97.9,64.9,108c-0.9,0.6-0.8,1.1-0.6,2c2.6,8.5,5.1,17,7.7,25.5
			C72.3,136.1,72.5,136.7,72.7,137.4z"/>
	</g>
</g>
<path  d="M95.8,191.6C43,191.6,0,148.6,0,95.8S43,0,95.8,0s95.8,43,95.8,95.8S148.6,191.6,95.8,191.6z M95.8,5.7
	C46.1,5.7,5.7,46.1,5.7,95.8c0,49.7,40.4,90.1,90.1,90.1s90.1-40.4,90.1-90.1C185.9,46.1,145.5,5.7,95.8,5.7z"/>
</svg>
