<?xml version="1.0" encoding="utf-8"?>
<!-- Generator: Adobe Illustrator 24.0.3, SVG Export Plug-In . SVG Version: 6.00 Build 0)  -->
<svg version="1.1" id="Layer_1" xmlns="http://www.w3.org/2000/svg" xmlns:xlink="http://www.w3.org/1999/xlink" x="0px" y="0px"
	 viewBox="0 0 171 148.3" style="enable-background:new 0 0 171 148.3;" xml:space="preserve">
<style type="text/css">
	.st0{fill:#D9A555;}
</style>
<g>
	<path class="st0" d="M120.2,42.9c-0.7,0-1.5,0.3-2,0.7c-15,15.2-29.9,30.4-44.9,45.5c-4.5,4.5-9.1,8.8-13.7,13.1
		c9,15.7,17.6,30.7,26.3,46c19-33.2,37.9-66.3,56.8-99.4c-7.5-2-14.8-4-22.2-5.9C120.6,42.9,120.4,42.9,120.2,42.9z M132.1,53.3
		L86,134l-14.9-26.1l-2.5-4.3c0.1-0.1,0.1-0.1,0.2-0.2c3.2-3,6.4-6,9.6-9.2c7.8-7.9,15.7-15.9,23.3-23.6
		c6.5-6.6,13.1-13.4,19.8-20.1C125,51.4,128.5,52.3,132.1,53.3z"/>
	<path class="st0" d="M73.6,77.5c-5.3-19.2-10.7-38.4-16-57.6C55.7,13.3,53.8,6.7,51.9,0C34.6,0,17.5,0,0,0
		c18.7,32.4,37.3,64.6,56.3,97.4c5.7-5.9,11.2-11.5,16.6-17.3C73.4,79.6,73.8,78.3,73.6,77.5z M57.7,85.8L12.6,7.6l-0.3-0.5h34.3
		l0.3,1.1c1.3,4.5,2.6,9.1,3.8,13.6l1.9,6.8c4.4,15.9,9,32.2,13.5,48.4C63.3,79.9,60.6,82.8,57.7,85.8z"/>
	<path class="st0" d="M59.2,0c0,0.2,0,0.3,0,0.5c1.7,6.7,3.4,13.4,5.2,20c0.1,0.4,0.8,0.9,1.3,1c26.2,7.2,52.4,14.3,78.7,21.4
		c0.5,0.1,1.1,0.2,1.6,0.4C154.3,28.8,162.6,14.5,171,0C133.6,0,96.4,0,59.2,0z M142.5,35.1C120,29,95,22.2,70.4,15.5
		c-0.7-2.8-1.5-5.6-2.2-8.4h90.5L142.5,35.1z"/>
	<path class="st0" d="M111.5,40.8c-14.9-3.9-29.3-7.6-43.9-11.4c4,14.6,8,28.9,11.7,42.4C89.8,61.7,100.5,51.3,111.5,40.8z
		 M97.4,44.5l-14.5,14l-5.3-19.1L97.4,44.5z"/>
</g>
</svg>
