<?xml version="1.0" encoding="utf-8"?>
<!-- Generator: Adobe Illustrator 24.0.3, SVG Export Plug-In . SVG Version: 6.00 Build 0)  -->
<svg version="1.1" id="Layer_1" xmlns="http://www.w3.org/2000/svg" xmlns:xlink="http://www.w3.org/1999/xlink" x="0px" y="0px"
	 viewBox="0 0 303.2 96.3" style="enable-background:new 0 0 303.2 96.3;" xml:space="preserve">
<g>
	<path d="M199.5,0.3C199.3,0.1,199,0,198.6,0h-28.3c-0.6,0-1.1,0.4-1.3,0.9c-0.2,0.6,0,1.2,0.4,1.6l54.2,45.6l-15.2,12.7l-35.5-42.2
		c-0.3-0.3-0.7-0.5-1.1-0.5H148c-0.4,0-0.8,0.2-1.1,0.5l-42.5,50.5L122.2,20c0.2-0.4,0.1-0.9-0.2-1.3s-0.7-0.6-1.2-0.6h-19.4
		c-0.6,0-1.1,0.4-1.3,0.9L87.3,54.4L74.4,19.1c-0.2-0.6-0.7-0.9-1.3-0.9H49.3c-0.6,0-1.1,0.4-1.3,0.9L35.1,54.5L22.1,19
		c-0.2-0.6-0.7-0.9-1.3-0.9H1.4c-0.5,0-0.9,0.2-1.2,0.6s-0.3,0.9-0.2,1.3l20.9,57.2c0.2,0.6,0.7,0.9,1.3,0.9h25.6
		c0.6,0,1.1-0.4,1.3-0.9L56.9,56c0.7-2,1.5-4.1,2.2-6.1c0.4-1,0.7-2,1.1-3c0.3-0.9,0.6-1.8,1-2.6l12.1,33.1c0.2,0.6,0.7,0.9,1.3,0.9
		h22.1l-2.9,3.5c-2.7,3.2-5.4,6.4-8.1,9.6c-0.5,0.6-1,1.2-1.5,1.9L83.5,94c-0.3,0.4-0.4,1-0.2,1.5c0.2,0.5,0.7,0.8,1.3,0.8h23.8
		c0.5,0,0.9-0.2,1.2-0.6l0.2-0.3c0.1-0.2,0.2-0.3,0.3-0.5c1.1-1.4,2.3-2.7,3.4-4.1l46.4-55.1l11.8,14h-16.3c-0.4,0-0.8,0.2-1.1,0.5
		c-1.3,1.5-2.5,3-3.8,4.5c-2,2.4-4.1,4.8-6.1,7.2c-0.4,0.5-0.4,1.2-0.1,1.7l0.1,0.2c0.3,0.4,0.7,0.6,1.2,0.6h38.5l10.9,13
		c0.3,0.3,0.6,0.5,1,0.5l0.2,0c0.2,0,0.3,0,0.5,0l6.1,0c5.5,0,10.9,0,16.4,0c0.8,0,1.4-0.2,2.1-0.8c5.3-4.4,10.6-8.9,15.9-13.3
		l1.3-1.1c0.5-0.4,0.9-0.8,1.4-1.2l1.7,1.5c5.6,4.7,11.2,9.3,16.7,14c0.7,0.6,1.5,0.9,2.4,0.9c0,0,0,0,0,0c6.6,0,13.2,0,19.9,0
		l6.6,0c0.2,0,0.4,0,0.6,0l0.2,0c0.5,0,1-0.4,1.2-0.9l0.1-0.2c0.2-0.6,0.1-1.2-0.4-1.6L199.5,0.3z M75.6,75.4L62.6,39.9
		c-0.2-0.5-0.6-0.8-1.1-0.9l-0.2,0c-0.7-0.1-1.3,0.2-1.6,0.9c-0.8,2-1.5,4.1-2.2,6c-0.4,1-0.7,2-1.1,3C55.7,51,55,53,54.3,55
		l-7.4,20.3H23.3L3.4,20.9h16.4l13.8,38c0.2,0.6,1,1,1.6,0.9c0.5-0.1,1-0.4,1.2-0.9l13.8-38h21.8l13.8,37.8c0.2,0.5,0.7,0.9,1.3,0.9
		c0,0,0.1,0,0.1,0c0.6,0.1,1.3-0.3,1.5-0.9l13.8-37.8h16.4L99.1,75.2c0,0.1,0,0.1-0.1,0.2H75.6z M280.6,75.4c-6.6,0-13.2,0-19.9,0
		c0,0,0,0,0,0c-0.2,0-0.3,0-0.5-0.2c-5.6-4.7-11.1-9.4-16.7-14l-2-1.7c-0.2-0.1-0.3-0.3-0.5-0.4l-0.2-0.2c-0.5-0.4-1.3-0.4-1.8,0
		l-0.7,0.6c-0.5,0.4-1.1,0.9-1.6,1.3l-1.3,1.1c-5.3,4.4-10.6,8.9-15.9,13.3c-0.1,0.1-0.2,0.1-0.2,0.1c-5.5,0-10.9,0-16.4,0h-6.1
		l-11-13.1c-0.3-0.3-0.7-0.5-1.1-0.5h-36.4c1.4-1.7,2.8-3.4,4.3-5.1c1.1-1.3,2.3-2.7,3.4-4h18.5c0.5,0,1-0.4,1.3-0.8
		c0,0,0-0.1,0-0.1c0.3-0.5,0.2-1.1-0.2-1.6L161,32.8c-0.3-0.3-0.6-0.5-1-0.5c-0.4,0-0.8,0.1-1.1,0.4l-0.2,0.1
		c-0.2,0.1-0.3,0.3-0.4,0.4l-47,55.8c-1.1,1.4-2.3,2.7-3.4,4.1c-0.1,0.1-0.2,0.2-0.3,0.3H87.5c0.1-0.1,0.2-0.2,0.3-0.4
		c2.7-3.2,5.4-6.4,8.1-9.6l4.6-5.4c0.1-0.1,0.2-0.2,0.3-0.4l0.1-0.1c0.1-0.1,0.2-0.3,0.2-0.5c0.2-0.1,0.5-0.2,0.7-0.4l47-55.7h22.6
		l35.9,42.8c0.5,0.6,1.4,0.7,2,0.2l17.5-14.7c0.3-0.3,0.5-0.7,0.5-1.1c0-0.4-0.2-0.8-0.5-1.1L174.2,2.8h23.9l86.3,72.5H280.6z"/>
	<polygon points="302.7,19.3 300.9,19.3 299.6,23.3 298.2,19.3 296.3,19.3 295.9,25.1 297.1,25.1 297.4,20.8 297.5,20.8 298.8,25.1 
		300.1,25.1 301.6,20.5 301.7,20.6 302,25.2 303.2,25.2 	"/>
	<path d="M287.6,19.8c0-0.1,0-0.1-0.1-0.2c-0.3,0-0.6,0-1,0c-8.3,0-16.5,0-24.8,0c-1.2,0-2.3,0.1-3.1,1.1c-0.1,0.2-0.4,0.3-0.6,0.5
		c-3.7,3.1-7.3,6.1-11,9.2c-0.2,0.2-0.4,0.4-0.7,0.6c4.7,3.9,9.3,7.8,13.9,11.6C269.5,35,278.6,27.4,287.6,19.8z"/>
	<polygon points="290.6,20.3 292.5,20.3 292.5,25.1 293.7,25.1 293.7,20.3 295.5,20.3 295.5,19.3 290.6,19.3 	"/>
</g>
</svg>
