<?xml version="1.0" encoding="utf-8"?>
<!-- Generator: Adobe Illustrator 24.0.3, SVG Export Plug-In . SVG Version: 6.00 Build 0)  -->
<svg version="1.1" id="Layer_1" xmlns="http://www.w3.org/2000/svg" xmlns:xlink="http://www.w3.org/1999/xlink" x="0px" y="0px"
	 viewBox="0 0 103.1 120.3" style="enable-background:new 0 0 103.1 120.3;" xml:space="preserve">
<g>
	<path d="M51.6,0c-8.8,0-15.9,7.1-15.9,15.9s7.1,15.9,15.9,15.9s15.9-7.1,15.9-15.9S60.4,0,51.6,0z M51.6,22.8
		c-3.8,0-6.9-3.1-6.9-6.9S47.8,9,51.6,9s6.9,3.1,6.9,6.9S55.4,22.8,51.6,22.8z"/>
	<path  d="M19.2,39.8C9.8,35.1,0.4,35,0,35v11.3c0.1,0,7.4,0.1,14.4,3.7c8.7,4.5,13.2,12.5,13.2,23.9v39.3H39V74
		C39,53.9,28.2,44.4,19.2,39.8z"/>
	<path d="M84,39.8C75,44.3,64.2,53.9,64.2,74v39.3h11.3V74c0-11.3,4.4-19.4,13.2-23.9c7-3.6,14.3-3.7,14.4-3.7V35.1
		C102.8,35.1,93.4,35.1,84,39.8z"/>
	<rect x="45.9" y="37"  width="11.3" height="83.3"/>
</g>
</svg>
