<?xml version="1.0" encoding="utf-8"?>
<!-- Generator: Adobe Illustrator 24.0.3, SVG Export Plug-In . SVG Version: 6.00 Build 0)  -->
<svg version="1.1" id="Layer_1" xmlns="http://www.w3.org/2000/svg" xmlns:xlink="http://www.w3.org/1999/xlink" x="0px" y="0px"
	 viewBox="0 0 95.7 111.2" style="enable-background:new 0 0 95.7 111.2;" xml:space="preserve">
<style type="text/css">
	.stbinance{fill:#F0B90A;}
</style>
<g>
	<path class="stbinance" d="M36.9,27.9c4,2.3,7.5,4.4,11,6.5c3.6-2.2,7.1-4.2,11-6.5c-4.1-2.4-7.5-4.3-11-6.4C44.3,23.5,41,25.5,36.9,27.9
		z"/>
	<path class="stbinance" d="M37,19.3c3.6-2.1,10.6-6.2,10.9-6.4c0.3,0.2,7.4,4.3,10.9,6.4l7.6,4.3l11.1-6.3l-7.8-4.5
		c-4.1-2.4-7.4-4.3-10.9-6.4c0,0,0,0,0.1,0C54.8,4,51.4,2,47.9,0c-3.5,2-6.9,4-11,6.4c0,0,0,0,0.1,0c-3.5,2.1-6.9,4-10.9,6.4
		l-7.8,4.5l11.1,6.3L37,19.3z"/>
	<path class="stbinance" d="M11,34.1c3.6-2.2,7.1-4.2,11-6.5c-4.1-2.4-7.5-4.3-11-6.4c-3.5,2.1-6.9,4-10.9,6.4v13.1L11,47V34.1z"/>
	<polygon class="stbinance" points="18.2,72.9 29.2,79.2 29.2,66.3 18.2,59.8 	"/>
	<polygon class="stbinance" points="11,77.3 11,68.8 11,68.8 11,55.7 0,49.4 0,62.5 0,71 0,71 0,84.1 7.2,88.2 7.2,88.2 18.2,94.5 
		18.2,94.5 29.2,100.8 29.2,87.7 18.2,81.4 	"/>
	<path class="stbinance" d="M84.8,21.3c-3.5,2-6.9,4-11,6.4c3.9,2.3,7.4,4.3,11,6.5V47l11-6.3v-13C91.7,25.3,88.3,23.3,84.8,21.3z"/>
	<path class="stbinance" d="M77.4,38.7c-4.1-2.4-7.4-4.3-10.9-6.4c-3.5,2-6.9,4-10.9,6.3c0,0,0,0-0.1,0c-2.5,1.4-5,2.8-7.6,4.4
		c-2.7-1.5-5.1-3-7.6-4.4c0,0,0,0-0.1,0c-4-2.3-7.4-4.3-10.9-6.3c-3.5,2.1-10.9,6.4-10.9,6.4v13.1l11,6.3l7.6,4.3v8l0,0l0,0v13.1
		l11,6.3l0,0l0,0l11-6.3V70.3l0,0l0,0v-8l7.6-4.3l11-6.3v-13H77.4z"/>
	<polygon class="stbinance" points="66.6,79.2 77.5,72.9 77.5,59.8 66.6,66.3 	"/>
	<polygon class="stbinance" points="47.9,98.1 47.9,98.1 36.9,91.8 36.9,104.9 47.9,111.2 47.9,111.2 47.9,111.2 58.8,104.9 58.8,91.8 	
		"/>
	<polygon class="stbinance" points="95.7,62.5 95.7,49.4 84.7,55.7 84.7,68.8 84.7,68.8 84.7,77.3 77.5,81.4 66.6,87.7 66.6,100.8 
		77.5,94.5 77.5,94.5 88.5,88.2 88.5,88.2 95.7,84.1 95.7,71 95.7,71 	"/>
</g>
</svg>
