<?xml version="1.0" encoding="utf-8"?>
<!-- Generator: Adobe Illustrator 24.0.3, SVG Export Plug-In . SVG Version: 6.00 Build 0)  -->
<svg width="100%" version="1.1" id="Layer_1" xmlns="http://www.w3.org/2000/svg" xmlns:xlink="http://www.w3.org/1999/xlink" x="0px" y="0px"
	 viewBox="0 0 101.1 151.5" style="enable-background:new 0 0 101.1 151.5;" xml:space="preserve">
<path d="M75.4,11.3c4.6,0,9.1,0,13.7,0c0.2,0,0.4,0,0.8,0.1c-11.6,17-23.1,33.9-34.8,51c11.3-0.3,22.5-0.5,33.9-0.8
	C65.3,88,41.9,114.1,18.4,140.2c-0.1,0-0.1-0.1-0.2-0.1c8.4-17.9,16.9-35.8,25.3-53.9c-10.8,0-21.4,0-32.2,0
	c0.2-0.5,0.3-0.9,0.4-1.2c9.5-24.2,19-48.4,28.6-72.6c0.2-0.4,0.8-0.9,1.2-0.9C52.8,11.3,64.1,11.3,75.4,11.3 M89,61.6L89,61.6
	 M75.4,0C64.7,0,53.2,0,41.5,0c-5,0-9.9,3.4-11.7,8.1C20.7,31.2,11.5,54.7,2.5,77.4l-1.3,3.3c-0.2,0.4-0.3,0.8-0.4,1.2l-0.1,0.4
	c-1.2,3.5-0.7,7.3,1.4,10.3s5.6,4.8,9.3,4.8h14.4L8,135.2c-2.5,5.3-0.5,11.7,4.6,14.7l0.1,0.1l0.1,0.1c1.8,1,3.7,1.5,5.6,1.5
	c3.1,0,6.2-1.3,8.4-3.8l25.6-28.6l44.8-49.9c1.9-2,3-4.7,3-7.7c0-6.3-5.1-11.3-11.3-11.3c0,0,0,0,0,0c0,0,0,0-0.1,0c0,0,0,0,0,0
	c0,0,0,0,0,0c-0.1,0-0.2,0-0.2,0l-11.8,0.3l22.3-32.8c2.3-3.4,2.6-7.7,0.8-11.3c-1.8-3.7-5.4-6.1-9.4-6.4l-0.2,0C90.1,0,89.6,0,89,0
	l-4.1,0L75.4,0L75.4,0z"/>
</svg>
