<?xml version="1.0" encoding="utf-8"?>
<!-- Generator: Adobe Illustrator 24.0.3, SVG Export Plug-In . SVG Version: 6.00 Build 0)  -->
<svg version="1.1" id="Layer_1" xmlns="http://www.w3.org/2000/svg" xmlns:xlink="http://www.w3.org/1999/xlink" x="0px" y="0px"
	 viewBox="0 0 163.3 164.1" style="enable-background:new 0 0 163.3 164.1;" xml:space="preserve">
<style type="text/css">
	.st0{fill:#959595;}
</style>
<g transform="translate(0.000000,942.000000) scale(0.100000,-0.100000)">
	<g>
		<path class="st0" d="M809.1,9333.9c7.9-1.4,18-3.7,23-5.4c0.3-0.3,0.6-0.5,0.9-0.9c3.7-3.7,5.1-5.1,10.8-20.2
			c9.6-26,13.9-34.9,50-107.9c19.6-39.7,27.1-56.8,29.8-63.1c0.4-7.2-3.5-18-6.2-24.3c-20.1-48.6-65.7-82.5-110.8-82.5
			c-8,0-15.8,1.1-23,3.3c-28.3,8.7-58.3,34-74.5,62.7c-7.2,12.9-10.8,22.4-12.4,27.9c5.8,12.7,18.7,38.8,31.4,64.4
			c33.7,68.7,51.5,106.8,59.6,127.9c3.9,10.2,6.9,14.3,7.9,15.3c0.4,0.1,1.3,0.4,2.6,0.6l0.3,0.1l0.3,0.1
			C802,9332.5,805.5,9333.1,809.1,9333.9 M803.5,9420c-2.3,0-3.8-0.2-4.3-0.8c-0.6-0.6-7.6-2.2-15.7-3.7
			c-36.1-6.3-59.7-28-75.4-69.7c-6.9-18-24.5-55.6-56.3-120.4c-38.7-78.4-39.3-80-40.8-92.6c-2-19.6,6.7-48,23.9-78.7
			c27.1-48,74.9-87.5,123.8-102.5c15.7-4.8,31.8-7.1,47.9-7.1c77.7,0,155.5,53,189.4,135.1c12.4,29.8,15.6,55.2,10,78.7
			c-1.9,7.6-14.8,35.9-35.9,78.7c-35.8,72.4-38.5,78.4-46.5,99.9c-9.4,25.2-16.5,36.9-30.4,50.8c-10.7,10.7-15.9,14.1-27.8,19.1
			C850.3,9413.1,815.9,9420,803.5,9420L803.5,9420z"/>
	</g>
	<g>
		<path class="st0" d="M1058,9055c-0.4,0-9.1-11.5-19.3-25.4c-10-14.1-25.8-35.9-34.8-48.4c-9.1-12.6-18.9-26.5-21.9-30.6
			c-3-4.3-7.4-10.6-10-13.7l-4.4-6.1l25.2-12c14.1-6.7,29.3-13.9,34.1-15.9c4.8-2.2,23.7-11.1,42.1-19.6c18.3-8.7,37.6-17.6,42.6-20
			c5.2-2.4,19.1-8.9,31.1-14.6c11.4-5.3,20.9-9.5,21.6-9.5l0,0C1164.4,8841.3,1059.1,9055,1058,9055L1058,9055z"/>
	</g>
	<g>
		<path class="st0" d="M563.9,9042.2c-1.5,0-3.5-3.4-7.9-12.6c-3.5-8-24.1-51.1-45.4-96c-21.3-44.8-38.2-81.7-37.2-82.1l0,0
			c1.7,0,37.7,15.6,80.7,34.8c43.7,19.6,83.2,37.4,88,39.7c5,2,8.9,4.6,8.9,5.4c0,0.9-8.9,12.8-19.8,26.7
			c-11.1,13.9-29.8,37.8-42.1,53.2c-12,15.4-23,29.1-24.3,30.4C564.6,9042,564.3,9042.2,563.9,9042.2L563.9,9042.2z"/>
	</g>
	<g>
		<path class="st0" d="M804.2,8880.5c-18.9,0-37.5-0.6-49.4-1.8c-43.5-4.4-92.3-17-144.5-37.4c-24.1-9.3-82.5-38.9-111.9-56.5
			l-22.2-13.3h318.5c179.2,0,317.8,0.7,316.7,1.7c-8.2,7.4-37.2,30-47.8,37.1c-59.1,39.7-127.7,61.9-211,68.7
			C839.4,8880,821.6,8880.5,804.2,8880.5L804.2,8880.5z"/>
	</g>
	<g>
		<path class="st0" d="M1090,8709.5c-62.4,0-209.9-0.5-356.4-1l-307.6-0.9l-10.7-4.6c-22.6-9.8-37.2-26.7-50.2-57.4
			c-4.4-10.7-8.7-21.3-9.4-23.5l-1.1-4.3h210.1c190.1,0,210.3-0.4,211.4-3c0.6-1.7,1.1-188.6,1.1-415.6v-412.6l15.4-2.2
			c10.6-1.5,19.4-2.3,26.6-2.3c17.2,0,25.8,4.6,30.9,14.8l4.1,8.5l0.6,407.1l0.4,406.9l206.4,0.7c113.6,0.2,207.1,1.1,207.9,1.9
			c1.5,1.7-14.6,27.8-28.2,45.6c-11.9,15.6-29.5,30-45,36.7l-12.2,5.4h-71.3C1107.2,8709.4,1099.6,8709.5,1090,8709.5L1090,8709.5z"
			/>
	</g>
	<g>
		<path class="st0" d="M550.5,8467.1L550.5,8467.1c35.5,0,64.4-0.1,86.8-0.2c0.5-53.3,0.8-148.8,1.2-305.1v-3.8
			c0.3-99,0.4-188.4,0.5-254.8c-1.4,0.5-2.7,1-3.8,1.5c-19.4,7.7-50.5,22.7-60.1,28c-4.2,3-10.3,7-19.5,12.4
			c-39.1,23.7-83.9,64.7-114.2,104.5c-45.9,60.4-81.4,147.1-92.6,225.7c-3.2,23.2-4.2,71.4-2.6,86.3c4.3,37.9,15.3,73.9,31.6,104.6
			C395.9,8466.7,457.2,8467.1,550.5,8467.1 M550.5,8552.1c-84.9,0-166.2-0.4-181-1.1c-37.2-1.5-43.5-5-60-33
			c-25-42.8-41.5-93.4-47.6-146.7c-2.6-23.3-1.1-78.9,2.8-107.5c13.3-93.8,54.1-193.3,109.1-265.7c37.1-48.7,90.2-97.1,138.4-126.2
			c6.7-3.9,13.3-8.2,14.8-9.4c6.7-5.2,51.7-26.9,76.9-36.9c24.1-9.7,116.6-41.9,120.1-41.9c0.1,0,0.1,0,0.1,0
			c0.2,0.6,0,169.2-0.6,374.5c-1.1,369.1-1.1,373.3-4.8,379.6c-2,3.5-6.1,8-8.9,10.2C704.7,8551.9,704.1,8551.9,550.5,8552.1
			L550.5,8552.1z"/>
	</g>
	<g>
		<path class="st0" d="M1106,8463.1c19.2,0,38.6,0,57-0.1h6.7c35.8-0.2,65.2-0.3,84.2-0.7c9.5-19.1,21.8-50.2,27.2-76.6
			c12-58.7,4.7-131.7-20.6-205.4c-18.8-54.6-44.7-102.8-77-143.4c-12.9-16.3-51.7-54.9-68.1-67.8c-35.6-28.1-76.5-51.6-118.2-68
			l-0.5-0.2l-0.3-0.1c-0.7-0.3-1.9-0.7-3.4-1.3c-0.1,56.2,0,134,0.1,233.9c0.3,141.1,0.6,265.6,0.9,329.2
			C1019.6,8462.9,1063.7,8463.1,1106,8463.1 M1106,8548.2c-50,0-98.3-0.3-121.4-0.7c-51.5-0.9-59.1-1.5-63.6-4.4
			c-8.7-5.6-11.3-13.2-11.9-34.6c-0.2-10.7-0.7-179.4-1.1-374.8c-0.4-315.4-0.2-354.5,2.3-354.5h0.1c7.4,2.2,106.2,38.2,117.7,42.8
			c49.7,19.5,97.6,47.1,139.9,80.4c21.5,16.9,65,60.2,82.1,81.7c38.5,48.4,68.7,104.5,90.8,168.6c30.4,88.6,38.7,175.8,23.5,250.1
			c-10.2,50.2-39.8,117.7-58.9,134.5c-11.9,10.4-11.3,10.2-142.1,10.7C1145,8548.1,1125.4,8548.2,1106,8548.2L1106,8548.2z"/>
	</g>
	<g>
		<path class="st0" d="M1418.8,8312.5l-3.9-19.3c-2.2-10.6-8.2-40.9-13.3-67.4c-5-26.5-11.1-57.3-13.2-68.2
			c-2.2-11.1-3.5-20.6-2.8-21.1c0.1-0.1,0.3-0.1,0.7-0.1c2,0,8,1.2,14.7,3.3c8,2.2,19.8,5.6,26.5,7.4c6.7,1.9,21.7,5.9,33.4,9.3
			c11.7,3.3,23.2,6.5,25.6,6.9c2.2,0.6,4.1,1.7,4.1,2.4c0,0.7-16.1,34.1-35.8,74.1L1418.8,8312.5L1418.8,8312.5z"/>
	</g>
	<g>
		<path class="st0" d="M200.4,8287.7c-1.3,0-3.8-4.3-8.8-15c-4.4-9.4-11.5-24.6-15.7-33.9c-35.2-74.3-41.7-88.4-41.7-89.7
			c0-1.7,7.2-4.1,39.8-13c37.9-10.4,61.7-16.5,64.6-16.5c0.2,0,0.3,0,0.3,0.1c0.6,0.6-3.1,17.8-11.9,56.1
			c-3.3,14.3-8,35.2-10.4,46.3c-2.4,11.3-6.5,29.6-9.1,41.1c-2.4,11.5-5.4,22-6.3,23.7C201,8287.4,200.8,8287.7,200.4,8287.7
			L200.4,8287.7z"/>
	</g>
	<g>
		<path class="st0" d="M1473.1,8008.1c14.4-28.4,40.7-82.8,67.2-138.7c-19.4-0.4-47.1-0.5-80-0.6c-20.6-0.1-37.5-0.1-51.4-0.1
			c-9.8,0-18.3,0-25.4,0.1c-2.7,10.4-4.6,24.2-3,37.4c4.7,41.1,26.5,72.7,63,91.3C1452.9,8002.3,1462.8,8005.9,1473.1,8008.1
			 M1500.7,8096.5c-3.8,0-9.4-0.5-19.7-1.3c-26.7-2.4-52.4-9.8-76.3-22c-61.9-31.5-100.8-87.8-108.8-157.3
			c-6.3-54.1,15.2-117.3,44.1-129.5c4.8-2.1,15.1-2.7,68.9-2.7c14.1,0,31.1,0,51.8,0.1c126.4,0.6,126.2,0.6,144.5,12.8
			c18.2,12,29.5,36.5,27.2,59.7c-1.5,15.9-5.4,28.5-15,49.1c-26.3,55.6-53.5,111.9-68.7,141.9c-18.3,36.5-22.8,42.1-37.6,47.2
			C1507,8095.9,1505.2,8096.5,1500.7,8096.5L1500.7,8096.5z"/>
	</g>
	<g>
		<path class="st0" d="M151.7,7989.8c0.3-0.1,0.6-0.2,0.8-0.3c7.5-2.3,18-6.2,21.1-7.6c44.1-20.1,71.6-70.2,63.9-113.8
			c-17.7-0.1-42.8-0.1-74.7-0.1h-70C107.8,7901.2,133.9,7955,151.7,7989.8 M125.4,8081.4c-3,0-7.8-0.9-11.8-2.1
			c-5.6-1.7-10.9-5-14.5-9.3c-9.3-10.4-78.4-151-94.3-191.6c-3.7-9.6-4.6-15.4-4.8-29.6c-0.2-15.7,0.4-18.7,5-28.2
			c6.7-13.7,19.5-26.3,32.6-32.6l10.4-5h114.9c114.1,0,114.9,0,122.3,4.1c16.7,8.9,25.4,23,33.4,53.4c22,85-25.9,180.7-109.5,218.8
			c-7.8,3.5-22,8.7-31.9,11.7c-15.6,4.6-23.5,6.3-50.4,10.4C126.4,8081.4,125.9,8081.4,125.4,8081.4L125.4,8081.4z"/>
	</g>
	<g>
		<path class="st0" d="M385.2,7891.4c-0.9,0-5.4-23.5-9.8-52.4c-4.4-28.7-8-52.8-7.8-53.5c0-0.8,27.7-1.3,64.3-1.3
			c5.4,0,11.1,0,16.9,0h81l-5.6,4.6C509.6,7800.6,386.9,7891.2,385.2,7891.4L385.2,7891.4z"/>
	</g>
	<g>
		<path class="st0" d="M1233.3,7891.4c-0.9,0-14.1-9.4-29.6-20.8c-46.9-34.8-87.5-64.8-100.8-74.7l-12.8-9.3l83.7-0.6
			c19.1-0.1,36.8-0.1,51-0.1c20.1,0,33.1,0.1,33.3,0.3c0.2,0.2-4.8,22.6-11.3,49.5c-6.7,27.1-12,50.6-12,52.4
			C1234.8,7889.9,1234,7891.4,1233.3,7891.4L1233.3,7891.4z"/>
	</g>
</g>
</svg>
