<?xml version="1.0" encoding="utf-8"?>
<!-- Generator: Adobe Illustrator 25.4.1, SVG Export Plug-In . SVG Version: 6.00 Build 0)  -->
<svg version="1.1" id="Layer_1" xmlns="http://www.w3.org/2000/svg" xmlns:xlink="http://www.w3.org/1999/xlink" x="0px" y="0px"
	 viewBox="0 0 39.49 31.41" style="enable-background:new 0 0 39.49 31.41;" xml:space="preserve">
<style type="text/css">
	.st0{fill:#FFFFFF;}
</style>
<g>
	<path class="st0" d="M2.74,18.9v-6.38c0-3.31,2.69-5.99,5.99-5.99h9.93l-1.76,1.79l1.86,1.99L24,5.15L18.76,0l-1.86,1.99l1.76,1.79
		H8.73C3.92,3.78,0,7.7,0,12.51v6.38c0,4.81,3.92,8.73,8.73,8.73h0.76v-2.74H8.73C5.43,24.89,2.74,22.2,2.74,18.9z"/>
	<path class="st0" d="M30.76,3.78H30v2.74h0.76c3.31,0,5.99,2.69,5.99,5.99v6.38c0,3.31-2.69,5.99-5.99,5.99h-9.93l1.76-1.79
		l-1.86-1.99l-5.24,5.15l5.24,5.15l1.86-1.99l-1.76-1.79h9.93c4.81,0,8.73-3.92,8.73-8.73v-6.38C39.49,7.7,35.57,3.78,30.76,3.78z"
		/>
</g>
</svg>
