<?xml version="1.0" encoding="utf-8"?>
<!-- Generator: Adobe Illustrator 24.0.3, SVG Export Plug-In . SVG Version: 6.00 Build 0)  -->
<svg version="1.1" id="Layer_1" xmlns="http://www.w3.org/2000/svg" xmlns:xlink="http://www.w3.org/1999/xlink" x="0px" y="0px"
	 viewBox="0 0 98.2 89" style="enable-background:new 0 0 98.2 89;" xml:space="preserve">

<path  d="M98.2,55.6l0-0.1c-0.1-5.2-1.4-9.9-3.9-14c-1.7-2.6-3.7-4.9-6-6.7c-1.9-1.5-4.3-1.3-5.8,0.4
	c-1.5,1.8-1.4,4.2,0.4,5.9c0.3,0.2,0.5,0.5,0.8,0.7c0.1,0.1,0.3,0.2,0.4,0.4c2.9,2.7,4.7,5.9,5.4,9.8c0.5,2.5,0.4,5.2,0.2,8.1
	c0,0.4-0.2,1-0.5,1.7c-0.9,1.7-2,2.4-3.8,2.4c-5.1,0-10.1,0-15.2,0l-2.1,0c-0.2-2.6-0.7-5.3-1.5-8c-1.6-4.9-4.1-9.2-7.6-12.9
	c2.7-2.9,6-4.8,9.9-5.5c0.9-0.2,1.9-0.2,2.9-0.3l0.1,0c0.3,0,0.7,0,1-0.1c2.6,0,4.9-0.9,6.4-1.7c4-2.1,7.1-5.7,8.3-10.1
	c1.2-4.3,0.6-8.7-1.7-12.5C82.6,8,77.7,5.2,71.6,5.5c-6.1,0.2-10.9,3.3-13.8,8.8c-3.1,5.9-2.1,13,2.3,17.9c-1.4,0.7-2.6,1.5-3.8,2.4
	c-1.4,1.1-2.7,2.3-3.7,3.5c-0.8-0.5-1.5-1-2.3-1.4c-0.8-0.4-1.5-0.8-2.3-1.2c1.6-1.5,2.9-3.1,4-5c2.2-4,3.1-8.3,2.5-12.7
	c-0.6-4.4-2.5-8.3-5.6-11.6C45,2.2,39.5-0.1,33.8,0c-5.7,0.1-11,2.5-14.9,6.9c-4,4.5-5.7,9.8-5,15.8c0.6,5.2,2.8,9.5,6.5,12.8
	c-3.2,1.4-6,3.2-8.7,5.6C6.2,46,2.6,52,1,58.9c-1.3,5.5-1.1,10.8-0.8,15.4c0.4,5.4,3.1,9.7,8.1,12.7c2.3,1.4,4.5,2,6.7,2
	c2.4,0,4.8,0,7.2,0c2.8,0,5.7,0,8.5,0l1.2,0c0.5,0,1.1,0,1.7-0.2c2-0.5,3.2-2.3,3-4.3c-0.2-1.9-1.5-3.4-3.4-3.7
	c-0.6-0.1-1-0.1-1.4-0.1l-0.2,0l-6.5,0c-3.4,0-6.7,0-10.1,0h-0.1c0,0,0,0,0,0c-0.1,0-0.3,0-0.3,0C11.6,80,9,77.2,8.6,74.1
	c-0.2-2.1-0.2-4.4-0.2-6.5c0-1.8,0.1-3.7,0.4-5.4c1.2-6.8,4.7-12.3,10.3-16.3c5.8-4.2,12.4-5.7,19.5-4.4c6.9,1.2,12.5,4.8,16.6,10.7
	c2.4,3.5,3.9,7.2,4.3,11c0.4,3.5,0.3,7.1,0.3,10.4c0,2.1-1,3.9-2.8,5.5c-0.9,0.8-2,1.3-3.3,1.7C52.2,81,51.4,82,51,82.7
	c-0.5,1-0.6,2.1-0.3,3.2c0.7,2.2,3,3.3,5.3,2.6c5.6-1.6,9.4-5.2,11.3-10.6c0.6-1.8,0.8-3.6,0.9-5.3l5.7,0c4,0,7.9,0,11.9,0
	c0.6,0,1.2,0,1.9-0.2c5.5-1.2,9.6-5.6,10.2-11.1C98.2,59.4,98.2,57.5,98.2,55.6z M64.4,21.6L64.4,21.6c0-4.4,3.4-7.8,7.7-7.8
	c2.1,0,4,0.8,5.5,2.3c1.4,1.5,2.2,3.4,2.2,5.4c0,4.7-3.8,7.6-7.4,7.7c-2.2,0.1-4.3-0.7-5.8-2.2C65.2,25.5,64.4,23.5,64.4,21.6z
	 M46.3,20.5c0,3.3-1.4,6.4-3.7,8.7c-2.3,2.2-5.4,3.5-8.6,3.4c-6.7-0.1-12-5.6-12-12.2c0.1-6.6,5.5-12,12.2-12l0.1,0
	C40.9,8.4,46.3,13.9,46.3,20.5z"/>
</svg>
