<?xml version="1.0" encoding="utf-8"?>
<!-- Generator: Adobe Illustrator 24.0.3, SVG Export Plug-In . SVG Version: 6.00 Build 0)  -->
<svg version="1.1" id="Layer_1" xmlns="http://www.w3.org/2000/svg" xmlns:xlink="http://www.w3.org/1999/xlink" x="0px" y="0px"
	 viewBox="0 0 126.4 107.5" style="enable-background:new 0 0 126.4 107.5;" xml:space="preserve">
<style type="text/css">
	.st0{fill:#FFFFFF;}
</style>
<g>
	<path class="st0" d="M70.9,17.1c-0.5-0.9-1.5-1.5-2.5-1.5H58.1c-1.1,0-2,0.6-2.5,1.5l-7.9,15.3c-0.5,0.9-0.4,1.9,0.1,2.8
		c0.5,0.8,1.4,1.4,2.4,1.4h26c1,0,1.9-0.5,2.4-1.4c0.5-0.8,0.6-1.9,0.1-2.8L70.9,17.1z M54.8,30.8l5-9.6h6.8l5,9.6H54.8z"/>
	<path class="st0" d="M126.3,89.7l-13-42.2c-0.1-0.3-0.3-0.6-0.5-0.9L97.1,26c-0.5-0.7-1.4-1.1-2.3-1.1h-7l-7.3-12.6
		C80.2,11.8,73.7,0,63.2,0S46.2,11.8,46,12.2l-7.3,12.6h-7c-0.9,0-1.7,0.4-2.3,1.1L13.4,47c-0.2,0.3-0.4,0.6-0.5,0.9L0.1,89.7
		c-0.3,0.9-0.1,1.8,0.4,2.5s1.4,1.1,2.3,1.1h17.9v11.2c0,1.6,1.3,2.8,2.8,2.8h23.3c1.6,0,2.8-1.3,2.8-2.8v-0.7h26.9v0.7
		c0,1.6,1.3,2.8,2.8,2.8h23.3c1.6,0,2.8-1.3,2.8-2.8V93.4h17.9c0.9,0,1.7-0.4,2.3-1.1C126.4,91.5,126.5,90.6,126.3,89.7z
		 M44.1,101.8H26.4v-27c0-2.8,2.3-5.1,5.1-5.1h7.4c2.8,0,5.1,2.3,5.1,5.1L44.1,101.8L44.1,101.8z M49.7,98.2v-4.8h26.9v4.8H49.7z
		 M100,101.8H82.3v-27c0-2.8,2.3-5.1,5.1-5.1h7.4c2.8,0,5.1,2.3,5.1,5.1L100,101.8L100,101.8z M105.7,87.7V74.8
		c0-6-4.8-10.8-10.8-10.8h-7.4c-6,0-10.8,4.8-10.8,10.8v12.9h-27V74.8c0-6-4.8-10.8-10.8-10.8h-7.4c-6,0-10.8,4.8-10.8,10.8v12.9
		h-14l11.5-37.6L33,30.5h7.3c1,0,1.9-0.5,2.5-1.4L50.9,15c0.1-0.1,5.3-9.3,12.3-9.3c7.1,0,12.3,9.2,12.3,9.4l8.2,14
		c0.5,0.9,1.4,1.4,2.5,1.4h7.3L108,49.7l11.7,38.1h-14V87.7z"/>
	<path class="st0" d="M66,56.1V40.5h-5.7v15.6c-3.1,1.2-5.4,4.2-5.4,7.7c0,4.5,3.7,8.2,8.2,8.2s8.2-3.7,8.2-8.2
		C71.4,60.3,69.2,57.3,66,56.1z M63.2,66.4c-1.4,0-2.6-1.2-2.6-2.6s1.1-2.6,2.6-2.6c1.5,0,2.6,1.2,2.6,2.6
		C65.8,65.2,64.6,66.4,63.2,66.4z"/>
</g>
</svg>
