<?xml version="1.0" encoding="utf-8"?>
<!-- Generator: Adobe Illustrator 24.0.3, SVG Export Plug-In . SVG Version: 6.00 Build 0)  -->
<svg version="1.1" id="Layer_1" xmlns="http://www.w3.org/2000/svg" xmlns:xlink="http://www.w3.org/1999/xlink" x="0px" y="0px"
	 viewBox="0 0 191.6 191.6" style="enable-background:new 0 0 191.6 191.6;" xml:space="preserve">
<style type="text/css">
	.st0{fill:#FFFFFF;}
</style>
<g>
	<path class="st0" d="M95.8,191.6C43,191.6,0,148.6,0,95.8S43,0,95.8,0s95.8,43,95.8,95.8S148.6,191.6,95.8,191.6z M95.8,5.7
		C46.1,5.7,5.7,46.1,5.7,95.8c0,49.7,40.4,90.1,90.1,90.1c49.7,0,90.1-40.4,90.1-90.1C185.9,46.1,145.5,5.7,95.8,5.7z"/>
	<g>
		<path class="st0" d="M77.1,44.7c0.7,0,1.3,0.4,1.7,1.3c-10.4,3.2-20.3,7.4-28.7,14.4C64,52.9,79,49.8,94.6,49.5c0.5,0,1.1,0,1.6,0
			c15.1,0,29.4,3.7,42.9,10.6c-7.9-6.5-17.1-10.5-26.7-13.6c0.6-1.2,1.4-1.7,2.6-1.7c0.2,0,0.4,0,0.6,0c10.4,1,19.7,4.8,28.2,10.7
			c0.8,0.6,1.6,1.4,2.1,2.3c5.5,10.9,9.4,22.3,12,34.2c1.3,5.9,2.1,11.8,2.9,17.8c0.5,3.6,0.4,7.2,0.6,10.8c0.1,1-0.3,1.8-0.9,2.5
			c-4.9,6.4-11.3,10.5-18.8,13.2c-4.4,1.5-8.9,2.2-13.5,2.5c0,0-0.1,0-0.1,0c-0.5,0-1.1-0.2-1.4-0.6c-2.3-2.7-4.4-5.4-6.8-8.3
			c7.9-2.5,14.8-6.4,19.9-13.1c-14.4,8.3-28.8,12.3-43.1,12.3c-14.6,0-29.1-4.1-43.7-12.2c4.8,6.4,11.4,10.2,19.1,12.7
			c-0.7,1-1.4,1.8-2,2.6c-1.5,1.9-3.1,3.8-4.6,5.7c-0.4,0.6-0.9,0.9-1.7,0.9c-0.1,0-0.1,0-0.2,0c-5.7-0.4-11.2-1.5-16.5-3.7
			c-6-2.6-11.2-6.3-15.3-11.5c-1-1.2-1.3-2.5-1.3-4c0.5-14.9,3.2-29.4,8-43.6c2.1-6.2,4.5-12.4,7.5-18.2c0.4-0.8,1-1.6,1.7-2.1
			c6.8-4.8,14.2-8.3,22.4-10c2.2-0.4,4.5-0.6,6.8-1C76.9,44.7,77,44.7,77.1,44.7 M77.1,39.1c-0.4,0-0.8,0-1.3,0.1
			c-0.8,0.1-1.6,0.2-2.4,0.3c-1.5,0.2-3,0.4-4.6,0.7c-8.5,1.7-16.8,5.4-24.6,10.9c-1.4,1-2.7,2.5-3.5,4.1C38,60.7,35.4,67,33,74.2
			c-4.9,14.5-7.7,29.7-8.3,45.2c-0.1,3,0.7,5.5,2.5,7.8c4.6,5.7,10.5,10.1,17.5,13.2c5.5,2.3,11.5,3.7,18.4,4.1c0.2,0,0.4,0,0.5,0
			c1.7,0,4.1-0.5,6.1-3c0.9-1.1,1.8-2.3,2.7-3.4c0.6-0.7,1.2-1.5,1.8-2.2c0.5-0.6,0.9-1.2,1.4-1.8l0.7-0.9l0.5-0.6
			c6.6,1.6,13.2,2.3,19.7,2.3c6.1,0,12.2-0.7,18.3-2l0.6,0.7c0.6,0.7,1.1,1.4,1.7,2.1c1.8,2.2,3.4,4.2,5.2,6.3
			c1.6,1.9,4,2.6,5.7,2.6c0.2,0,0.3,0,0.5,0c4.1-0.3,9.6-0.9,15-2.8c9-3.2,16.2-8.2,21.4-15.1c1.5-1.9,2.2-4,2-6.3
			c-0.1-1.1-0.1-2.3-0.1-3.5c-0.1-2.5-0.2-5.1-0.5-7.7c-0.9-6.8-1.7-12.5-3-18.2c-2.7-12.5-6.9-24.5-12.4-35.5
			c-0.9-1.7-2.2-3.3-3.9-4.4c-9.6-6.8-20-10.7-30.9-11.7c-0.4,0-0.7-0.1-1.1-0.1c-3.4,0-6.1,1.7-7.7,4.8l-0.3,0.5
			c-3.6-0.4-7.2-0.6-10.8-0.6c-0.6,0-1.2,0-1.7,0c-3.5,0.1-6.8,0.3-10.1,0.6l-0.4-0.9C82.6,40.7,80.1,39.1,77.1,39.1L77.1,39.1z"/>
		<path class="st0" d="M74.8,113.5L74.8,113.5c-6.6,0-12.1-4.5-13.8-11.3c-1.6-6.3,0-11.8,4.6-15.9c4.2-3.8,9.5-4.7,14.9-2.3
			c5.5,2.4,8.6,6.8,8.7,12.4c0.1,4.8-1,8.6-3.5,11.7C83,111.6,79.3,113.5,74.8,113.5L74.8,113.5z M74.7,88.4c-1.9,0-3.6,0.7-5.2,2.2
			c-3,2.7-4,6.1-2.9,10.3c1.1,4.2,4.4,7,8.3,7c2.7,0,4.8-1.1,6.6-3.3c1.6-2,2.3-4.6,2.2-8c-0.1-3.4-1.8-5.8-5.3-7.3
			C77.1,88.6,75.8,88.4,74.7,88.4z"/>
		<path class="st0" d="M115.6,113.5L115.6,113.5c-4.5-0.1-8.4-2.2-11.2-6c-4.3-5.9-3.9-14.8,1.1-20.1c3-3.2,7.1-4.9,11.2-4.6
			c4.2,0.3,8,2.5,10.5,6.1c2.4,3.5,3.4,7.9,2.6,12.2c-0.7,4.1-3,7.7-6.3,10C121.3,112.7,118.7,113.5,115.6,113.5L115.6,113.5z
			 M115.8,88.4c-2.3,0-4.5,1-6.2,2.8c-3.1,3.4-3.4,9.2-0.7,12.9c1.7,2.4,3.9,3.6,6.6,3.7c1.9,0,3.4-0.5,4.8-1.4
			c2.1-1.4,3.5-3.7,3.9-6.3c0.5-2.8-0.1-5.7-1.7-8c-1.5-2.2-3.7-3.5-6.2-3.7C116.2,88.4,116,88.4,115.8,88.4z"/>
	</g>
</g>
</svg>
