<?xml version="1.0" encoding="utf-8"?>
<!-- Generator: Adobe Illustrator 24.0.3, SVG Export Plug-In . SVG Version: 6.00 Build 0)  -->
<svg version="1.1" id="Layer_1" xmlns="http://www.w3.org/2000/svg" xmlns:xlink="http://www.w3.org/1999/xlink" x="0px" y="0px"
	 viewBox="0 0 582.6 227" style="enable-background:new 0 0 582.6 227;" xml:space="preserve">
<style type="text/css">
	.st0{fill:#212121;}
	.st1{fill:url(#SVGID_1_);}
	.st2{fill:url(#SVGID_2_);}
	.st3{fill:url(#SVGID_3_);}
	.st4{fill:url(#SVGID_4_);}
	.st5{fill:url(#SVGID_5_);}
	.st6{fill:url(#SVGID_6_);}
	.st7{fill:url(#SVGID_7_);}
	.st8{fill:url(#SVGID_8_);}
	.st9{fill:url(#SVGID_9_);}
	.st10{fill:url(#SVGID_10_);}
	.st11{fill:url(#SVGID_11_);}
	.st12{fill:url(#SVGID_12_);}
	.st13{fill:url(#SVGID_13_);}
	.st14{fill-rule:evenodd;clip-rule:evenodd;fill:#E0E0E0;}
</style>
<g>
	<path class="st0" d="M375.9,209.9l-40.4,0c-1.6,0-2,0-2,0c-1.7-0.1-2.2-0.7-2.4-0.9c-0.3-0.3-0.6-0.8-0.5-2
		c0.1-0.5,0.2-1.1,0.3-1.7c3.1-15.9,5.8-29.7,8.1-41.4c0.3-1.4,0-2.6-0.7-3.5c-0.7-0.8-1.8-1.2-3.1-1.2c-5.1,0.1-9.2,0.1-12.3,0
		c-1.6,0-2.7,0.6-3.2,1.2c-0.7,0.6-1.1,1.5-1.3,2.6c-1.9,10-4.9,25-8.8,45c-0.5,2.6-0.6,3.4-0.7,3.8c-0.2,1.6-0.2,3.2,0.1,4.5
		c0.6,3.1,2.1,5.7,4.5,7.7c2.4,1.9,5.2,2.9,8.4,2.9c1.9,0,10.4,0,26,0c14.6,0,23.3,0,26.2,0c0,0,0.1,0,0.1,0c1.1,0,2.1-0.3,2.9-0.9
		c0.8-0.7,1.3-1.6,1.5-2.8c0.2-1.1,0.7-3.9,1.6-8.3c0.2-1.3,0.4-2.7-0.6-3.8C378.6,210,377.2,209.9,375.9,209.9z"/>
	<path class="st0" d="M299.4,161.3c-1.6-1.3-3.7-2-6.1-2h-34.4c-18.1,0-29.4,0-34.5,0c-1.3,0-2.3,0.3-3.1,0.9
		c-0.9,0.7-1.4,1.7-1.6,3c-0.5,3-1,5.7-1.6,8.1c-0.4,1.7-0.1,3.1,0.8,3.9c1,1,2.3,1.1,3.3,1.1c5.2,0,16.8,0,35.5,0
		c10.5,0,16.8,0,18.9,0c1,0,1.7,0.2,2.2,0.7c0.3,0.3,0.7,0.7,0.7,1.8c0,1.4-0.3,2.7-0.9,3.7c-0.5,0.8-1.1,1.3-1.8,1.6
		c-0.8,0.3-1.8,0.5-3,0.5c-20,0-38.3,0-54.3,0c-1.2,0-2.1,0.2-2.9,0.8c-0.9,0.6-1.5,1.6-1.8,3c-1.6,8.5-3.8,19.9-6.6,33.9
		c-0.1,0.5-0.4,2,0.5,3.2c0.5,0.7,1.4,1.5,3.2,1.5c0,0,0.1,0,0.1,0c4.2,0,8.4,0,12.6,0c1.6,0,2.5-0.6,3-1.1c0.6-0.6,1-1.4,1.2-2.5
		c0.2-1.3,1.6-8.3,4.1-21.1c0.1-0.4,0.1-0.5,0.2-0.6c0.1,0,0.2-0.1,0.5-0.1c20.3,0,32.5,0,36.5,0c1.5,0,2,0.4,2.1,0.4
		c0.3,0.2,0.6,0.9,0.8,2.2c0.6,4.2,1.5,10.6,2.6,19.1c0.1,1,0.5,1.8,1,2.4c0.5,0.5,1.4,1.1,2.9,1.1c5.5,0,10.2,0,13.8,0
		c2.2,0.1,3.1-1.1,3.5-1.8c0.6-1.1,0.5-2.2,0.3-2.9c-0.1-0.4-0.2-1-0.2-1.6c-0.1-1-0.2-1.7-0.2-1.9l-1.2-8.4
		c-0.5-3.3-0.9-6.2-1.3-8.4c-0.3-1.9-1-3.5-2.2-4.5c-0.4-0.3-0.8-0.6-1.2-0.9c4.3-1.8,7-5.1,7.9-9.4c1.5-7.7,2.5-12.8,3-15
		c0.2-1.1,0.3-1.8,0.4-2l0-0.2c0.2-1,0.2-1.9,0.2-2.8C302.2,164.7,301.2,162.7,299.4,161.3z"/>
	<path class="st0" d="M463.6,162.2c-2.4-2-5.2-3-8.6-3c-1.9,0-10.6,0-25.8,0c-13.7,0-22.2,0-26.1,0c-1.3,0-2.3,0.3-3.1,0.9
		c-0.9,0.7-1.4,1.7-1.6,3.1c-0.1,1-0.4,2.3-0.7,3.8c-0.2,0.9-0.5,2.2-0.8,4c-0.3,1.3-0.5,2.7,0.5,3.9c1,1.2,2.4,1.3,3.7,1.3h41.3
		c0.6,0,1,0,1.1,0c1,0.1,1.8,0.3,2.2,0.8c0.2,0.2,0.6,0.5,0.5,1.8c-0.1,0.9-0.2,1.9-0.4,3c-0.1,0.6-0.3,1.6-0.6,3.1
		c-1.6,8.4-3,15.6-4.2,21.2c-0.5,2.3-1.6,3.4-3.9,3.7c-0.7,0.1-1.5,0.1-2.3,0.1l-24.9,0l4.1-20.5c0.1-0.5,0.4-2-0.5-3.2
		c-0.5-0.8-1.5-1.7-3.6-1.6c-1.5,0-3.4,0-5.6,0c-2.5,0-4.4,0-5.7,0c-1.7,0-2.9,0.1-3.8,0.9c-0.9,0.8-1.3,2-1.7,3.6l-6.5,32.9
		c-0.1,0.6-0.5,2.3,0.6,3.6c1.1,1.4,2.9,1.4,3.5,1.4c7.5,0,24.6,0,50.9,0c4.4,0,8.5-1.6,12.3-4.7c3.7-3.1,6.1-6.9,6.9-11.2
		c2.9-14.6,5-25.5,6.5-32.8c0.6-3,0.7-3.5,0.7-3.7c0.2-1.6,0.2-3.1-0.1-4.5C467.5,166.8,466,164.2,463.6,162.2z"/>
	<path class="st0" d="M561.6,160.6c-1.1-1.4-3-1.4-3.6-1.4c-3.8,0-14.9,0-34.1,0h-33.4c-3.4,0-6.3,1-8.6,2.9
		c-2.4,1.9-3.9,4.5-4.5,7.8c-0.9,4.6-2.2,11.6-4,20.7c-0.6,3.3-0.1,5.9,1.5,7.9c1.6,2,4.2,3,7.5,3h38.8c4.6,0,7.1,0,7.7,0
		c0.7,0,1.3,0.2,1.7,0.5c0.4,0.3,0.7,0.7,0.9,1.3c0.3,1.2,0.2,2.3-0.4,3.5c-0.6,1.2-1.4,2-2.6,2.5c-0.5,0.2-1.2,0.4-1.9,0.4
		c-0.3,0-1,0.1-2.6,0.1h-24.2c-9.7,0-17.7,0-24.2,0c-1.3,0-2.3,0.3-3.1,1c-0.8,0.7-1.4,1.6-1.6,2.9c-0.6,3.6-1.1,6.4-1.6,8.2
		c-0.4,1.7-0.1,3,0.8,4c1,1,2.4,1.1,3.3,1.1c9.4,0,30.8,0,63.7,0c3.1,0,5.8-0.9,8.1-2.7c2.3-1.8,3.8-4.3,4.5-7.3
		c1.3-6,2.8-13.5,4.4-22.4c0.4-2.4-0.1-4.7-1.5-6.6c-1.4-1.8-3.4-3-5.8-3.4c-0.5-0.1-1.1-0.1-1.7-0.1h-1.4c-24.6,0-40.6,0-48.7,0
		c0.4-1.8,0.8-4,1.2-6.7c0.1-0.9,0.3-1.4,0.4-1.5c0.2-0.1,0.6-0.2,1.5-0.2c28.6,0,47.9,0,57.4,0c1.4,0,2.5-0.4,3.3-1.1
		c0.8-0.7,1.3-1.7,1.5-3c0.6-3.5,1.1-6.1,1.5-7.8C562.4,163.8,562.8,162,561.6,160.6z"/>
	<path class="st0" d="M338.9,127.2c1.4,2.4,3.3,4.1,5.6,5.2c2,0.9,4.4,1.4,7,1.4l51.2,0c0.1,0,0.1,0,0.2,0c1.2,0,2.1-0.5,2.5-0.9
		c0.7-0.6,1.2-1.4,1.4-2.5c0.7-3.7,1.3-6.6,1.7-8.7c0.1-0.5,0.5-2.2-0.5-3.5c-0.7-1-1.9-1.5-3.5-1.4c-2.3,0-12.8,0-31,0h-11.2
		c-1.3,0-2.2-0.3-2.9-1c-0.6-0.5-0.8-1.1-0.7-2c0-0.1,0.1-0.6,0.3-1.5c0.3-1.1,0.4-1.8,0.5-2.3c0.1-0.9,0.3-1.3,0.4-1.5
		c0.2-0.1,0.6-0.1,1.5-0.1c21.9,0,35.5,0,41.6,0c1.2,0,2.2-0.3,3-0.9c0.6-0.5,1.4-1.3,1.6-2.9c0.6-3.1,1.1-5.7,1.5-7.8
		c0.3-1.3,0.7-3.3-0.7-4.5c-0.9-0.9-2.1-1-3.8-1c-15.2,0-29,0-41.3,0c0.1-0.3,0.1-0.6,0.2-0.9l0.5-2.7c0.4-1.8,1-3.1,1.8-3.8
		c0.8-0.6,2.2-1,4-1c21,0,35.3,0,42.3,0c1.4,0,2.5-0.4,3.4-1.2c0.7-0.7,1.2-1.6,1.4-2.9c0.5-3.1,1-5.7,1.5-7.8
		c0.6-2.2-0.1-3.4-0.7-4c-1-1.1-2.4-1.2-3.4-1.2c-3.8,0-12.5,0-25.8,0h-24.8c-4.4,0-8.5,1.5-12.2,4.4c-3.7,2.9-6.1,6.6-7,11
		c-1,4.7-2.2,10.7-3.6,17.9c-2.2,11.3-3.4,17.3-3.5,17.9C336.7,120.9,337.2,124.3,338.9,127.2z"/>
	<path class="st0" d="M243.3,65.2c1.5,0.4,3.1,0.6,4.8,0.7c2.5,0.2,5.2,0.1,8.2-0.3c2-0.3,4.6-0.7,7.8-1.3c0.9-0.2,1.7-0.2,2.4,0
		c0.7,0.2,1.4,0.6,2.2,1.3c4.1,3.7,8.6,6.2,13.4,7.5c2.7,0.7,5.4,1.1,8.2,1.1c2.4,0,4.8-0.3,7.2-0.8c6.9-1.5,12.8-5.1,17.4-10.7
		c4.6-5.6,7-12,7.3-19.1c0.1-1.9,0.3-2.7,0.4-3c0.2-0.7,0.6-1.2,1.2-1.6c1.3-0.9,2.9-2.1,4.6-3.4c1-0.8,2.4-1.9,4.4-3.5
		c3.1-2.5,5.4-5.2,6.8-8.3l0,0c0.9-1.9,0.6-3.5,0.3-4.4c-0.4-0.9-1.2-2.2-3.2-3c-1.6-0.6-3.4-1-5.6-1.1c-4.9-0.2-10.3,0.4-16,1.8
		c-0.8,0.2-1.5,0.2-2.2,0.1c-0.6-0.2-1.3-0.5-1.9-1.1c-6.8-6-14.4-9-22.5-8.9l-2,0c-0.9,0-1.7,0.1-2.4,0.2
		c-7.9,1.3-14.5,4.9-19.5,11c-5,5.9-7.5,13-7.7,21.1c0,1.2-0.5,2.1-1.5,2.9c-3.9,3-6.8,5.3-8.7,6.8c-1.6,1.3-2.9,2.5-3.9,3.5
		c-1.4,1.5-2.5,3.1-3.2,4.8c-0.9,2.1-0.6,3.8-0.1,4.8C240,63.2,241,64.6,243.3,65.2z"/>
	<path class="st0" d="M463.1,133.8c0.7,0,2.9,0,6.4,0c2.7,0,5,0,6.7-0.1c1.6-0.1,2.5-0.8,3.1-1.5c0.4-0.6,0.7-1.2,0.9-2.1l2.2-11.1
		c2.5-12.7,4.4-22.3,5.7-28.7c0.2-0.9,0.5-1.2,0.6-1.2c0.1-0.1,0.4-0.3,1.4-0.2c0.1,0,0.2,0,0.5,0.2c0.1,0.1,0.4,0.4,0.9,1.2
		l22.2,34.6c1.8,2.7,3.8,4.9,6,6.3c2.5,1.7,5.4,2.6,8.7,2.7c0.2,0,0.4,0,0.7,0c0.4,0,0.9,0,1.3-0.1c0.3-0.1,0.8-0.2,1.5-0.3
		c5-0.9,9.4-3.2,13.1-6.7c3.7-3.5,6-7.8,7-12.8c1-4.9,1.7-8.5,2.2-10.9l6.4-32.1c0.3-1.4,0.1-2.6-0.6-3.5c-0.8-1-1.9-1.5-3.5-1.4
		c-4.2,0.1-8.3,0.1-12,0c-1.3,0-2.4,0.3-3.2,1l-0.1,0.1c-0.7,0.6-1.1,1.5-1.3,2.6c-1.3,6.9-2.4,12.6-3.3,17l-4.5,22.6
		c-0.3,1.3-0.7,1.4-1.1,1.5c-0.3,0.1-0.8,0.2-1.5-1c-0.5-0.8-1.2-1.9-2-3.1c-1.1-1.7-1.8-2.7-2-3l-19.4-29.5c-1.9-2.8-4-4.9-6.4-6.3
		l0,0c-2.7-1.5-5.8-2.1-9.2-1.9c-5.2,0.4-9.9,2.5-14.2,6.3c-4.2,3.8-6.9,8.2-7.9,13.3c-0.3,1.5-2.5,12.8-6.8,33.9
		c-1.1,5.3-1.6,8.3-1.8,9.2c-0.2,1-0.3,1.5-0.2,2.1C459.6,132.4,460.8,133.9,463.1,133.8z"/>
	<path class="st0" d="M115.6,159.2l-4.4,0c-2.9,0-5.1,0-6.5,0c-2.5,0-4.7,0-6.4,0c-1.2,0-2.2,0.2-3,0.8c-0.7,0.5-1.3,1.2-1.9,2.2
		c-1.7,3.5-5,10.4-9.9,20.7c-4.1,8.6-7.5,15.5-9.9,20.7c-0.2,0.5-0.6,0.9-1.1,1.4c0,0-0.1,0.1-0.2,0.2c-0.1-0.2-0.1-0.3-0.1-0.3
		c0,0,0,0,0,0l-1.7-17.1c-0.6-6.6-1.3-14.8-2.1-24.3c-0.1-1.3-0.5-2.2-1.2-3c-0.8-0.8-1.9-1.3-3.4-1.2c-5,0.1-9,0.1-12.1,0
		c-1.5-0.1-2.7,0.2-3.7,0.9c-0.9,0.6-1.7,1.6-2.3,2.8c-2,4.2-5.2,10.9-9.5,19.8c-4.2,8.6-7.3,15.2-9.5,19.8c-0.4,0.9-1,1.7-1.6,2.4
		c-0.3-0.7-0.5-1.3-0.5-1.8c-0.2-3.2-0.8-9.2-1.5-17.7c-0.9-9.7-1.6-17.1-2-21.9c-0.1-1.3-0.6-2.3-1.3-3c-0.8-0.7-1.8-1-3.1-1
		c-5.1,0.1-9.1,0.1-12.1,0c-2,0-3,0.8-3.6,1.5c-1,1.2-0.8,2.8-0.7,3.3c0.2,2.1,0.5,5.4,0.9,9.7l2,20.9c0.9,9.2,1.5,15.3,1.8,18.4
		c0.7,6.2,4.2,10.6,10.3,12.7c2,0.7,4,1,6.2,1c2.2,0,4.6-0.4,6.9-1.2c4.5-1.5,8.2-4.1,11-7.8c1.5-2,3.1-4.6,4.7-7.7
		c1.6-3.4,2.8-5.9,3.7-7.6c1.3-2.9,2.4-5,3.1-6.5c0.2,1.3,0.4,2.8,0.5,4.3c0.2,2.4,0.5,6.1,0.8,11.1c0.4,5.2,2.4,9.3,6,12.1
		c3.4,2.6,7.5,3.7,12.3,3.1c4.5-0.6,8.4-2,11.8-4.4c3.4-2.4,6.1-5.7,8-9.8l22-45.3c0.3-0.6,0.9-2,1.9-4.1L115.6,159.2z M51,164.9
		C51,164.9,51,164.9,51,164.9L51,164.9L51,164.9z"/>
	<path class="st0" d="M286.4,89.7c-4.1,0-8.2,0-12.3,0c-1.1,0-2.1,0.2-2.8,0.8c-0.9,0.6-1.4,1.5-1.7,2.8c-0.2,0.9-1.7,8.1-4.7,21.9
		l-2.9,13.5c-0.3,1.4-0.4,2.8,0.6,4c1,1.1,2.4,1.2,3.7,1.2h5.7c0.7,0,1.7,0,3,0c1.1,0,2,0,2.8,0.1c0.1,0,0.2,0,0.4,0
		c1.1,0,2.1-0.3,2.9-0.9c0.8-0.6,1.3-1.6,1.6-2.8c3-14.1,5.6-26.1,7.7-35.7c0.4-2-0.2-3.1-0.8-3.7C288.5,89.6,286.9,89.6,286.4,89.7
		z"/>
	<path class="st0" d="M143.2,129.7c2.3,2.3,4.9,3.6,7.9,3.8c2.5,0.2,5,0.3,7.3,0.3c2.4,0,9.7,0,21.8,0c13.8,0,22,0,24.8,0
		c1,0,1.8-0.2,2.6-0.6c0.7-0.4,1.6-1.3,1.9-3c0.1-0.8,0.7-3.7,1.6-8.4c0.2-1,0.5-2.6-0.5-3.8c-1-1.3-2.7-1.3-3.7-1.3h-36.1
		c-2,0-3.1,0-3.5,0c-1.3,0-2.4-0.1-3.3-0.2c-0.8-0.1-1.3-0.3-1.6-0.5c-0.4-0.3-0.6-1-0.7-1.5c0-0.2-0.1-0.5,0-1
		c0-0.2,0.1-0.8,0.3-1.7c1.7-8.7,4.4-22.4,8.1-41c0.3-1.4,0-2.6-0.7-3.4c-0.5-0.7-1.5-1.5-3.4-1.4c-4.2,0.1-8.3,0.1-12,0
		c-1.3,0-2.4,0.3-3.2,1l-0.1,0.1c-0.7,0.6-1.2,1.5-1.4,2.7c-0.7,3.6-2,10.3-4,20.1c-1.7,8.5-3,15.2-4,20.1c-0.2,1.2-0.6,3-1.1,5.5
		c-0.4,2.3-0.6,4.4-0.5,6.2C139.8,124.8,141,127.5,143.2,129.7z"/>
	<path class="st0" d="M3.3,133l0.1,0.1c0.9,0.7,2,0.8,2.7,0.8c6.3,0,10.5,0,12.7,0c1.2,0,2.2-0.4,2.9-1c0.6-0.6,1-1.4,1.2-2.5
		c0.3-1.6,0.8-4.2,1.5-8c0.6-3,1.1-5.4,1.4-7.3c6.8,0,16.8,0.1,30,0.1c1.2,0,2.2-0.3,2.9-0.9c0.9-0.6,1.4-1.6,1.6-2.9
		c0.3-1.7,0.8-4.4,1.5-8.1c0.3-1.3,0.4-2.8-0.5-3.9l-0.1-0.2c-1-1-2.3-1.1-3.7-1.1c-1.5,0-6.6,0-15.2,0c-5.2,0-9.6,0-13.2-0.1
		c0.4-2,1.2-5.7,2.2-11.1c0.3-1.2,0.7-2.1,1.5-2.8c0.8-0.6,1.7-0.9,3-0.9c15,0,26.5,0,34,0c1.7,0,2.1,0.6,2.3,0.8
		c0.3,0.4,0.7,1,0.4,2.5c-2.8,14.2-5.6,28.5-8.4,42.6c-0.1,0.5-0.4,2.1,0.6,3.4c0.7,0.9,1.9,1.4,3.4,1.4c4.6-0.1,8.7,0,12,0
		c1.3,0,2.4-0.3,3.2-1l0.1-0.1c0.7-0.7,1.2-1.6,1.4-2.7c3.5-18.1,6.7-34.2,9.4-47.7c0.9-4.4,0-8.3-2.5-11.5
		c-2.6-3.2-6.2-4.8-10.7-4.8H30.8c-4.3,0-8.4,1.5-12.2,4.6c-3.7,3-6.1,6.7-6.9,11c-0.9,4.6-2.5,12.5-4.7,23.8
		c-2,10.1-3.6,18-4.7,23.8C1.9,131.2,2.6,132.4,3.3,133z"/>
	<path class="st0" d="M208.4,167.8c-1.1-2.7-2.8-4.9-5.2-6.4c-2.3-1.5-5-2.2-8-2.2l-55.3,0c-4.3,0-8.3,1.5-12,4.4
		c-3.8,3-6.1,6.6-7,10.7c-0.9,4.3-2.1,10.1-3.5,17.4c-1.7,8.6-2.8,14.4-3.4,17.3c-0.4,1.8-0.6,3.3-0.6,4.5c0,1.8,0.3,3.5,0.9,5.1
		c1,2.6,2.7,4.6,5,6.1c2.3,1.5,4.9,2.2,7.9,2.2c30.4,0,48.6,0,54.7,0c2.9,0,5.5-0.5,7.7-1.5c6.8-3,10.9-7.8,12.3-14.2
		c1.3-6.5,3.6-18,6.8-34.1c0.3-1.7,0.5-3.2,0.5-4.4C209.3,171,209,169.3,208.4,167.8z M187.3,180c-1.9,9.8-3.6,18.5-5,25.8
		c-0.3,1.4-0.8,2.4-1.6,3.1c-0.8,0.7-1.9,1-3.3,1c-11.9,0-24.9,0-38.6,0c-1.2,0-1.8-0.2-2.1-0.3c-0.4-0.2-0.8-0.5-1-0.9
		c-0.2-0.3-0.3-0.6-0.3-1l0-0.1c0-0.3,0-0.8,0.1-1.6c1.7-9.1,3.4-17.6,5-25.3c0.3-1.7,0.9-2.8,1.7-3.4c0.8-0.6,2.1-1,3.8-1l19.1,0
		c10.8,0,17.2,0,19.4,0c2.4,0,2.7,1,2.9,1.6C187.4,178.4,187.5,179.1,187.3,180z"/>
	<linearGradient id="SVGID_1_" gradientUnits="userSpaceOnUse" x1="345.4628" y1="203.9524" x2="345.4628" y2="-36.8521">
		<stop  offset="0.1296" style="stop-color:#FFFC87"/>
		<stop  offset="0.2255" style="stop-color:#FFFFFF"/>
		<stop  offset="0.3162" style="stop-color:#55FFFC"/>
		<stop  offset="0.3903" style="stop-color:#F6EDCB"/>
		<stop  offset="0.4313" style="stop-color:#7694B1"/>
		<stop  offset="0.4709" style="stop-color:#ECF8FF"/>
		<stop  offset="1" style="stop-color:#D4FFFF"/>
	</linearGradient>
	<path class="st1" d="M376.9,203.9l-40.4,0c-1.6,0-2,0-2,0c-1.7-0.1-2.2-0.7-2.4-0.9c-0.3-0.3-0.6-0.8-0.5-2
		c0.1-0.5,0.2-1.1,0.3-1.7c3.1-15.9,5.8-29.7,8.1-41.4c0.3-1.4,0-2.6-0.7-3.5c-0.7-0.8-1.8-1.2-3.1-1.2c-5.1,0.1-9.2,0.1-12.3,0
		c-1.6,0-2.7,0.6-3.2,1.2c-0.7,0.6-1.1,1.5-1.3,2.6c-1.9,10-4.9,25-8.8,45c-0.5,2.6-0.6,3.4-0.7,3.8c-0.2,1.6-0.2,3.2,0.1,4.5
		c0.6,3.1,2.1,5.7,4.5,7.7c2.4,1.9,5.2,2.9,8.4,2.9c1.9,0,10.4,0,26,0c14.6,0,23.3,0,26.2,0c0,0,0.1,0,0.1,0c1.1,0,2.1-0.3,2.9-0.9
		c0.8-0.7,1.3-1.6,1.5-2.8c0.2-1.1,0.7-3.9,1.6-8.3c0.2-1.3,0.4-2.7-0.6-3.8C379.6,204,378.2,203.9,376.9,203.9z"/>
	<linearGradient id="SVGID_2_" gradientUnits="userSpaceOnUse" x1="256.1867" y1="203.9524" x2="256.1867" y2="-36.8521">
		<stop  offset="0.1296" style="stop-color:#FFFC87"/>
		<stop  offset="0.2255" style="stop-color:#FFFFFF"/>
		<stop  offset="0.3162" style="stop-color:#55FFFC"/>
		<stop  offset="0.3903" style="stop-color:#F6EDCB"/>
		<stop  offset="0.4313" style="stop-color:#7694B1"/>
		<stop  offset="0.4709" style="stop-color:#ECF8FF"/>
		<stop  offset="1" style="stop-color:#D4FFFF"/>
	</linearGradient>
	<path class="st2" d="M300.4,155.3c-1.6-1.3-3.7-2-6.1-2h-34.4c-18.1,0-29.4,0-34.5,0c-1.3,0-2.3,0.3-3.1,0.9
		c-0.9,0.7-1.4,1.7-1.6,3c-0.5,3-1,5.7-1.6,8.1c-0.4,1.7-0.1,3.1,0.8,3.9c1,1,2.3,1.1,3.3,1.1c5.2,0,16.8,0,35.5,0
		c10.5,0,16.8,0,18.9,0c1,0,1.7,0.2,2.2,0.7c0.3,0.3,0.7,0.7,0.7,1.8c0,1.4-0.3,2.7-0.9,3.7c-0.5,0.8-1.1,1.3-1.8,1.6
		c-0.8,0.3-1.8,0.5-3,0.5c-20,0-38.3,0-54.3,0c-1.2,0-2.1,0.2-2.9,0.8c-0.9,0.6-1.5,1.6-1.8,3c-1.6,8.5-3.8,19.9-6.6,33.9
		c-0.1,0.5-0.4,2,0.5,3.2c0.5,0.7,1.4,1.5,3.2,1.5c0,0,0.1,0,0.1,0c4.2,0,8.4,0,12.6,0c1.6,0,2.5-0.6,3-1.1c0.6-0.6,1-1.4,1.2-2.5
		c0.2-1.3,1.6-8.3,4.1-21.1c0.1-0.4,0.1-0.5,0.2-0.6c0.1,0,0.2-0.1,0.5-0.1c20.3,0,32.5,0,36.5,0c1.5,0,2,0.4,2.1,0.4
		c0.3,0.2,0.6,0.9,0.8,2.2c0.6,4.2,1.5,10.6,2.6,19.1c0.1,1,0.5,1.8,1,2.4c0.5,0.5,1.4,1.1,2.9,1.1c5.5,0,10.2,0,13.8,0
		c2.2,0.1,3.1-1.1,3.5-1.8c0.6-1.1,0.5-2.2,0.3-2.9c-0.1-0.4-0.2-1-0.2-1.6c-0.1-1-0.2-1.7-0.2-1.9l-1.2-8.4
		c-0.5-3.3-0.9-6.2-1.3-8.4c-0.3-1.9-1-3.5-2.2-4.5c-0.4-0.3-0.8-0.6-1.2-0.9c4.3-1.8,7-5.1,7.9-9.4c1.5-7.7,2.5-12.8,3-15
		c0.2-1.1,0.3-1.8,0.4-2l0-0.2c0.2-1,0.2-1.9,0.2-2.8C303.2,158.7,302.2,156.7,300.4,155.3z"/>
	<linearGradient id="SVGID_3_" gradientUnits="userSpaceOnUse" x1="428.5799" y1="203.9524" x2="428.5799" y2="-36.8521">
		<stop  offset="0.1296" style="stop-color:#FFFC87"/>
		<stop  offset="0.2255" style="stop-color:#FFFFFF"/>
		<stop  offset="0.3162" style="stop-color:#55FFFC"/>
		<stop  offset="0.3903" style="stop-color:#F6EDCB"/>
		<stop  offset="0.4313" style="stop-color:#7694B1"/>
		<stop  offset="0.4709" style="stop-color:#ECF8FF"/>
		<stop  offset="1" style="stop-color:#D4FFFF"/>
	</linearGradient>
	<path class="st3" d="M464.6,156.2c-2.4-2-5.2-3-8.6-3c-1.9,0-10.6,0-25.8,0c-13.7,0-22.2,0-26.1,0c-1.3,0-2.3,0.3-3.1,0.9
		c-0.9,0.7-1.4,1.7-1.6,3.1c-0.1,1-0.4,2.3-0.7,3.8c-0.2,0.9-0.5,2.2-0.8,4c-0.3,1.3-0.5,2.7,0.5,3.9c1,1.2,2.4,1.3,3.7,1.3h41.3
		c0.6,0,1,0,1.1,0c1,0.1,1.8,0.3,2.2,0.8c0.2,0.2,0.6,0.5,0.5,1.8c-0.1,0.9-0.2,1.9-0.4,3c-0.1,0.6-0.3,1.6-0.6,3.1
		c-1.6,8.4-3,15.6-4.2,21.2c-0.5,2.3-1.6,3.4-3.9,3.7c-0.7,0.1-1.5,0.1-2.3,0.1l-24.9,0l4.1-20.5c0.1-0.5,0.4-2-0.5-3.2
		c-0.5-0.8-1.5-1.7-3.6-1.6c-1.5,0-3.4,0-5.6,0c-2.5,0-4.4,0-5.7,0c-1.7,0-2.9,0.1-3.8,0.9c-0.9,0.8-1.3,2-1.7,3.6l-6.5,32.9
		c-0.1,0.6-0.5,2.3,0.6,3.6c1.1,1.4,2.9,1.4,3.5,1.4c7.5,0,24.6,0,50.9,0c4.4,0,8.5-1.6,12.3-4.7c3.7-3.1,6.1-6.9,6.9-11.2
		c2.9-14.6,5-25.5,6.5-32.8c0.6-3,0.7-3.5,0.7-3.7c0.2-1.6,0.2-3.1-0.1-4.5C468.5,160.8,467,158.2,464.6,156.2z"/>
	<linearGradient id="SVGID_4_" gradientUnits="userSpaceOnUse" x1="516.9074" y1="203.9524" x2="516.9074" y2="-36.8521">
		<stop  offset="0.1296" style="stop-color:#FFFC87"/>
		<stop  offset="0.2255" style="stop-color:#FFFFFF"/>
		<stop  offset="0.3162" style="stop-color:#55FFFC"/>
		<stop  offset="0.3903" style="stop-color:#F6EDCB"/>
		<stop  offset="0.4313" style="stop-color:#7694B1"/>
		<stop  offset="0.4709" style="stop-color:#ECF8FF"/>
		<stop  offset="1" style="stop-color:#D4FFFF"/>
	</linearGradient>
	<path class="st4" d="M562.6,154.6c-1.1-1.4-3-1.4-3.6-1.4c-3.8,0-14.9,0-34.1,0h-33.4c-3.4,0-6.3,1-8.6,2.9
		c-2.4,1.9-3.9,4.5-4.5,7.8c-0.9,4.6-2.2,11.6-4,20.7c-0.6,3.3-0.1,5.9,1.5,7.9c1.6,2,4.2,3,7.5,3h38.8c4.6,0,7.1,0,7.7,0
		c0.7,0,1.3,0.2,1.7,0.5c0.4,0.3,0.7,0.7,0.9,1.3c0.3,1.2,0.2,2.3-0.4,3.5c-0.6,1.2-1.4,2-2.6,2.5c-0.5,0.2-1.2,0.4-1.9,0.4
		c-0.3,0-1,0.1-2.6,0.1h-24.2c-9.7,0-17.7,0-24.2,0c-1.3,0-2.3,0.3-3.1,1c-0.8,0.7-1.4,1.6-1.6,2.9c-0.6,3.6-1.1,6.4-1.6,8.2
		c-0.4,1.7-0.1,3,0.8,4c1,1,2.4,1.1,3.3,1.1c9.4,0,30.8,0,63.7,0c3.1,0,5.8-0.9,8.1-2.7c2.3-1.8,3.8-4.3,4.5-7.3
		c1.3-6,2.8-13.5,4.4-22.4c0.4-2.4-0.1-4.7-1.5-6.6c-1.4-1.8-3.4-3-5.8-3.4c-0.5-0.1-1.1-0.1-1.7-0.1h-1.4c-24.6,0-40.6,0-48.7,0
		c0.4-1.8,0.8-4,1.2-6.7c0.1-0.9,0.3-1.4,0.4-1.5c0.2-0.1,0.6-0.2,1.5-0.2c28.6,0,47.9,0,57.4,0c1.4,0,2.5-0.4,3.3-1.1
		c0.8-0.7,1.3-1.7,1.5-3c0.6-3.5,1.1-6.1,1.5-7.8C563.4,157.8,563.8,156,562.6,154.6z"/>
	<linearGradient id="SVGID_5_" gradientUnits="userSpaceOnUse" x1="378.9227" y1="203.9524" x2="378.9227" y2="-36.8521">
		<stop  offset="0.1296" style="stop-color:#FFFC87"/>
		<stop  offset="0.2255" style="stop-color:#FFFFFF"/>
		<stop  offset="0.3162" style="stop-color:#55FFFC"/>
		<stop  offset="0.3903" style="stop-color:#F6EDCB"/>
		<stop  offset="0.4313" style="stop-color:#7694B1"/>
		<stop  offset="0.4709" style="stop-color:#ECF8FF"/>
		<stop  offset="1" style="stop-color:#D4FFFF"/>
	</linearGradient>
	<path class="st5" d="M339.9,121.2c1.4,2.4,3.3,4.1,5.6,5.2c2,0.9,4.4,1.4,7,1.4l51.2,0c0.1,0,0.1,0,0.2,0c1.2,0,2.1-0.5,2.5-0.9
		c0.7-0.6,1.2-1.4,1.4-2.5c0.7-3.7,1.3-6.6,1.7-8.7c0.1-0.5,0.5-2.2-0.5-3.5c-0.7-1-1.9-1.5-3.5-1.4c-2.3,0-12.8,0-31,0h-11.2
		c-1.3,0-2.2-0.3-2.9-1c-0.6-0.5-0.8-1.1-0.7-2c0-0.1,0.1-0.6,0.3-1.5c0.3-1.1,0.4-1.8,0.5-2.3c0.1-0.9,0.3-1.3,0.4-1.5
		c0.2-0.1,0.6-0.1,1.5-0.1c21.9,0,35.5,0,41.6,0c1.2,0,2.2-0.3,3-0.9c0.6-0.5,1.4-1.3,1.6-2.9c0.6-3.1,1.1-5.7,1.5-7.8
		c0.3-1.3,0.7-3.3-0.7-4.5c-0.9-0.9-2.1-1-3.8-1c-15.2,0-29,0-41.3,0c0.1-0.3,0.1-0.6,0.2-0.9l0.5-2.7c0.4-1.8,1-3.1,1.8-3.8
		c0.8-0.6,2.2-1,4-1c21,0,35.3,0,42.3,0c1.4,0,2.5-0.4,3.4-1.2c0.7-0.7,1.2-1.6,1.4-2.9c0.5-3.1,1-5.7,1.5-7.8
		c0.6-2.2-0.1-3.4-0.7-4c-1-1.1-2.4-1.2-3.4-1.2c-3.8,0-12.5,0-25.8,0h-24.8c-4.4,0-8.5,1.5-12.2,4.4c-3.7,2.9-6.1,6.6-7,11
		c-1,4.7-2.2,10.7-3.6,17.9c-2.2,11.3-3.4,17.3-3.5,17.9C337.7,114.9,338.2,118.3,339.9,121.2z"/>
	<linearGradient id="SVGID_6_" gradientUnits="userSpaceOnUse" x1="290.5724" y1="203.9524" x2="290.5724" y2="-36.8521">
		<stop  offset="0.1296" style="stop-color:#FFFC87"/>
		<stop  offset="0.2255" style="stop-color:#FFFFFF"/>
		<stop  offset="0.3162" style="stop-color:#55FFFC"/>
		<stop  offset="0.3903" style="stop-color:#F6EDCB"/>
		<stop  offset="0.4313" style="stop-color:#7694B1"/>
		<stop  offset="0.4709" style="stop-color:#ECF8FF"/>
		<stop  offset="1" style="stop-color:#D4FFFF"/>
	</linearGradient>
	<path class="st6" d="M244.3,58.1c1.5,0.4,3.1,0.6,4.8,0.7c2.5,0.2,5.2,0.1,8.2-0.3c2-0.3,4.6-0.7,7.8-1.3c0.9-0.2,1.7-0.2,2.4,0
		c0.7,0.2,1.4,0.6,2.2,1.3c4.1,3.7,8.6,6.2,13.4,7.5c2.7,0.7,5.4,1.1,8.2,1.1c2.4,0,4.8-0.3,7.2-0.8c6.9-1.5,12.8-5.1,17.4-10.7
		c4.6-5.6,7-12,7.3-19.1c0.1-1.9,0.3-2.7,0.4-3c0.2-0.7,0.6-1.2,1.2-1.6c1.3-0.9,2.9-2.1,4.6-3.4c1-0.8,2.4-1.9,4.4-3.5
		c3.1-2.5,5.4-5.2,6.8-8.3l0,0c0.9-1.9,0.6-3.5,0.3-4.4c-0.4-0.9-1.2-2.2-3.2-3c-1.6-0.6-3.4-1-5.6-1.1c-4.9-0.2-10.3,0.4-16,1.8
		c-0.8,0.2-1.5,0.2-2.2,0.1c-0.6-0.2-1.3-0.5-1.9-1.1c-6.8-6-14.4-9-22.5-8.9l-2,0c-0.9,0-1.7,0.1-2.4,0.2
		c-7.9,1.3-14.5,4.9-19.5,11c-5,5.9-7.5,13-7.7,21.1c0,1.2-0.5,2.1-1.5,2.9c-3.9,3-6.8,5.3-8.7,6.8c-1.6,1.3-2.9,2.5-3.9,3.5
		c-1.4,1.5-2.5,3.1-3.2,4.8c-0.9,2.1-0.6,3.8-0.1,4.8C241,56.2,242,57.6,244.3,58.1z"/>
	<linearGradient id="SVGID_7_" gradientUnits="userSpaceOnUse" x1="510.8805" y1="203.9524" x2="510.8805" y2="-36.8521">
		<stop  offset="0.1296" style="stop-color:#FFFC87"/>
		<stop  offset="0.2255" style="stop-color:#FFFFFF"/>
		<stop  offset="0.3162" style="stop-color:#55FFFC"/>
		<stop  offset="0.3903" style="stop-color:#F6EDCB"/>
		<stop  offset="0.4313" style="stop-color:#7694B1"/>
		<stop  offset="0.4709" style="stop-color:#ECF8FF"/>
		<stop  offset="1" style="stop-color:#D4FFFF"/>
	</linearGradient>
	<path class="st7" d="M464.1,127.8c0.7,0,2.9,0,6.4,0c2.7,0,5,0,6.7-0.1c1.6-0.1,2.5-0.8,3.1-1.5c0.4-0.6,0.7-1.2,0.9-2.1l2.2-11.1
		c2.5-12.7,4.4-22.3,5.7-28.7c0.2-0.9,0.5-1.2,0.6-1.2c0.1-0.1,0.4-0.3,1.4-0.2c0.1,0,0.2,0,0.5,0.2c0.1,0.1,0.4,0.4,0.9,1.2
		l22.2,34.6c1.8,2.7,3.8,4.9,6,6.3c2.5,1.7,5.4,2.6,8.7,2.7c0.2,0,0.4,0,0.7,0c0.4,0,0.9,0,1.3-0.1c0.3-0.1,0.8-0.2,1.5-0.3
		c5-0.9,9.4-3.2,13.1-6.7c3.7-3.5,6-7.8,7-12.8c1-4.9,1.7-8.5,2.2-10.9l6.4-32.1c0.3-1.4,0.1-2.6-0.6-3.5c-0.8-1-1.9-1.5-3.5-1.4
		c-4.2,0.1-8.3,0.1-12,0c-1.3,0-2.4,0.3-3.2,1l-0.1,0.1c-0.7,0.6-1.1,1.5-1.3,2.6c-1.3,6.9-2.4,12.6-3.3,17l-4.5,22.6
		c-0.3,1.3-0.7,1.4-1.1,1.5c-0.3,0.1-0.8,0.2-1.5-1c-0.5-0.8-1.2-1.9-2-3.1c-1.1-1.7-1.8-2.7-2-3l-19.4-29.5c-1.9-2.8-4-4.9-6.4-6.3
		l0,0c-2.7-1.5-5.8-2.1-9.2-1.9c-5.2,0.4-9.9,2.5-14.2,6.3c-4.2,3.8-6.9,8.2-7.9,13.3c-0.3,1.5-2.5,12.8-6.8,33.9
		c-1.1,5.3-1.6,8.3-1.8,9.2c-0.2,1-0.3,1.5-0.2,2.1C460.6,126.4,461.8,127.9,464.1,127.8z"/>
	<linearGradient id="SVGID_8_" gradientUnits="userSpaceOnUse" x1="58.8223" y1="203.9524" x2="58.8223" y2="-36.8521">
		<stop  offset="0.1296" style="stop-color:#FFFC87"/>
		<stop  offset="0.2255" style="stop-color:#FFFFFF"/>
		<stop  offset="0.3162" style="stop-color:#55FFFC"/>
		<stop  offset="0.3903" style="stop-color:#F6EDCB"/>
		<stop  offset="0.4313" style="stop-color:#7694B1"/>
		<stop  offset="0.4709" style="stop-color:#ECF8FF"/>
		<stop  offset="1" style="stop-color:#D4FFFF"/>
	</linearGradient>
	<path class="st8" d="M116.6,153.2l-4.4,0c-2.9,0-5.1,0-6.5,0c-2.5,0-4.7,0-6.4,0c-1.2,0-2.2,0.2-3,0.8c-0.7,0.5-1.3,1.2-1.9,2.2
		c-1.7,3.5-5,10.4-9.9,20.7c-4.1,8.6-7.5,15.5-9.9,20.7c-0.2,0.5-0.6,0.9-1.1,1.4c0,0-0.1,0.1-0.2,0.2c-0.1-0.2-0.1-0.3-0.1-0.3
		c0,0,0,0,0,0l-1.7-17.1c-0.6-6.6-1.3-14.8-2.1-24.3c-0.1-1.3-0.5-2.2-1.2-3c-0.8-0.8-1.9-1.3-3.4-1.2c-5,0.1-9,0.1-12.1,0
		c-1.5-0.1-2.7,0.2-3.7,0.9c-0.9,0.6-1.7,1.6-2.3,2.8c-2,4.2-5.2,10.9-9.5,19.8c-4.2,8.6-7.3,15.2-9.5,19.8c-0.4,0.9-1,1.7-1.6,2.4
		c-0.3-0.7-0.5-1.3-0.5-1.8c-0.2-3.2-0.8-9.2-1.5-17.7c-0.9-9.7-1.6-17.1-2-21.9c-0.1-1.3-0.6-2.3-1.3-3c-0.8-0.7-1.8-1-3.1-1
		c-5.1,0.1-9.1,0.1-12.1,0c-2,0-3,0.8-3.6,1.5c-1,1.2-0.8,2.8-0.7,3.3c0.2,2.1,0.5,5.4,0.9,9.7l2,20.9c0.9,9.2,1.5,15.3,1.8,18.4
		c0.7,6.2,4.2,10.6,10.3,12.7c2,0.7,4,1,6.2,1c2.2,0,4.6-0.4,6.9-1.2c4.5-1.5,8.2-4.1,11-7.8c1.5-2,3.1-4.6,4.7-7.7
		c1.6-3.4,2.8-5.9,3.7-7.6c1.3-2.9,2.4-5,3.1-6.5c0.2,1.3,0.4,2.8,0.5,4.3c0.2,2.4,0.5,6.1,0.8,11.1c0.4,5.2,2.4,9.3,6,12.1
		c3.4,2.6,7.5,3.7,12.3,3.1c4.5-0.6,8.4-2,11.8-4.4c3.4-2.4,6.1-5.7,8-9.8l22-45.3c0.3-0.6,0.9-2,1.9-4.1L116.6,153.2z M52,158.9
		C52,158.9,52,158.9,52,158.9L52,158.9L52,158.9z"/>
	<linearGradient id="SVGID_9_" gradientUnits="userSpaceOnUse" x1="277.1615" y1="203.9524" x2="277.1615" y2="-36.8521">
		<stop  offset="0.1296" style="stop-color:#FFFC87"/>
		<stop  offset="0.2255" style="stop-color:#FFFFFF"/>
		<stop  offset="0.3162" style="stop-color:#55FFFC"/>
		<stop  offset="0.3903" style="stop-color:#F6EDCB"/>
		<stop  offset="0.4313" style="stop-color:#7694B1"/>
		<stop  offset="0.4709" style="stop-color:#ECF8FF"/>
		<stop  offset="1" style="stop-color:#D4FFFF"/>
	</linearGradient>
	<path class="st9" d="M287.4,83.7c-4.1,0-8.2,0-12.3,0c-1.1,0-2.1,0.2-2.8,0.8c-0.9,0.6-1.4,1.5-1.7,2.8c-0.2,0.9-1.7,8.1-4.7,21.9
		l-2.9,13.5c-0.3,1.4-0.4,2.8,0.6,4c1,1.1,2.4,1.2,3.7,1.2h5.7c0.7,0,1.7,0,3,0c1.1,0,2,0,2.8,0.1c0.1,0,0.2,0,0.4,0
		c1.1,0,2.1-0.3,2.9-0.9c0.8-0.6,1.3-1.6,1.6-2.8c3-14.1,5.6-26.1,7.7-35.7c0.4-2-0.2-3.1-0.8-3.7C289.5,83.6,287.9,83.6,287.4,83.7
		z"/>
	<linearGradient id="SVGID_10_" gradientUnits="userSpaceOnUse" x1="176.3647" y1="203.9524" x2="176.3647" y2="-36.8521">
		<stop  offset="0.1296" style="stop-color:#FFFC87"/>
		<stop  offset="0.2255" style="stop-color:#FFFFFF"/>
		<stop  offset="0.3162" style="stop-color:#55FFFC"/>
		<stop  offset="0.3903" style="stop-color:#F6EDCB"/>
		<stop  offset="0.4313" style="stop-color:#7694B1"/>
		<stop  offset="0.4709" style="stop-color:#ECF8FF"/>
		<stop  offset="1" style="stop-color:#D4FFFF"/>
	</linearGradient>
	<path class="st10" d="M144.2,123.7c2.3,2.3,4.9,3.6,7.9,3.8c2.5,0.2,5,0.3,7.3,0.3c2.4,0,9.7,0,21.8,0c13.8,0,22,0,24.8,0
		c1,0,1.8-0.2,2.6-0.6c0.7-0.4,1.6-1.3,1.9-3c0.1-0.8,0.7-3.7,1.6-8.4c0.2-1,0.5-2.6-0.5-3.8c-1-1.3-2.7-1.3-3.7-1.3h-36.1
		c-2,0-3.1,0-3.5,0c-1.3,0-2.4-0.1-3.3-0.2c-0.8-0.1-1.3-0.3-1.6-0.5c-0.4-0.3-0.6-1-0.7-1.5c0-0.2-0.1-0.5,0-1
		c0-0.2,0.1-0.8,0.3-1.7c1.7-8.7,4.4-22.4,8.1-41c0.3-1.4,0-2.6-0.7-3.4c-0.5-0.7-1.5-1.5-3.4-1.4c-4.2,0.1-8.3,0.1-12,0
		c-1.3,0-2.4,0.3-3.2,1l-0.1,0.1c-0.7,0.6-1.2,1.5-1.4,2.7c-0.7,3.6-2,10.3-4,20.1c-1.7,8.5-3,15.2-4,20.1c-0.2,1.2-0.6,3-1.1,5.5
		c-0.4,2.3-0.6,4.4-0.5,6.2C140.8,118.8,142,121.5,144.2,123.7z"/>
	<linearGradient id="SVGID_11_" gradientUnits="userSpaceOnUse" x1="49.4434" y1="203.9524" x2="49.4434" y2="-36.8521">
		<stop  offset="0.1296" style="stop-color:#FFFC87"/>
		<stop  offset="0.2255" style="stop-color:#FFFFFF"/>
		<stop  offset="0.3162" style="stop-color:#55FFFC"/>
		<stop  offset="0.3903" style="stop-color:#F6EDCB"/>
		<stop  offset="0.4313" style="stop-color:#7694B1"/>
		<stop  offset="0.4709" style="stop-color:#ECF8FF"/>
		<stop  offset="1" style="stop-color:#D4FFFF"/>
	</linearGradient>
	<path class="st11" d="M4.3,127l0.1,0.1c0.9,0.7,2,0.8,2.7,0.8c6.3,0,10.5,0,12.7,0c1.2,0,2.2-0.4,2.9-1c0.6-0.6,1-1.4,1.2-2.5
		c0.3-1.6,0.8-4.2,1.5-8c0.6-3,1.1-5.4,1.4-7.3c6.8,0,16.8,0.1,30,0.1c1.2,0,2.2-0.3,2.9-0.9c0.9-0.6,1.4-1.6,1.6-2.9
		c0.3-1.7,0.8-4.4,1.5-8.1c0.3-1.3,0.4-2.8-0.5-3.9l-0.1-0.2c-1-1-2.3-1.1-3.7-1.1c-1.5,0-6.6,0-15.2,0c-5.2,0-9.6,0-13.2-0.1
		c0.4-2,1.2-5.7,2.2-11.1c0.3-1.2,0.7-2.1,1.5-2.8c0.8-0.6,1.7-0.9,3-0.9c15,0,26.5,0,34,0c1.7,0,2.1,0.6,2.3,0.8
		c0.3,0.4,0.7,1,0.4,2.5c-2.8,14.2-5.6,28.5-8.4,42.6c-0.1,0.5-0.4,2.1,0.6,3.4c0.7,0.9,1.9,1.4,3.4,1.4c4.6-0.1,8.7,0,12,0
		c1.3,0,2.4-0.3,3.2-1l0.1-0.1c0.7-0.7,1.2-1.6,1.4-2.7c3.5-18.1,6.7-34.2,9.4-47.7c0.9-4.4,0-8.3-2.5-11.5
		c-2.6-3.2-6.2-4.8-10.7-4.8H31.8c-4.3,0-8.4,1.5-12.2,4.6c-3.7,3-6.1,6.7-6.9,11c-0.9,4.6-2.5,12.5-4.7,23.8
		c-2,10.1-3.6,18-4.7,23.8C2.9,125.2,3.6,126.4,4.3,127z"/>
	<linearGradient id="SVGID_12_" gradientUnits="userSpaceOnUse" x1="162.3407" y1="203.9524" x2="162.3407" y2="-36.8521">
		<stop  offset="0.1296" style="stop-color:#FFFC87"/>
		<stop  offset="0.2255" style="stop-color:#FFFFFF"/>
		<stop  offset="0.3162" style="stop-color:#55FFFC"/>
		<stop  offset="0.3903" style="stop-color:#F6EDCB"/>
		<stop  offset="0.4313" style="stop-color:#7694B1"/>
		<stop  offset="0.4709" style="stop-color:#ECF8FF"/>
		<stop  offset="1" style="stop-color:#D4FFFF"/>
	</linearGradient>
	<path class="st12" d="M209.4,161.8c-1.1-2.7-2.8-4.9-5.2-6.4c-2.3-1.5-5-2.2-8-2.2l-55.3,0c-4.3,0-8.3,1.5-12,4.4
		c-3.8,3-6.1,6.6-7,10.7c-0.9,4.3-2.1,10.1-3.5,17.4c-1.7,8.6-2.8,14.4-3.4,17.3c-0.4,1.8-0.6,3.3-0.6,4.5c0,1.8,0.3,3.5,0.9,5.1
		c1,2.6,2.7,4.6,5,6.1c2.3,1.5,4.9,2.2,7.9,2.2c30.4,0,48.6,0,54.7,0c2.9,0,5.5-0.5,7.7-1.5c6.8-3,10.9-7.8,12.3-14.2
		c1.3-6.5,3.6-18,6.8-34.1c0.3-1.7,0.5-3.2,0.5-4.4C210.3,165,210,163.3,209.4,161.8z M188.3,174c-1.9,9.8-3.6,18.5-5,25.8
		c-0.3,1.4-0.8,2.4-1.6,3.1c-0.8,0.7-1.9,1-3.3,1c-11.9,0-24.9,0-38.6,0c-1.2,0-1.8-0.2-2.1-0.3c-0.4-0.2-0.8-0.5-1-0.9
		c-0.2-0.3-0.3-0.6-0.3-1l0-0.1c0-0.3,0-0.8,0.1-1.6c1.7-9.1,3.4-17.6,5-25.3c0.3-1.7,0.9-2.8,1.7-3.4c0.8-0.6,2.1-1,3.8-1l19.1,0
		c10.8,0,17.2,0,19.4,0c2.4,0,2.7,1,2.9,1.6C188.5,172.4,188.5,173.1,188.3,174z"/>
	<linearGradient id="SVGID_13_" gradientUnits="userSpaceOnUse" x1="282.2164" y1="220.1385" x2="282.2164" y2="-3.4272">
		<stop  offset="0" style="stop-color:#FF7400"/>
		<stop  offset="0.1629" style="stop-color:#FFB900"/>
		<stop  offset="0.3226" style="stop-color:#68DB34"/>
		<stop  offset="0.4558" style="stop-color:#00F3FF"/>
		<stop  offset="0.6552" style="stop-color:#2B93F1"/>
		<stop  offset="1" style="stop-color:#00E662"/>
	</linearGradient>
	<path class="st13" d="M202.7,160.8c-1.8-1.2-4-1.8-6.5-1.8h-27.3v0h-28c-3.6,0-7.1,1.3-10.3,3.8c-3.2,2.5-5.2,5.6-6,9.1
		c-0.9,4.3-2.1,10.1-3.5,17.3c-1.7,8.6-2.8,14.4-3.4,17.3c-0.3,1.6-0.5,3-0.5,4c0,1.4,0.2,2.8,0.7,4c0.8,2,2.1,3.6,3.9,4.8
		c1.8,1.2,3.9,1.7,6.4,1.7c30.4,0,48.6,0,54.7,0c2.5,0,4.7-0.4,6.5-1.2c6-2.6,9.5-6.7,10.6-12.2c1.3-6.5,3.6-17.9,6.8-34.1
		c0.3-1.6,0.5-2.9,0.5-3.9c0-1.4-0.2-2.7-0.6-3.9C205.9,163.7,204.6,162,202.7,160.8 M185.4,170.4c2.9,0,4.8,1.2,5.6,3.6
		c0.3,1,0.4,2.2,0.1,3.5c-1.9,9.8-3.6,18.4-5,25.8c-0.4,2.1-1.3,3.6-2.6,4.8c-1.3,1.1-3,1.7-5.1,1.7c-12,0-24.9,0-38.6,0
		c-1.3,0-2.4-0.2-3.2-0.5c-1.1-0.4-1.9-1.1-2.4-2.2c-0.4-0.7-0.6-1.5-0.6-2.3v0c0-0.7,0-1.4,0.2-2.3c1.7-9.1,3.4-17.6,5-25.4
		c0.5-2.3,1.4-4,2.7-5.1c1.3-1,3.2-1.6,5.6-1.6l19.1,0C176.8,170.4,183.2,170.4,185.4,170.4 M50.5,159.5c-0.5,0.3-0.9,0.9-1.3,1.7
		c-2,4.2-5.2,10.8-9.5,19.8c-4.2,8.6-7.3,15.2-9.5,19.8c-1,2.1-2.4,3.7-4.3,5c-0.3,0.2-0.5,0.3-0.5,0.3c-0.2,0.1-0.4-0.1-0.5-0.3
		c-0.6-1.1-1.1-2-1.3-2.6c-0.5-1-0.7-2-0.8-2.9c-0.2-3.2-0.8-9.1-1.5-17.6c-0.9-9.7-1.6-17-2-21.9c0-0.6-0.2-0.9-0.4-1.1
		c-0.2-0.2-0.6-0.3-1.1-0.3c-5.1,0.1-9.2,0.1-12.2,0c-0.6,0-1.1,0.1-1.3,0.4c-0.2,0.2-0.2,0.7-0.2,1.3c0.2,2.2,0.5,5.4,0.9,9.8
		l2,20.9c0.9,9.2,1.5,15.3,1.8,18.4c0.6,5.1,3.3,8.6,8.4,10.4c3.5,1.2,7.3,1.2,11.2-0.1c4-1.3,7.2-3.6,9.6-6.8
		c1.5-1.9,2.9-4.3,4.4-7.2c1.6-3.4,2.8-5.9,3.7-7.6c1.4-3,2.5-5.3,3.2-6.8c1.3-2.6,2.4-4.9,3.5-6.7c0.2,0.1,0.3,0.3,0.3,0.5
		c0,0,0,0.2,0.1,0.6c0.8,3.1,1.4,6.7,1.8,11c0.2,2.5,0.5,6.2,0.8,11.1c0.4,4.4,2,7.8,4.9,10.1c2.8,2.2,6.2,3,10.2,2.5
		c4-0.5,7.5-1.8,10.5-3.9c3-2.1,5.4-5,7.1-8.7l22-45.3c0.3-0.6,0.9-1.9,1.9-4c-2.9,0-5.1,0-6.5,0c-2.6,0-4.7,0-6.5,0
		c-0.6,0-1,0.1-1.4,0.3c-0.3,0.2-0.6,0.6-0.9,1.1c-1.7,3.5-5,10.4-9.9,20.7c-4.2,8.6-7.5,15.5-9.9,20.7c-0.4,0.9-1,1.6-1.8,2.3
		c-0.4,0.4-1.2,0.9-2.3,1.6c-0.2,0.1-0.3,0.2-0.4,0.2c-0.1,0-0.3-0.1-0.4-0.2c-0.5-0.7-0.9-1.3-1.1-1.6c-0.4-0.7-0.7-1.3-0.7-1.9
		l-1.7-17.2c-0.6-6.6-1.3-14.7-2.1-24.3c-0.1-0.6-0.2-1-0.4-1.3c-0.2-0.3-0.7-0.4-1.3-0.4c-5,0.1-9.1,0.1-12.2,0
		C51.7,159,51,159.1,50.5,159.5 M168.1,66.3c-0.2-0.2-0.6-0.3-1.2-0.3c-4.3,0.1-8.3,0.1-12.1,0c-0.6,0-1,0.1-1.3,0.3
		c-0.2,0.2-0.4,0.6-0.5,1.2c-0.7,3.6-2,10.4-4,20.1c-1.7,8.5-3,15.2-4,20.1c-0.2,1.2-0.6,3-1.1,5.4c-0.4,2.1-0.6,4-0.5,5.5
		c0.1,2.3,1,4.3,2.8,6.1c1.8,1.8,3.8,2.8,6,3c2.5,0.2,4.8,0.3,7.1,0.3c2.4,0,9.7,0,21.8,0c13.8,0,22,0,24.8,0c0.5,0,0.9-0.1,1.1-0.2
		c0.3-0.2,0.5-0.5,0.6-1c0.1-0.8,0.7-3.7,1.6-8.5c0.2-0.8,0.2-1.3,0.1-1.5c-0.1-0.1-0.6-0.2-1.5-0.2h-36.1c-2,0-3.2,0-3.6,0
		c-1.4,0-2.5-0.1-3.6-0.2c-1.4-0.1-2.4-0.6-3.2-1.2c-0.8-0.7-1.3-1.7-1.6-3c-0.1-0.6-0.1-1.2,0-1.9c0-0.2,0.2-0.9,0.4-1.9
		c1.7-8.7,4.4-22.3,8.1-40.9C168.3,66.9,168.2,66.5,168.1,66.3 M92.6,78.8c0.7-3.6,0.1-6.6-1.9-9.1c-2-2.5-4.9-3.7-8.5-3.7H31.8
		c-3.7,0-7.2,1.3-10.4,3.9c-3.2,2.6-5.2,5.8-5.9,9.4c-0.9,4.6-2.5,12.5-4.7,23.8c-2,10.1-3.6,18-4.7,23.8c-0.1,0.5-0.1,0.9,0.1,1.1
		c0.1,0.1,0.5,0.2,1,0.2c6.3,0,10.5,0,12.7,0c0.5,0,0.8-0.1,1-0.3c0.2-0.2,0.3-0.5,0.4-1c0.3-1.6,0.8-4.3,1.6-8
		c0.7-3.4,1.2-6.1,1.5-8c0.1-0.6,0.3-1,0.6-1.3c0.3-0.2,0.7-0.3,1.3-0.3c6.8,0,17.1,0.1,30.7,0.1c0.6,0,1-0.1,1.2-0.3
		c0.3-0.2,0.4-0.6,0.5-1.1c0.3-1.7,0.8-4.5,1.6-8.2c0.2-0.9,0.2-1.4,0.1-1.6c-0.1-0.1-0.7-0.2-1.7-0.2c-1.5,0-6.5,0-15.1,0
		c-6.1,0-11.2,0-15.1-0.2c-0.6,0-1-0.1-1.2-0.4c-0.2-0.2-0.2-0.6,0-1.2c0.1-0.6,1-4.8,2.6-12.8c0.4-1.9,1.2-3.4,2.5-4.4
		c1.3-1.1,2.9-1.6,4.8-1.6c15.1,0,26.4,0,34,0c2,0,3.5,0.6,4.5,1.9c1,1.2,1.3,2.9,1,4.8c-2.8,14.2-5.6,28.4-8.4,42.6
		c-0.1,0.6-0.1,1,0.1,1.2c0.2,0.2,0.5,0.3,1.1,0.3c4.7-0.1,8.7,0,12.1,0c0.6,0,1-0.1,1.3-0.3c0.2-0.2,0.4-0.6,0.5-1.2
		C86.7,108.3,89.9,92.5,92.6,78.8 M300.4,166.3c0.1-0.8,0.2-1.5,0.1-2.1c-0.1-1.6-0.7-2.8-1.9-3.7c-1.1-0.9-2.6-1.4-4.3-1.4h-34.4
		c-17.9,0-29.4,0-34.5,0c-0.6,0-1.1,0.1-1.3,0.3c-0.3,0.2-0.5,0.6-0.6,1.2c-0.5,3.1-1,5.8-1.6,8.3c-0.2,0.7-0.1,1.1,0.1,1.3
		c0.2,0.2,0.6,0.3,1.2,0.3c5.3,0,17.1,0,35.5,0c10.5,0,16.8,0,18.9,0c1.7,0,3,0.5,4.1,1.4c1,1,1.6,2.2,1.6,3.8
		c0,1.9-0.4,3.7-1.4,5.3c-0.8,1.3-1.8,2.2-3.2,2.8c-1.1,0.5-2.5,0.7-4.1,0.7c-20.1,0-38.2,0-54.3,0c-0.6,0-1,0.1-1.2,0.3
		c-0.3,0.2-0.5,0.6-0.6,1.2c-1.6,8.5-3.8,19.9-6.6,34c-0.1,0.5-0.1,0.9,0,1c0.1,0.2,0.5,0.3,1,0.3c4.2,0,8.5,0,12.7,0
		c0.5,0,0.8-0.1,1-0.3c0.2-0.2,0.3-0.5,0.4-1c0.2-1.3,1.6-8.3,4.1-21.1c0.2-1,0.6-1.8,1.1-2.2c0.6-0.5,1.3-0.7,2.3-0.7
		c20.3,0,32.5,0,36.5,0c1.8,0,3.2,0.4,4,1.2c0.9,0.8,1.4,2.1,1.7,3.9c0.6,4.2,1.5,10.6,2.6,19.1c0.1,0.4,0.1,0.7,0.3,0.9
		c0.2,0.2,0.4,0.3,0.9,0.3c5.6,0,10.2,0,13.9,0c0.5,0,0.9-0.1,1-0.3c0.1-0.2,0.1-0.5,0-1c-0.1-0.5-0.2-1.1-0.3-1.8
		c-0.1-1-0.2-1.6-0.2-1.8c-0.5-3.7-0.9-6.5-1.2-8.4c-0.5-3.3-0.9-6.1-1.3-8.4c-0.2-1.3-0.6-2.3-1.3-2.9c-0.6-0.6-1.7-1-3-1.3
		l-1.7-0.3c-0.3-0.1-0.4-0.2-0.5-0.3c-0.1-0.1,0-0.3,0.2-0.5c0.4-0.3,1-0.9,1.7-1.6c0.7-0.6,1.4-1,2-1.2c4-1.4,6.3-4,7.1-7.7
		c1.6-7.8,2.5-12.8,3-15C300.2,167.1,300.4,166.4,300.4,166.3 M337.2,160.3c0.1-0.5,0.1-0.9-0.1-1c-0.1-0.2-0.5-0.2-1-0.2
		c-5.1,0.1-9.2,0.1-12.4,0c-0.6,0-1,0.1-1.2,0.3c-0.2,0.2-0.4,0.6-0.5,1.1c-1.9,10-4.9,25-8.8,45c-0.4,1.9-0.6,3.1-0.6,3.6
		c-0.2,1.4-0.1,2.6,0.1,3.6c0.5,2.5,1.7,4.5,3.5,6c1.9,1.5,4.1,2.3,6.7,2.3c1.9,0,10.6,0,25.9,0c14.6,0,23.3,0,26.2,0
		c0.5,0,0.9-0.1,1.2-0.3c0.2-0.2,0.4-0.6,0.5-1.1c0.2-1.1,0.7-3.9,1.6-8.3c0.2-0.8,0.2-1.3,0.1-1.5c-0.1-0.1-0.6-0.2-1.5-0.2
		l-40.4,0c-1.2,0-2,0-2.2,0c-1.9-0.1-3.3-0.8-4.3-1.8c-1-1.1-1.4-2.5-1.2-4.3c0.1-0.6,0.2-1.2,0.3-1.9
		C332.2,185.8,334.9,172,337.2,160.3 M484.7,161.3c-1.8,1.5-3,3.5-3.5,6.2c-0.9,4.6-2.2,11.5-4,20.7c-0.5,2.4-0.1,4.3,0.9,5.6
		c1.1,1.3,2.9,2,5.3,2h38.8c4.6,0,7.2,0,7.8,0c1.3,0,2.4,0.4,3.4,1.1c0.9,0.7,1.6,1.6,1.9,2.8c0.5,1.9,0.3,3.7-0.6,5.6
		c-0.9,1.9-2.3,3.2-4.1,3.9c-0.8,0.3-1.7,0.6-2.7,0.7c-0.5,0-1.5,0.1-2.8,0.1c-10.7,0-18.8,0-24.2,0c-9.7,0-17.7,0-24.2,0
		c-0.6,0-1,0.1-1.3,0.3c-0.3,0.2-0.5,0.6-0.6,1.1c-0.6,3.7-1.2,6.5-1.6,8.3c-0.2,0.7-0.1,1.1,0.1,1.3c0.2,0.2,0.6,0.3,1.3,0.3
		c9.4,0,30.7,0,63.7,0c2.5,0,4.6-0.7,6.4-2.1c1.8-1.4,3-3.3,3.5-5.6c1.3-6,2.7-13.4,4.4-22.3c0.3-1.7,0-3.1-1-4.4
		c-0.9-1.2-2.2-2-3.9-2.2c-0.4-0.1-0.8-0.1-1.3-0.1c-0.6,0-1,0-1.4,0c-26.1,0-42.9,0-50.4,0c-0.7,0-1.2-0.1-1.4-0.3
		c-0.2-0.2-0.2-0.7,0-1.4c0.5-2,1-4.7,1.5-8.2c0.2-1.6,0.7-2.7,1.3-3.3c0.6-0.6,1.8-0.9,3.4-0.9c28.7,0,47.8,0,57.4,0
		c0.7,0,1.1-0.1,1.4-0.4c0.3-0.2,0.5-0.7,0.6-1.3c0.6-3.6,1.1-6.3,1.6-8c0.2-0.7,0.2-1.2,0-1.4c-0.2-0.2-0.6-0.3-1.4-0.3
		c-3.8,0-15.2,0-34.2,0h-33.4C488.8,159.1,486.5,159.8,484.7,161.3 M444.8,170.4c1.7,0.1,3,0.6,4,1.5c1,1,1.5,2.3,1.4,4.1
		c-0.1,1-0.2,2-0.4,3.2c-0.1,0.6-0.3,1.7-0.6,3.2c-1.6,8.5-3,15.6-4.2,21.3c-0.7,3.5-2.8,5.4-6.2,5.9c-0.8,0.1-1.7,0.2-2.7,0.2
		l-26.4,0c-1,0-1.5-0.1-1.7-0.2c-0.1-0.1-0.1-0.7,0.1-1.7l4.4-22c0.1-0.6,0.1-0.9,0-1.1c-0.2-0.3-0.6-0.4-1.2-0.4
		c-1.6,0-3.5,0-5.7,0c-2.5,0-4.4,0-5.7,0c-1.1,0-1.8,0.1-2,0.3c-0.2,0.2-0.5,0.8-0.7,1.9l-6.5,32.9c-0.1,0.7-0.1,1.1,0,1.3
		c0.2,0.2,0.6,0.3,1.3,0.3c7.5,0,24.5,0,50.9,0c3.7,0,7.2-1.4,10.5-4.1c3.2-2.7,5.2-5.9,5.9-9.6c2.9-14.6,5-25.5,6.5-32.8
		c0.4-2.1,0.6-3.2,0.7-3.5c0.2-1.3,0.2-2.5,0-3.6c-0.5-2.6-1.7-4.7-3.5-6.2c-1.9-1.5-4.1-2.3-6.8-2.3c-1.9,0-10.5,0-25.8,0
		c-13.5,0-22.2,0-26.1,0c-0.6,0-1.1,0.1-1.3,0.3c-0.3,0.2-0.5,0.7-0.6,1.3c-0.1,1.1-0.4,2.5-0.7,4c-0.2,0.9-0.5,2.2-0.8,4
		c-0.2,0.9-0.2,1.4-0.1,1.5c0.1,0.2,0.6,0.2,1.5,0.2h41.3C444.2,170.4,444.6,170.4,444.8,170.4 M365.1,78.9c1.3-1.1,3.3-1.6,5.8-1.6
		c21.2,0,35.3,0,42.3,0c0.7,0,1.1-0.1,1.4-0.4c0.3-0.2,0.4-0.7,0.5-1.3c0.5-3.2,1.1-5.9,1.6-8c0.2-0.7,0.2-1.1-0.1-1.4
		c-0.2-0.2-0.6-0.3-1.3-0.3c-3.8,0-12.4,0-25.8,0h-24.8c-3.8,0-7.3,1.3-10.5,3.8c-3.2,2.5-5.2,5.6-6,9.3c-1,4.7-2.2,10.7-3.6,17.9
		c-2.2,11.3-3.4,17.3-3.5,17.9c-0.6,2.9-0.2,5.6,1.2,7.9c1.1,1.9,2.5,3.2,4.4,4.1c1.6,0.8,3.6,1.1,5.8,1.1l51.3,0
		c0.4,0,0.6-0.1,0.8-0.2c0.2-0.1,0.3-0.4,0.4-0.8c0.7-3.7,1.3-6.7,1.8-8.9c0.1-0.6,0.1-1,0-1.2c-0.2-0.2-0.6-0.3-1.2-0.3
		c-2.3,0-12.6,0-31,0h-11.2c-2,0-3.6-0.6-4.8-1.7c-1.2-1.1-1.7-2.6-1.6-4.3c0-0.5,0.2-1.1,0.4-2c0.2-0.9,0.4-1.6,0.4-2
		c0.2-1.6,0.7-2.7,1.3-3.2c0.6-0.6,1.7-0.8,3.4-0.8c21.6,0,35.4,0,41.6,0c0.6,0,1-0.1,1.2-0.3c0.3-0.2,0.5-0.6,0.5-1.1
		c0.6-3.2,1.1-5.8,1.5-7.9c0.2-1.1,0.3-1.8,0.1-1.9c-0.1-0.1-0.7-0.1-1.8-0.1c-16,0-30.3,0-43.1,0c-0.7,0-1.1-0.1-1.3-0.3
		c-0.2-0.2-0.2-0.7-0.1-1.3c0.2-0.7,0.4-1.6,0.6-2.7l0.5-2.7C362.8,81.8,363.8,80,365.1,78.9 M288.6,90.8c0.1-0.6,0.1-0.9-0.1-1.1
		c-0.2-0.2-0.5-0.2-1.1-0.2c-4.1,0-8.2,0-12.4,0c-0.5,0-0.8,0.1-1.1,0.2c-0.3,0.2-0.4,0.5-0.5,1c-0.2,0.9-1.8,8.2-4.7,21.9
		l-2.9,13.5c-0.2,0.9-0.2,1.4,0,1.6c0.2,0.2,0.7,0.3,1.6,0.3h5.7c0.7,0,1.7,0,3,0c1.2,0,2.2,0,3,0.1c0.6,0,1-0.1,1.3-0.3
		c0.3-0.2,0.5-0.6,0.6-1.2C283.9,112.5,286.4,100.5,288.6,90.8 M337.9,19.5c0.4-0.8,0.5-1.5,0.2-2.2c-0.2-0.6-0.8-1.1-1.6-1.4
		c-1.3-0.5-2.9-0.8-4.7-0.9c-4.7-0.2-9.7,0.3-15.2,1.7c-1.3,0.3-2.5,0.4-3.5,0.1c-1.1-0.3-2.1-0.8-3.1-1.7
		c-6.3-5.6-13.2-8.3-20.5-8.2c-0.9,0-1.6,0-2,0c-0.8,0-1.5,0.1-2,0.2c-7.2,1.2-13.2,4.5-17.8,10c-4.6,5.4-6.9,11.9-7,19.3
		c0,2.1-0.9,3.8-2.6,5.1c-3.9,3-6.8,5.3-8.7,6.8c-1.5,1.2-2.7,2.3-3.6,3.2c-1.2,1.3-2.1,2.6-2.7,4c-0.4,1-0.5,1.8-0.1,2.5
		c0.3,0.7,1,1.2,2,1.4c1.4,0.3,2.8,0.6,4.3,0.6c2.3,0.1,4.9,0.1,7.6-0.3c2-0.2,4.5-0.7,7.5-1.3c1.4-0.3,2.6-0.3,3.7,0.1
		c1.1,0.3,2.2,1,3.3,1.9c3.8,3.4,7.9,5.7,12.3,6.9c4.5,1.2,9.1,1.3,14.1,0.3c6.3-1.4,11.6-4.6,15.8-9.8c4.2-5.1,6.4-10.9,6.7-17.5
		c0.1-1.7,0.2-2.9,0.5-3.7c0.4-1.3,1.2-2.3,2.3-3.1c1.3-0.9,2.8-2,4.5-3.4c1-0.8,2.4-1.9,4.4-3.5C334.7,24.5,336.7,22.1,337.9,19.5
		 M498.9,67.5c-2.2-1.2-4.7-1.7-7.6-1.5c-4.6,0.4-8.7,2.2-12.5,5.6c-3.8,3.3-6.1,7.3-7,11.7c-0.3,1.5-2.5,12.8-6.8,34
		c-1,5.2-1.6,8.3-1.8,9.2c-0.1,0.7-0.2,1-0.2,1c0,0.4,0.3,0.6,0.9,0.6c0.7,0,2.9,0,6.5,0c2.6,0,4.8,0,6.5-0.1c0.5,0,0.8-0.2,1-0.4
		c0.1-0.2,0.3-0.5,0.3-0.9l2.2-11.1c2.5-12.8,4.4-22.3,5.7-28.7c0.3-1.3,0.8-2.3,1.7-3c0.9-0.7,2-0.9,3.3-0.8c0.8,0.1,1.5,0.4,2.1,1
		c0.4,0.4,0.9,1,1.4,1.8l22.2,34.6c1.5,2.4,3.3,4.2,5.2,5.5c2.1,1.4,4.6,2.1,7.4,2.2c0.3,0.1,0.7,0,1.2-0.1c0.3-0.1,0.8-0.2,1.4-0.3
		c4.5-0.8,8.4-2.8,11.7-5.9c3.3-3.1,5.3-6.9,6.2-11.3c1-4.9,1.7-8.5,2.2-10.9l6.4-32c0.1-0.6,0.1-1-0.1-1.2
		c-0.2-0.2-0.6-0.4-1.2-0.3c-4.3,0.1-8.3,0.1-12.1,0c-0.6,0-1,0.1-1.2,0.3c-0.2,0.2-0.4,0.6-0.5,1.1c-1.3,6.9-2.4,12.6-3.3,17.1
		l-4.5,22.6c-0.4,2.1-1.5,3.4-3.4,3.7c-1.8,0.3-3.3-0.4-4.5-2.3c-0.5-0.8-1.2-1.8-2-3.1c-1.1-1.7-1.8-2.7-2-3l-19.4-29.5
		C502.7,70.4,500.9,68.6,498.9,67.5z"/>
	<path class="st14" d="M577.4,220c0.9-1,1.1-2.1,1.5-3.1c0.3-0.7,0.5-1.4,0.9-2.1s1-0.8,1.7-0.7s1.1,0.7,1.1,1.3c0.1,1.7,0,3.3,0,5
		c0,0.4-0.2,0.7-0.6,0.7c-0.5,0-0.6-0.3-0.6-0.7c0-1.4,0-2.7,0-4.1c0-0.3,0.2-0.8-0.4-0.8c-0.3,0-0.4,0.3-0.5,0.6
		c-0.5,1.3-1,2.6-1.5,3.9c-0.3,0.9-1,1.3-1.9,1c-0.9-0.2-1.1-0.9-1.1-1.7c0-1,0-2,0-3c0-0.3,0.1-0.8-0.3-0.9c-0.4,0-0.5,0.4-0.6,0.8
		c-0.5,1.3-1,2.6-1.4,4c-0.2,0.6-0.4,1.1-1.1,0.9c-0.8-0.3-0.2-0.9-0.1-1.2c0.4-1.4,1-2.7,1.5-4.1c0.4-1,0.9-1.8,2.1-1.5
		c1.2,0.2,1.2,1.2,1.2,2.1C577.2,217.4,577,218.6,577.4,220z"/>
	<path class="st14" d="M569.8,214.1c0.6,0,1.2,0,1.8,0c0.4,0,0.7,0.1,0.7,0.6c0,0.4-0.3,0.5-0.6,0.5c-1.5-0.2-1.5,0.7-1.4,1.8
		c0,1.1,0,2.1,0,3.2c0,0.4,0,0.9-0.6,0.9s-0.6-0.4-0.6-0.8c0-1.2,0-2.4,0-3.6c0-0.8,0-1.4-1.1-1.3c-0.4,0-0.8-0.1-0.8-0.6
		c0.1-0.6,0.6-0.5,0.9-0.5C568.7,214.1,569.3,214.1,569.8,214.1L569.8,214.1z"/>
</g>
</svg>
