<?xml version="1.0" encoding="utf-8"?>
<!-- Generator: Adobe Illustrator 24.0.3, SVG Export Plug-In . SVG Version: 6.00 Build 0)  -->
<svg version="1.1" id="Layer_1" xmlns="http://www.w3.org/2000/svg" xmlns:xlink="http://www.w3.org/1999/xlink" x="0px" y="0px"
	 viewBox="0 0 543.7 764.4" style="enable-background:new 0 0 543.7 764.4;" xml:space="preserve">
<style type="text/css">
	.st0{fill:#FFFFFF;}
</style>
<path class="st0" d="M526.9,0H17.1H0.3v152.3H0v489.8v122.3h16.7h509.8h16.7V642.1h0.3V152.3V0H526.9z M521.9,314.7l-17.7,27.7
	v109.1l17.3,27.3v168.3v59.6c0,18.2-14.8,33-33,33H353.2l-164.1-0.3H54.8c-18.2,0-33-14.8-33-33v-59.3V479.7L39.4,452V343
	l-17.3-27.3V162.3V108c0-10.1,8.2-18.3,18.3-18.3h150l27.3-27.3h109.1L354.5,90h149.1c10.1,0,18.3,8.2,18.3,18.3v54V314.7z"/>
</svg>
