<svg version="1.1" id="Layer_1" xmlns="http://www.w3.org/2000/svg" x="0" y="0" viewBox="0 0 2687 2278.4"
     xml:space="preserve"><style>.stLines{fill:#252525}</style>
    <path class="stLines"
          d="M639.5 0h1v2278.4h-1zM511.6 0h1v2278.4h-1zM383.7 0h1v2278.4h-1zM767.4 0h1v2278.4h-1zM255.8 0h1v2278.4h-1zM127.9 0h1v2278.4h-1zM0 0h1v2278.4H0zM1151.2 0h1v2278.4h-1zM1023.3 0h1v2278.4h-1zM895.3 0h1v2278.4h-1zM1279.1 0h1v2278.4h-1zM1662.8 0h1v2278.4h-1zM1534.9 0h1v2278.4h-1zM1407 0h1v2278.4h-1zM1790.7 0h1v2278.4h-1zM2174.4 0h1v2278.4h-1zM2046.5 0h1v2278.4h-1zM1918.6 0h1v2278.4h-1zM2302.3 0h1v2278.4h-1zM2558.1 0h1v2278.4h-1zM2430.2 0h1v2278.4h-1zM2686 0h1v2278.4h-1z"/></svg>